<svg width="154" height="99" viewBox="0 0 154 99" fill="none" xmlns="http://www.w3.org/2000/svg">
<path fill-rule="evenodd" clip-rule="evenodd" d="M7.49755 55.7569C10.9582 55.5817 15.4006 55.2526 15.3765 59.3038C15.3529 63.2322 10.825 62.9775 7.47444 62.7536L7.49755 55.7569ZM0 77.6294L0.0130009 79.0631L7.46779 79.1008L7.49524 69.676C11.3718 69.5544 15.0214 69.959 18.0085 68.2436C23.7152 64.9663 24.3146 56.0755 20.0201 51.8762C17.6681 49.5762 15.1829 48.9099 10.7972 48.9099L0.000289222 48.9207L0 77.6294Z" fill="#E31E24"/>
<path fill-rule="evenodd" clip-rule="evenodd" d="M50.6018 62.2073C57.5241 60.5491 59.6971 72.0109 52.771 73.4134C45.7002 74.8454 43.288 63.9596 50.6018 62.2073ZM63.7161 70.0257C64.8516 62.6783 60.3499 56.9767 53.9615 55.8915C46.4057 54.6082 40.5626 59.315 39.5246 65.5118C36.6777 82.5074 61.4213 84.872 63.7161 70.0257Z" fill="#E31E24"/>
<path fill-rule="evenodd" clip-rule="evenodd" d="M42.2542 42.9939C45.3098 43.1457 47.3526 43.4681 47.3526 39.4157L47.3528 3.5418C47.3538 -0.235222 45.6745 0.0044554 42.2817 0.0407173L42.2542 42.9939Z" fill="#E31E24"/>
<path fill-rule="evenodd" clip-rule="evenodd" d="M104.138 3.34699L104.139 36.6863C104.139 41.7671 103.398 43.357 109.134 42.9865L109.16 0.0549589C105.865 -0.0694296 104.146 -0.293934 104.138 3.34699Z" fill="#E31E24"/>
<path fill-rule="evenodd" clip-rule="evenodd" d="M32.4971 58.5746L32.4428 56.4582L26.0187 56.4665L26.0029 79.0705L32.7478 79.0978C32.79 75.4192 32.7394 71.7437 32.7585 68.0755C32.782 63.5247 33.6249 62.7506 38.0803 62.4877L38.1397 55.7326C34.1273 55.4475 33.008 58.2033 32.4971 58.5746Z" fill="#E31E24"/>
<path fill-rule="evenodd" clip-rule="evenodd" d="M97.7652 67.8539C87.9019 67.8522 90.4117 67.1987 88.3973 69.8895C84.1206 75.6026 74.3762 72.8851 74.2381 64.1808C74.0926 55.0065 84.154 52.4495 88.3634 58.1158C89.0028 58.9765 89.1692 59.5696 89.7104 60.3687L97.6711 60.3949C97.9499 57.224 93.7788 52.7315 92.0736 51.4903C81.5691 43.8429 66.5923 50.6697 66.4854 63.7867C66.417 72.1767 72.5215 78.5291 80.1438 79.5517C89.0778 80.75 96.3182 74.9016 97.7652 67.8539Z" fill="black"/>
<path fill-rule="evenodd" clip-rule="evenodd" d="M136.02 68.6608C135.561 65.3793 137.743 62.515 140.704 62.1078C144.12 61.6381 146.716 64.0361 147.107 66.9049C148.167 74.6698 137.032 75.8863 136.02 68.6608ZM129.436 79.1066L135.805 79.1026L135.863 76.8206C137.437 77.8311 138.051 79.3826 141.021 79.7832C143.466 80.113 146.219 79.5909 148.048 78.5884C151.299 76.8073 153.798 73.1822 153.988 68.2747C154.189 63.0928 151.769 59.1627 148.699 57.3101C145.879 55.6081 141.846 55.0945 138.612 56.5247C137.204 57.099 136.848 57.8627 136.244 58.0418L136.233 48.9062L129.433 48.9083L129.436 79.1066Z" fill="black"/>
<path fill-rule="evenodd" clip-rule="evenodd" d="M117.907 69.0507C117.382 71.82 114.656 74.1354 111.194 73.4135C108.33 72.8164 106.051 69.9226 106.853 66.4114C108.414 59.573 119.396 61.1999 117.907 69.0507ZM118.419 76.884L118.503 79.1082L124.84 79.1029L124.874 56.4993L118.552 56.4505L118.435 58.6574C116.992 56.9441 115.979 55.9936 113.11 55.7248C95.532 54.0778 95.302 81.2655 112.825 79.8229C115.545 79.5991 117.267 78.6571 118.419 76.884Z" fill="black"/>
<path fill-rule="evenodd" clip-rule="evenodd" d="M70.0669 36.3278C77.7163 36.3176 76.4078 36.4135 78.4568 24.3118C78.8719 21.8612 81.4422 7.97893 81.2458 6.7505C73.8517 6.53236 74.7831 7.33806 72.9761 18.6735C72.5207 21.5301 72.0071 24.4573 71.5333 27.3528C71.0522 30.2923 70.3716 33.3884 70.0669 36.3278Z" fill="black"/>
<path fill-rule="evenodd" clip-rule="evenodd" d="M59.5576 36.3078C67.1351 36.5823 66.041 35.913 67.9682 24.1998C68.4507 21.2673 68.9184 18.4786 69.417 15.5085C69.8625 12.8543 70.6528 9.30436 70.8289 6.74436C63.1946 6.71387 64.4326 6.89764 62.4717 18.7196C61.508 24.5305 60.2727 30.6034 59.5576 36.3078Z" fill="black"/>
<path fill-rule="evenodd" clip-rule="evenodd" d="M49.0725 36.3237C56.6375 36.3456 55.4868 36.0983 57.4544 24.2577C57.9356 21.3611 58.4057 18.472 58.9089 15.5478C59.1949 13.8854 60.3565 8.16102 60.2712 6.7666C52.7185 6.27959 53.7373 7.87136 51.9738 18.6235C51.2711 22.9084 49.4031 32.8138 49.0725 36.3237Z" fill="black"/>
<path fill-rule="evenodd" clip-rule="evenodd" d="M91.0742 36.3209C94.8345 36.3505 97.3602 36.766 98.0312 33.0579C98.5885 29.9775 102.29 8.24837 102.335 6.76871C94.4903 6.2492 95.8315 8.16429 93.9863 18.725L91.0742 36.3209Z" fill="black"/>
<path fill-rule="evenodd" clip-rule="evenodd" d="M80.6023 36.3262C88.1816 36.3698 87.0363 35.9982 88.9778 24.2537C89.9379 18.4462 91.084 12.5972 91.8692 6.7645C88.1347 6.6037 85.5498 6.4549 84.9189 10.0724L82.0201 27.4807C81.5685 30.1943 80.8015 33.6229 80.6023 36.3262Z" fill="black"/>
<path d="M13.7671 90.5732C13.156 90.5732 12.5127 90.7974 12.116 91.438H12.0624C12.0624 91.1497 11.9872 90.8081 11.8692 90.648H10.5398V98.0463H12.1266V95.4414H12.1802C12.5018 95.8256 13.1023 95.9431 13.6706 95.9431C15.2469 95.9431 15.9223 94.7795 15.9223 93.1781C15.9223 91.7155 15.3755 90.5732 13.7671 90.5732ZM13.1775 91.7369C13.9386 91.7369 14.2925 92.2279 14.2925 93.2956C14.2925 94.2457 13.9279 94.8649 13.1667 94.8649C12.3626 94.8649 12.116 94.2883 12.116 93.6691V92.9752C12.116 92.2707 12.5127 91.7369 13.1775 91.7369ZM22.6416 90.5412C21.9876 90.5412 21.1726 90.8508 20.8081 91.6729H20.7545C20.7545 91.1924 20.6687 90.8722 20.54 90.648H19.1892V95.8577H20.8081V93.4023C20.8081 92.4414 21.2479 91.9611 22.7274 91.9183L22.6416 90.5412ZM27.967 90.5519C26.0155 90.5519 25.2114 91.7689 25.2114 93.2742C25.2114 94.7901 25.887 95.9324 27.967 95.9324C30.0793 95.9324 30.7013 94.5446 30.7013 93.2635C30.7013 91.9076 30.09 90.5519 27.967 90.5519ZM27.9564 91.7048C28.8034 91.7048 29.0821 92.3454 29.0821 93.2635C29.0821 94.3204 28.6533 94.8115 27.9564 94.8115C27.1629 94.8115 26.8091 94.267 26.8091 93.2742C26.8091 92.3454 27.0986 91.7048 27.9564 91.7048ZM35.9945 90.648V90.1497C35.9945 89.5466 36.2197 89.3882 36.7452 89.3882C36.9382 89.3882 37.1953 89.4096 37.5171 89.4505L37.5278 88.3206C37.099 88.2138 36.6164 88.1819 36.3483 88.1819C34.9974 88.1819 34.397 88.7369 34.397 90.0128V90.648L33.5499 90.8294V91.6942H34.397V95.8577H35.9945V91.6942H37.4955V90.648H35.9945ZM42.6924 91.6836C43.3144 91.6836 43.5825 92.0785 43.6039 92.623H41.7704C41.8025 92.0144 42.1564 91.6836 42.6924 91.6836ZM42.7353 90.5626C40.9339 90.5626 40.1406 91.7689 40.1406 93.3489C40.1406 94.9824 40.9019 95.9324 42.7996 95.9324C44.022 95.9324 45.1692 95.5267 45.1692 94.299C45.1692 94.2564 45.1585 94.1923 45.148 94.1176H43.6897C43.6359 94.4379 43.3573 94.7795 42.7675 94.7795C41.9633 94.7795 41.7168 94.235 41.7168 93.4451H45.18C45.2123 93.2742 45.223 93.1141 45.223 92.9646C45.223 91.6622 44.4831 90.5626 42.7353 90.5626ZM50.6342 90.5519C48.8757 90.5519 48.3504 91.4593 48.3504 92.1532C48.3504 93.2528 49.1546 93.5304 50.4626 93.744C51.2024 93.8613 51.5026 93.9894 51.5026 94.3311C51.5026 94.5873 51.2562 94.8542 50.677 94.8542C50.2053 94.8542 49.7441 94.6833 49.7014 94.139H48.2431C48.2324 94.2243 48.2324 94.299 48.2324 94.3632C48.2324 95.6121 49.6262 95.9324 50.677 95.9324C52.3176 95.9324 53.0788 95.2064 53.0788 94.3204C53.0788 93.2849 52.4355 92.9219 50.7628 92.6336C50.1731 92.5375 49.948 92.4521 49.948 92.1425C49.948 91.8864 50.1731 91.6622 50.6556 91.6622C51.0202 91.6622 51.3527 91.8116 51.4061 92.2279H52.8644C52.8751 92.1425 52.8859 92.0678 52.8859 91.9932C52.8859 90.9041 51.6313 90.5519 50.6342 90.5519ZM58.4151 90.5519C56.6567 90.5519 56.1313 91.4593 56.1313 92.1532C56.1313 93.2528 56.9354 93.5304 58.2434 93.744C58.9833 93.8613 59.2835 93.9894 59.2835 94.3311C59.2835 94.5873 59.037 94.8542 58.458 94.8542C57.9861 94.8542 57.5251 94.6833 57.4822 94.139H56.0241C56.0133 94.2243 56.0133 94.299 56.0133 94.3632C56.0133 95.6121 57.4071 95.9324 58.458 95.9324C60.0984 95.9324 60.8598 95.2064 60.8598 94.3204C60.8598 93.2849 60.2163 92.9219 58.5437 92.6336C57.9539 92.5375 57.7288 92.4521 57.7288 92.1425C57.7288 91.8864 57.9539 91.6622 58.4364 91.6622C58.8011 91.6622 59.1335 91.8116 59.187 92.2279H60.6452C60.6559 92.1425 60.6668 92.0678 60.6668 91.9932C60.6668 90.9041 59.4122 90.5519 58.4151 90.5519ZM64.1694 95.8577H65.7671V90.648H64.1694V95.8577ZM64.1052 89.1961C64.1052 89.6871 64.5019 90.0714 64.9843 90.0714C65.4883 90.0714 65.885 89.6871 65.885 89.1961C65.885 88.6943 65.4883 88.31 64.9843 88.31C64.5019 88.31 64.1052 88.6943 64.1052 89.1961ZM71.9503 90.5519C69.9988 90.5519 69.1947 91.7689 69.1947 93.2742C69.1947 94.7901 69.8702 95.9324 71.9503 95.9324C74.0626 95.9324 74.6845 94.5446 74.6845 93.2635C74.6845 91.9076 74.0734 90.5519 71.9503 90.5519ZM71.9396 91.7048C72.7866 91.7048 73.0653 92.3454 73.0653 93.2635C73.0653 94.3204 72.6365 94.8115 71.9396 94.8115C71.1462 94.8115 70.7924 94.267 70.7924 93.2742C70.7924 92.3454 71.0819 91.7048 71.9396 91.7048ZM81.1464 90.5732C80.6747 90.5732 79.9457 90.712 79.4847 91.4273H79.4309C79.4309 91.043 79.3453 90.8081 79.2165 90.648H77.8548V95.8577H79.4847V92.9539C79.4847 92.3881 79.7527 91.7582 80.5782 91.7582C81.2108 91.7582 81.3931 92.196 81.3931 92.7831V95.8577H83.0121V92.6336C83.0121 91.4593 82.6584 90.5732 81.1464 90.5732ZM91.0826 92.4521C91.0826 91.3952 90.568 90.5412 88.713 90.5412C87.6943 90.5412 86.4613 90.9041 86.4613 91.9825C86.4613 92.0465 86.4613 92.1212 86.4827 92.196H87.9087C88.0052 91.7689 88.3592 91.6622 88.6808 91.6622C89.1633 91.6622 89.4957 91.8757 89.4957 92.4735V92.6977C89.2277 92.6763 88.9488 92.655 88.6486 92.655C87.3941 92.655 86.0646 92.9646 86.0646 94.3525C86.0646 95.4307 86.7294 95.9538 87.866 95.9538C88.4664 95.9538 89.174 95.6976 89.5386 95.1104H89.6029C89.6136 95.5053 89.6779 95.6976 89.7744 95.8577H91.0826V92.4521ZM89.4957 93.5838V93.8401C89.4957 94.299 89.2062 94.8435 88.3806 94.8435C87.9947 94.8435 87.6623 94.63 87.6623 94.2457C87.6623 93.7759 88.0697 93.5305 88.8095 93.5305C89.024 93.5305 89.2598 93.5517 89.4957 93.5838ZM94.4565 94.3844C94.4565 95.4841 94.7676 95.9431 95.872 95.9431C96.1078 95.9431 96.3222 95.9217 96.6333 95.8684V94.7368C96.14 94.7154 96.0435 94.6514 96.0435 94.2243V88.278H94.4565V94.3844ZM108.159 90.5732C106.55 90.5732 105.575 91.5126 105.575 93.3062C105.575 95.0784 106.443 95.9431 108.287 95.9431C109.467 95.9431 110.571 95.42 110.571 94.1923C110.571 94.1283 110.56 94.0536 110.55 93.9787H109.081C109.016 94.5872 108.577 94.7688 108.212 94.7688C107.397 94.7688 107.183 94.2137 107.183 93.2742C107.183 92.4628 107.376 91.7476 108.191 91.7476C108.491 91.7476 108.952 91.9076 108.995 92.5163H110.475C110.485 92.4414 110.496 92.3561 110.496 92.2814C110.496 91.1818 109.531 90.5732 108.159 90.5732ZM118.502 92.4521C118.502 91.3952 117.987 90.5412 116.132 90.5412C115.114 90.5412 113.881 90.9041 113.881 91.9825C113.881 92.0465 113.881 92.1212 113.902 92.196H115.328C115.425 91.7689 115.779 91.6622 116.1 91.6622C116.583 91.6622 116.915 91.8757 116.915 92.4735V92.6977C116.647 92.6763 116.368 92.655 116.068 92.655C114.813 92.655 113.484 92.9646 113.484 94.3525C113.484 95.4307 114.149 95.9538 115.285 95.9538C115.886 95.9538 116.593 95.6976 116.958 95.1104H117.022C117.033 95.5053 117.097 95.6976 117.194 95.8577H118.502V92.4521ZM116.915 93.5838V93.8401C116.915 94.299 116.626 94.8435 115.8 94.8435C115.414 94.8435 115.082 94.63 115.082 94.2457C115.082 93.7759 115.489 93.5305 116.229 93.5305C116.443 93.5305 116.679 93.5517 116.915 93.5838ZM124.964 95.9324C126.658 95.9324 127.205 94.6621 127.205 93.2421C127.205 91.6301 126.605 90.5839 125.007 90.5839C124.353 90.5839 123.763 90.8081 123.334 91.3952H123.27C123.345 91.1497 123.388 90.6052 123.388 90.317V88.278H121.758V95.8577H123.098C123.216 95.6656 123.27 95.388 123.27 95.1425H123.323C123.592 95.6549 124.278 95.9324 124.964 95.9324ZM124.449 91.7048C125.232 91.7048 125.543 92.2707 125.543 93.2635C125.543 94.3311 125.157 94.8435 124.428 94.8435C123.71 94.8435 123.345 94.3097 123.345 93.6051V93.0927C123.345 92.4201 123.645 91.7048 124.449 91.7048ZM130.493 94.3844C130.493 95.4841 130.804 95.9431 131.909 95.9431C132.145 95.9431 132.359 95.9217 132.67 95.8684V94.7368C132.177 94.7154 132.08 94.6514 132.08 94.2243V88.278H130.493V94.3844ZM138.113 91.6836C138.735 91.6836 139.003 92.0785 139.025 92.623H137.191C137.223 92.0144 137.577 91.6836 138.113 91.6836ZM138.156 90.5626C136.355 90.5626 135.561 91.7689 135.561 93.3489C135.561 94.9824 136.323 95.9324 138.22 95.9324C139.443 95.9324 140.59 95.5267 140.59 94.299C140.59 94.2564 140.579 94.1923 140.569 94.1176H139.111C139.057 94.4379 138.778 94.7795 138.188 94.7795C137.384 94.7795 137.138 94.235 137.138 93.4451H140.601C140.633 93.2742 140.644 93.1141 140.644 92.9646C140.644 91.6622 139.904 90.5626 138.156 90.5626Z" fill="black"/>
</svg>
