<svg width="12" height="14" viewBox="0 0 12 14" xmlns="http://www.w3.org/2000/svg">
<path fill-rule="evenodd" clip-rule="evenodd" d="M5.39994 0.792575C5.60769 0.630991 5.8986 0.630991 6.10635 0.792575L11.2842 4.81977C11.4243 4.92877 11.5063 5.09637 11.5063 5.2739V11.6023C11.5063 12.0601 11.3244 12.4991 11.0008 12.8228C10.6771 13.1465 10.2381 13.3283 9.78033 13.3283H1.72594C1.26819 13.3283 0.8292 13.1465 0.505524 12.8228C0.181847 12.4991 0 12.0601 0 11.6023V5.2739C0 5.09637 0.0819772 4.92877 0.222116 4.81977L5.39994 0.792575ZM1.15063 5.55527V11.6023C1.15063 11.7549 1.21125 11.9013 1.31914 12.0091C1.42703 12.117 1.57336 12.1777 1.72594 12.1777H9.78033C9.93291 12.1777 10.0793 12.117 10.1871 12.0091C10.295 11.9013 10.3556 11.7549 10.3556 11.6023V5.55527L5.75313 1.97554L1.15063 5.55527Z"/>
<path fill-rule="evenodd" clip-rule="evenodd" d="M3.45188 6.99984C3.45188 6.68211 3.70946 6.42453 4.02719 6.42453H7.47907C7.79681 6.42453 8.05439 6.68211 8.05439 6.99984V12.753C8.05439 13.0707 7.79681 13.3283 7.47907 13.3283C7.16134 13.3283 6.90376 13.0707 6.90376 12.753V7.57516H4.60251V12.753C4.60251 13.0707 4.34493 13.3283 4.02719 13.3283C3.70946 13.3283 3.45188 13.0707 3.45188 12.753V6.99984Z"/>
</svg>
