<svg viewBox="0 0 13 13" xmlns="http://www.w3.org/2000/svg">
<path d="M7.2735 5.62531L7.27347 5.62534C7.15869 5.71433 7.00183 5.73174 6.86964 5.67028L7.2735 5.62531ZM7.2735 5.62531C7.71513 5.28219 8.24858 5.10073 8.81659 5.10073C10.1789 5.10073 11.2846 6.17394 11.2846 7.48971V11.3055H9.91185M7.2735 5.62531L9.91185 11.3055M9.91185 11.3055V7.88071C9.91185 7.00775 9.17921 6.30036 8.28201 6.30036C7.38464 6.30036 6.65192 7.00775 6.65192 7.88071V11.3055H5.27909V5.1463H6.65192V5.33439C6.65192 5.47845 6.73719 5.60872 6.86963 5.67027L9.91185 11.3055ZM3.47086 4.40177H1.33271C1.12283 4.40177 0.95 4.56702 0.95 4.77403V11.6777C0.95 11.8848 1.12284 12.05 1.33271 12.05H3.47086C3.68073 12.05 3.85357 11.8848 3.85357 11.6777V4.77403C3.85357 4.56702 3.68074 4.40177 3.47086 4.40177ZM3.08816 11.3055H1.71541V5.1463H3.08816V11.3055ZM2.40187 0.95C1.60275 0.95 0.95 1.58001 0.95 2.35771C0.95 3.13558 1.60275 3.76551 2.40187 3.76551C3.20091 3.76551 3.85357 3.13549 3.85357 2.35771C3.85357 1.58001 3.20091 0.95 2.40187 0.95ZM2.40187 3.02098C2.02187 3.02098 1.71541 2.72195 1.71541 2.35771C1.71541 1.99356 2.02187 1.69453 2.40187 1.69453C2.78178 1.69453 3.08816 1.99355 3.08816 2.35771C3.08816 2.72196 2.78177 3.02098 2.40187 3.02098ZM8.81659 4.3562C8.32526 4.3562 7.84073 4.46596 7.40276 4.67193C7.35691 4.5152 7.20862 4.40177 7.03463 4.40177H4.8963C4.68652 4.40177 4.51359 4.56701 4.51359 4.77403V11.6777C4.51359 11.8848 4.68652 12.05 4.8963 12.05H7.03463C7.24449 12.05 7.41733 11.8848 7.41733 11.6777V7.88071C7.41733 7.42138 7.80376 7.0449 8.28193 7.0449C8.76008 7.0449 9.14635 7.42137 9.14635 7.88071V11.6777C9.14635 11.8848 9.31928 12.05 9.52905 12.05H11.6673C11.8772 12.05 12.05 11.8848 12.05 11.6777V7.48971C12.05 5.76032 10.5981 4.3562 8.81659 4.3562Z" stroke-width="0.1"/>
</svg>
