<svg  viewBox="0 0 10 10" xmlns="http://www.w3.org/2000/svg">
<path d="M9.12076 7.14976C9.12076 8.21256 8.24282 9.08212 7.21857 9.08212H2.87767C1.80464 9.08212 0.975482 8.21256 0.975482 7.14976V2.85024C0.975482 1.78744 1.85341 0.917875 2.87767 0.917875H7.21857C8.2916 0.917875 9.12076 1.78744 9.12076 2.85024V7.14976ZM7.12102 0H2.87767C1.26813 0 0 1.30435 0 2.89855V7.10145C0 8.69565 1.3169 10 2.87767 10H6.19431H7.12102C8.73056 10 9.99869 8.69565 9.99869 7.10145V2.89855C10.0475 1.30435 8.73056 0 7.12102 0ZM5.02373 6.66667C4.09702 6.66667 3.31664 5.89372 3.31664 4.97585C3.31664 4.05797 4.04825 3.28502 5.02373 3.28502C5.99921 3.28502 6.73082 4.05797 6.73082 4.97585C6.73082 5.94203 5.95044 6.66667 5.02373 6.66667ZM5.02373 2.41546C3.60928 2.41546 2.4387 3.57488 2.4387 5.02415C2.4387 6.47343 3.60928 7.63285 5.02373 7.63285C6.43818 7.63285 7.60876 6.47343 7.60876 5.02415C7.60876 3.57488 6.43818 2.41546 5.02373 2.41546ZM7.70631 1.69082C7.36489 1.69082 7.12102 1.98068 7.12102 2.27053C7.12102 2.56039 7.41366 2.85024 7.70631 2.85024C8.04773 2.85024 8.29159 2.56039 8.29159 2.27053C8.29159 1.98068 8.04773 1.69082 7.70631 1.69082Z"/>
</svg>
