<svg width="16" height="16" viewBox="0 0 16 16" xmlns="http://www.w3.org/2000/svg">
<path fill-rule="evenodd" clip-rule="evenodd" d="M7.19999 1.6C4.1072 1.6 1.6 4.10721 1.6 7.20001C1.6 10.2928 4.1072 12.8 7.19999 12.8C10.2928 12.8 12.8 10.2928 12.8 7.20001C12.8 4.10721 10.2928 1.6 7.19999 1.6ZM0 7.20001C0 3.22355 3.22355 0 7.19999 0C11.1764 0 14.4 3.22355 14.4 7.20001C14.4 11.1765 11.1764 14.4 7.19999 14.4C3.22355 14.4 0 11.1765 0 7.20001Z"/>
<path fill-rule="evenodd" clip-rule="evenodd" d="M11.1543 11.1543C11.4667 10.8419 11.9733 10.8419 12.2857 11.1543L15.7657 14.6343C16.0781 14.9468 16.0781 15.4533 15.7657 15.7657C15.4533 16.0781 14.9467 16.0781 14.6343 15.7657L11.1543 12.2857C10.8419 11.9733 10.8419 11.4667 11.1543 11.1543Z"/>
</svg>
