<svg viewBox="0 0 12 10" xmlns="http://www.w3.org/2000/svg">
<path d="M2.58332 8.87655L2.57122 8.97581C2.34792 8.94859 1.86484 8.8896 1.43625 8.39178C1.25542 8.18408 1.14386 7.88612 1.07621 7.63942C1.00776 7.38981 0.980616 7.17861 0.975384 7.1344L0.975377 7.1344L0.975248 7.13319L0.974104 7.12239L0.97408 7.12239L0.973899 7.12023C0.970874 7.08427 0.9 6.23867 0.9 5.38882V4.59845C0.9 3.7486 0.970874 2.90299 0.973897 2.86698L0.973884 2.86697L0.974047 2.86535L0.974581 2.86003L0.974589 2.85995C0.979113 2.81527 1.00298 2.60296 1.07032 2.35168C1.13684 2.10343 1.2493 1.80334 1.43825 1.59308C1.84173 1.12725 2.3524 1.06552 2.6122 1.03411L2.61503 1.03377C2.65729 1.02866 2.68837 1.02489 2.70835 1.02118L2.70833 1.02111L2.71211 1.02056L2.73523 1.01718L2.73521 1.01707L2.73971 1.01662C3.50844 0.939363 5.90744 0.901584 6.00624 0.900092L6.00816 0.900035L6.00815 0.899896L6.01344 0.900035L6.01545 0.900088C6.0742 0.900449 8.0472 0.915027 9.35995 1.01585L9.35995 1.01579L9.36329 1.01616L9.38076 1.0181L9.38077 1.01806L9.38362 1.01846C9.39862 1.02055 9.41593 1.0225 9.43673 1.02477L9.43698 1.0248L9.43719 1.02483C9.65914 1.04971 10.1403 1.10367 10.5637 1.59549C10.7445 1.80323 10.8561 2.1012 10.9237 2.3479C10.9922 2.59751 11.0193 2.80869 11.0246 2.85295L11.0247 2.85408L11.0258 2.86488L11.0258 2.86488L11.026 2.86706C11.029 2.90306 11.1 3.7486 11.1 4.59845V5.38882C11.0999 6.23867 11.029 7.08419 11.026 7.12021L11.0259 7.12128L11.0255 7.12611L11.0254 7.1266C11.0209 7.1719 10.997 7.38799 10.9295 7.64286C10.8628 7.89471 10.7498 8.19884 10.5595 8.40931C10.132 8.8899 9.64434 8.94848 9.41949 8.97549L9.4193 8.97551L9.41927 8.97551C9.40097 8.97771 9.38535 8.9796 9.37165 8.98153L9.37166 8.98158L9.36871 8.9819L9.35124 8.98384L9.35125 8.98389L9.3479 8.98415C8.04286 9.08438 6.08525 9.09938 6.00455 9.0999L6.00457 9.10032L5.99561 9.09991C5.9186 9.09941 3.95823 9.08448 2.64019 8.98415L2.64019 8.98421L2.63688 8.98385L2.61925 8.98191L2.61925 8.98196L2.6161 8.98152C2.60549 8.98001 2.59404 8.97861 2.58053 8.97695C2.5775 8.97658 2.57435 8.9762 2.57109 8.9758L2.58332 8.87655ZM2.58332 8.87655L2.59231 8.87765L2.59231 8.87765L2.59232 8.87765C2.60588 8.87931 2.61851 8.88086 2.63016 8.88251L1.07469 7.12265C1.08453 7.20581 1.18036 7.94581 1.51185 8.32632C1.91529 8.79508 2.36649 8.85011 2.58332 8.87655ZM10.0556 2.07861C10.2172 2.26403 10.3182 2.73222 10.3431 2.93602C10.3492 3.00999 10.4139 3.81591 10.4139 4.59845V5.38882C10.4139 6.18401 10.3473 7.00121 10.3429 7.05399C10.3179 7.29518 10.2197 7.74064 10.0611 7.91527L10.0556 2.07861ZM10.0556 2.07861C9.80662 1.78923 9.55081 1.76055 9.36404 1.73968L10.0556 2.07861ZM10.2433 7.04467C10.2314 7.15947 10.2017 7.32473 10.1561 7.48167C10.1091 7.64326 10.0499 7.77886 9.98705 7.84801L9.98633 7.8488L9.98397 7.85147L9.9839 7.85154C9.75435 8.11016 9.50862 8.14039 9.32905 8.16201L9.32892 8.16202L9.32764 8.16218C9.31074 8.16424 9.29434 8.16623 9.27907 8.16824C8.0015 8.26557 6.08178 8.28046 6.00001 8.28104L5.9982 8.28102C5.89318 8.28018 3.9895 8.26494 2.70879 8.16825C2.69544 8.16645 2.68128 8.16471 2.66705 8.16297L2.6627 8.16244L2.66264 8.16243C2.48979 8.14134 2.25141 8.11217 2.02007 7.84342L2.0197 7.84299C1.95726 7.77129 1.89766 7.63479 1.84938 7.47438C1.80254 7.31872 1.7706 7.15528 1.7563 7.04072C1.7492 6.95451 1.68601 6.15972 1.68601 5.38882V4.59845C1.68601 3.81412 1.75128 3.00722 1.7566 2.943C1.76853 2.83068 1.79812 2.66865 1.8437 2.51431C1.89062 2.35548 1.94979 2.22141 2.01287 2.15199L2.01378 2.15099L2.01377 2.15098L2.01919 2.14486L2.02008 2.14385L2.02007 2.14385C2.22291 1.9082 2.48536 1.87392 2.70573 1.84725C2.74723 1.84229 2.78933 1.83719 2.82907 1.83047C3.56535 1.75885 5.89743 1.72085 6.01376 1.71905C6.11594 1.71972 8.02144 1.73496 9.29131 1.83176L10.2433 7.04467ZM10.2433 7.04467C10.2484 6.98421 10.3139 6.17518 10.3139 5.38882V4.59845C10.3139 3.82657 10.2506 3.0308 10.2436 2.9462C10.2317 2.8494 10.2014 2.68786 10.1547 2.52855C10.1064 2.36399 10.0455 2.21927 9.98024 2.14429L9.97984 2.14384C9.75654 1.88434 9.53353 1.85924 9.35305 1.83907L10.2433 7.04467ZM7.58922 5.55912L7.58922 5.55912L5.37999 6.83589L5.32995 6.74931L5.37999 6.83589C5.22084 6.92786 5.03104 6.92434 4.87522 6.82682L4.8752 6.82681C4.72 6.72964 4.62937 6.559 4.62937 6.3733V3.84169C4.62937 3.65685 4.71942 3.48655 4.87361 3.38926L4.92697 3.47383L4.87361 3.38926C4.95387 3.33861 5.04396 3.31259 5.13502 3.31259C5.21837 3.31259 5.30127 3.33438 5.37675 3.37729C5.37676 3.3773 5.37678 3.3773 5.37679 3.37731L7.58605 4.63205L7.58608 4.63207C7.74998 4.72522 7.84954 4.90322 7.85028 5.09454V5.09459C7.85093 5.28595 7.75258 5.46469 7.58922 5.55912ZM6.76537 5.09874L5.41538 4.33196V5.87896L6.76537 5.09874Z" stroke-width="0.1"/>
</svg>
