<svg width="1266" height="295" viewBox="0 0 1266 295" fill="none" xmlns="http://www.w3.org/2000/svg">
<mask id="mask0" mask-type="alpha" maskUnits="userSpaceOnUse" x="0" y="0" width="516" height="295">
<path d="M0 0H516V295H0V0Z" fill="#C4C4C4"/>
</mask>
<g mask="url(#mask0)">
<path d="M659.589 234.018H34.5332V233.023H658.602V226.401H12.9373V220.089H674.005V214.231H2V213.236H675V221.076H13.9243V225.414H659.589V234.018Z" fill="#6B6B6B"/>
<path d="M62.7122 210.251H61.2793V198.233H35.6476V201.416H17.3392V210.251H15.9064V199.984H34.2148V196.8H62.7122V210.251Z" fill="#6B6B6B"/>
<path d="M173.756 210.251H172.324V202.212H158.791V196.243H127.747V135.751H122.573V128.986H108.881V135.353H53.558V197.516H52.1251V133.921H107.448V127.553H124.005V134.319H129.18V194.81H160.224V200.78H173.756V210.251Z" fill="#6B6B6B"/>
<path d="M123.607 210.251H122.175V140.686H128.463V142.119H123.607V210.251Z" fill="#6B6B6B"/>
<path d="M107.289 210.251H105.856V142.119H52.8416V140.686H107.289V210.251Z" fill="#6B6B6B"/>
<path d="M154.732 200.382H122.891V201.814H154.732V200.382Z" fill="#6B6B6B"/>
<path d="M143.11 201.098H141.677V210.251H143.11V201.098Z" fill="#6B6B6B"/>
<path d="M137.538 195.526H136.105V142.676H159.293V189.286H157.86V144.109H137.538V195.526Z" fill="#6B6B6B"/>
<path d="M180.785 203.884H179.352V144.109H158.576V142.676H180.785V203.884Z" fill="#6B6B6B"/>
<path d="M194.851 210.251H193.418V148.884H188.905V144.109H180.069V142.676H190.337V147.452H194.851V210.251Z" fill="#6B6B6B"/>
<path d="M207.587 197.516H206.154V144.109H189.621V142.676H207.587V197.516Z" fill="#6B6B6B"/>
<path d="M226.954 210.251H225.521V206.391H217.028V201.814H211.989V198.233H204.936V201.814H202.278V210.251H200.845V200.382H203.496V196.8H213.422V200.382H218.469V204.958H226.954V210.251Z" fill="#6B6B6B"/>
<path d="M225.896 195.526H224.463V144.109H206.871V142.676H225.896V195.526Z" fill="#6B6B6B"/>
<path d="M233.322 148.168H231.89V144.109H225.179V142.676H233.322V148.168Z" fill="#6B6B6B"/>
<path d="M237.302 203.884H235.87V149.147H228.896V147.714H237.302V203.884Z" fill="#6B6B6B"/>
<path d="M253.223 148.431H251.79V146.098H232.741V144.666H253.223V148.431Z" fill="#6B6B6B"/>
<path d="M267.026 184.248H265.585V146.098H252.506V144.666H267.026V184.248Z" fill="#6B6B6B"/>
<path d="M256.677 192.47H255.237V149.147H249.06V147.714H256.677V192.47Z" fill="#6B6B6B"/>
<path d="M189.621 147.452H185.378V148.884H189.621V147.452Z" fill="#6B6B6B"/>
<path d="M172.562 195.526H171.13V148.884H164.411V147.452H172.562V195.526Z" fill="#6B6B6B"/>
<path d="M151.866 195.526H150.433V148.884H145.84V147.452H151.866V195.526Z" fill="#6B6B6B"/>
<path d="M220.323 189.557H218.891V149.147H213.9V147.714H220.323V189.557Z" fill="#6B6B6B"/>
<path d="M260.124 145.382H258.691V130.204H292.761V134.104H291.328V131.636H260.124V145.382Z" fill="#6B6B6B"/>
<path d="M269.676 130.92H268.244V141.402H269.676V130.92Z" fill="#6B6B6B"/>
<path d="M265.434 130.92H264.001V136.157H265.434V130.92Z" fill="#6B6B6B"/>
<path d="M320.359 149.147H305.123V136.873H302.998V134.255H279.571V132.822H304.438V135.441H306.556V147.714H318.918V142.676H329.72V144.109H320.359V149.147Z" fill="#6B6B6B"/>
<path d="M293.422 161.699H291.989V149.306H298.492V138.863H273.203V137.431H299.925V150.739H293.422V161.699Z" fill="#6B6B6B"/>
<path d="M313.72 184.248H312.287V162.415H288.144V160.027H275.249V162.415H266.309V160.983H273.816V158.595H289.577V160.983H313.72V184.248Z" fill="#6B6B6B"/>
<path d="M307.965 164.095H266.309V165.527H307.965V164.095Z" fill="#6B6B6B"/>
<path d="M313.72 210.251H312.287V191.865H267.026V196.243H251.631V210.251H250.198V194.81H265.585V190.432H313.72V210.251Z" fill="#6B6B6B"/>
<path d="M295.945 210.251H294.512V196.243H266.309V194.81H295.945V210.251Z" fill="#6B6B6B"/>
<path d="M313.004 194.81H299.209V196.243H313.004V194.81Z" fill="#6B6B6B"/>
<path d="M343.706 210.251H342.273V195.311H335.149V186.023H324.339V188.148H308.681V191.149H307.248V186.715H322.898V184.59H336.582V193.879H343.706V210.251Z" fill="#6B6B6B"/>
<path d="M273.919 191.149H272.486V168.273H295.945V178.414H294.512V169.706H273.919V191.149Z" fill="#6B6B6B"/>
<path d="M292.761 191.149H291.328V177.96H308.681V183.189H307.248V179.393H292.761V191.149Z" fill="#6B6B6B"/>
<path d="M287.849 168.99H286.417V185.306H287.849V168.99Z" fill="#6B6B6B"/>
<path d="M312.399 148.431H310.966V156.653H312.399V148.431Z" fill="#6B6B6B"/>
<path d="M330.707 161.699H329.266V107.655H332.641V109.087H330.707V161.699Z" fill="#6B6B6B"/>
<path d="M361.378 160.505H359.945V107.909L357.819 105.784H356.339L354.038 103.484H336.422L334.862 105.036H334.066L333.358 105.744V137.431H334.353V146.719H336.582V153.907H335.149V148.152H332.92V138.863H331.925V105.155L333.469 103.603H334.265L335.825 102.043H354.627L356.936 104.351H358.408L361.378 107.32V160.505Z" fill="#6B6B6B"/>
<path d="M342.424 109.302L340.044 106.867H339.129L335.61 103.261L336.637 102.266L339.726 105.434H340.649L343.451 108.299L342.424 109.302Z" fill="#6B6B6B"/>
<path d="M347.24 108.904L346.301 107.83L349.326 105.187H350.321L353.728 102.226L354.667 103.301L350.862 106.62H349.859L347.24 108.904Z" fill="#6B6B6B"/>
<path d="M340.721 151.845H339.288V115.948H338.389V107.655H347.487V115.948H346.19V148.661H344.757V114.516H346.054V109.087H339.821V114.516H340.721V151.845Z" fill="#6B6B6B"/>
<path d="M354.054 156.525H352.621V146.186H354.412V138.298H355.407V114.818H356.912V109.358H358.345V116.251H356.84V139.731H355.845V147.619H354.054V156.525Z" fill="#6B6B6B"/>
<path d="M322.611 171.171H313.004V169.738H321.179V166.355H326.87V167.788H322.611V171.171Z" fill="#6B6B6B"/>
<path d="M327.587 185.306H326.154V161.381H336.621V162.813H327.587V185.306Z" fill="#6B6B6B"/>
<path d="M356.195 178.676H354.763V157.369H352.096V154.543L350.48 152.928L348.88 154.527V158.237H341.023L339.67 156.875L338.309 158.237H329.991V156.804H337.72L339.67 154.854L341.62 156.804H347.447V153.938L350.48 150.898L353.529 153.946V155.936H356.195V178.676Z" fill="#6B6B6B"/>
<path d="M349.875 177.148H348.442V162.813H343.985V161.381H349.875V177.148Z" fill="#6B6B6B"/>
<path d="M395.248 210.251H393.815V202.411H373.716V197.437H351.029V187.487H346.054V182.911H335.873V181.478H347.487V186.055H352.462V196.004H375.149V200.979H395.248V210.251Z" fill="#6B6B6B"/>
<path d="M359.825 196.72H358.392V174.713H464.501V189.756H463.069V176.145H359.825V196.72Z" fill="#6B6B6B"/>
<path d="M384.9 175.429H383.467V171.529H390.034V166.355H415.745V171.33H432.342V172.762H414.313V167.788H391.467V172.961H384.9V175.429Z" fill="#6B6B6B"/>
<path d="M387.288 168.759H385.855V161.221H374.114V157.242H368.183V161.221H355.479V159.789H366.751V155.809H375.547V159.789H387.288V168.759Z" fill="#6B6B6B"/>
<path d="M370.77 156.525H369.338V149.147H366.79V150.643H360.661V149.203H365.358V147.714H370.77V156.525Z" fill="#6B6B6B"/>
<path d="M464.501 171.775H463.069V159.231H460.282V157.242H453.556V160.72H434.531L433.059 162.192V165.527H425.497V171.775H424.064V164.095H431.626V161.595L433.934 159.287H452.123V155.809H461.715V157.799H464.501V171.775Z" fill="#6B6B6B"/>
<path d="M451.168 160.004H449.735V171.25H451.168V160.004Z" fill="#6B6B6B"/>
<path d="M439.427 160.004H437.994V175.429H439.427V160.004Z" fill="#6B6B6B"/>
<path d="M524.601 191.945H523.168V177.936H463.785V176.503H524.601V191.945Z" fill="#6B6B6B"/>
<path d="M430.273 210.251H428.84V200.62H418.317L415.132 197.437H393.815V191.069H382.91V201.695H381.477V189.636H395.248V196.004H415.722L418.906 199.188H430.273V210.251Z" fill="#6B6B6B"/>
<path d="M480.024 210.251H478.591V193.656H441.616V195.845H422.591V194.412H440.183V192.223H480.024V210.251Z" fill="#6B6B6B"/>
<path d="M487.785 177.22H486.352V172.524H504.382V173.956H487.785V177.22Z" fill="#6B6B6B"/>
<path d="M622.312 191.149H620.879V166.339H618.292V163.41H501.118V166.339H499.526V173.24H498.093V164.907H499.685V161.977H619.725V164.907H622.312V191.149Z" fill="#6B6B6B"/>
<path d="M510.073 196.322H508.641V193.656H482.889V192.223H510.073V196.322Z" fill="#6B6B6B"/>
<path d="M537.138 210.251H535.705V204.202H531.924V197.437H504.501V210.251H503.068V196.004H533.357V202.769H537.138V210.251Z" fill="#6B6B6B"/>
<path d="M596.64 210.251H595.207V201.018H581.277V189.278H556.839V192.661H550.033V189.278H537.138V192.661H517.317V191.228H535.705V187.846H551.466V191.228H555.406V187.846H582.71V199.586H596.64V210.251Z" fill="#6B6B6B"/>
<path d="M638.877 210.251H637.444V203.534L634.037 200.119H625.655V194.945H613.516V189.278H581.993V187.846H614.948V193.513H627.088V198.686H634.626L638.877 202.937V210.251Z" fill="#6B6B6B"/>
<path d="M661.117 210.251H659.685V199.323C657.75 197.317 655.617 195.144 655.012 194.603H635.971L630.662 199.904L629.651 198.893L635.382 193.162H655.227C655.601 193.162 655.728 193.162 660.895 198.535L661.094 198.742L661.117 210.251Z" fill="#6B6B6B"/>
<path d="M615.697 210.251H614.264V202.937L618.515 198.686H626.371V200.119H619.104L615.697 203.534V210.251Z" fill="#6B6B6B"/>
<path d="M600.899 210.251H599.466V202.467L603.788 198.153H610.913L615.482 202.73L614.471 203.74L610.316 199.586H604.377L600.899 203.064V210.251Z" fill="#6B6B6B"/>
<path d="M643.605 210.251H642.172V199.251L644.735 196.688H648.922L651.326 199.092H660.377V200.525H650.729L648.333 198.121H645.332L643.605 199.848V210.251Z" fill="#6B6B6B"/>
<path d="M449.178 154.933H447.745V146.122H457.648C458.175 145.523 458.828 145.047 459.559 144.727C460.291 144.407 461.083 144.251 461.881 144.27C462.679 144.289 463.463 144.483 464.179 144.837C464.894 145.191 465.523 145.698 466.022 146.321H475.51V150.755H474.054V147.754H465.218L465.011 147.38C464.667 146.851 464.195 146.419 463.638 146.124C463.08 145.828 462.457 145.68 461.827 145.693C461.212 145.652 460.597 145.768 460.04 146.032C459.482 146.295 459.002 146.696 458.643 147.197L458.436 147.547H449.178V154.933Z" fill="#6B6B6B"/>
<path d="M477.055 150.166H464.119V151.598H477.055V150.166Z" fill="#6B6B6B"/>
<path d="M467.854 153.103L467.798 154.535L477.279 154.909L477.336 153.478L467.854 153.103Z" fill="#6B6B6B"/>
<path d="M467.683 156.205L467.626 157.637L477.108 158.009L477.164 156.578L467.683 156.205Z" fill="#6B6B6B"/>
<path d="M467.609 159.334L467.552 160.766L477.034 161.14L477.09 159.709L467.609 159.334Z" fill="#6B6B6B"/>
<path d="M467.482 162.458L467.426 163.889L476.907 164.264L476.963 162.832L467.482 162.458Z" fill="#6B6B6B"/>
<path d="M467.364 165.566L467.307 166.997L476.788 167.371L476.845 165.94L467.364 165.566Z" fill="#6B6B6B"/>
<path d="M475.51 174.052H468.362V172.619H474.077V169.34H483.367V166.204H490.77V168.544H493.118V166.204H496.119V167.637H494.551V169.977H489.337V167.637H484.8V170.773H475.51V174.052Z" fill="#6B6B6B"/>
<path d="M383.188 116.052H376.303V106.063H377.943V104.335L379.813 102.465V98.0953L380.482 97.4267V58.5529L378.237 56.5949L377.688 52.5277L378.579 48.1818L383.674 45.7383L384.295 47.0277L379.837 49.1608L379.137 52.5754L379.582 55.8706L381.915 57.9003V98.0157L381.246 98.6843V103.062L379.375 104.932V107.495H377.736V114.619H383.188V116.052Z" fill="#6B6B6B"/>
<path d="M370.731 150.795L369.377 150.309L379.781 121.281V119.705L377.99 117.914V115.335H379.423V117.325L381.214 119.116V121.528L370.731 150.795Z" fill="#6B6B6B"/>
<path d="M384.916 -5.98193L383.053 47.0834H386.77L384.916 -5.98193Z" fill="#6B6B6B"/>
<path d="M393.521 116.052H386.635V114.619H392.088V107.495H390.448V104.932L388.577 103.062V98.6843L387.909 98.0157V57.9003L390.241 55.8706L390.687 52.5754L389.986 49.1608L385.529 47.0277L386.15 45.7383L391.244 48.1818L392.136 52.5277L391.586 56.5949L389.342 58.5529V97.4267L390.01 98.0873V102.465L391.881 104.335V106.063H393.521V116.052Z" fill="#6B6B6B"/>
<path d="M387.288 121.631H385.855V160.497H387.288V121.631Z" fill="#6B6B6B"/>
<path d="M382.91 128.269H381.477V160.505H382.91V128.269Z" fill="#6B6B6B"/>
<path d="M387.436 130.656L386.114 131.209L401.237 167.358L402.559 166.805L387.436 130.656Z" fill="#6B6B6B"/>
<path d="M381.531 132.652L371.506 156.361L372.825 156.919L382.851 133.21L381.531 132.652Z" fill="#6B6B6B"/>
<path d="M391.164 106.063H378.659V107.495H391.164V106.063Z" fill="#6B6B6B"/>
<path d="M388.625 57.5103H381.198V58.9429H388.625V57.5103Z" fill="#6B6B6B"/>
<path d="M113.737 138.139C113.083 138.139 112.445 137.945 111.902 137.582C111.358 137.219 110.935 136.704 110.685 136.1C110.435 135.496 110.369 134.832 110.497 134.191C110.624 133.551 110.939 132.962 111.401 132.5C111.863 132.038 112.452 131.724 113.092 131.596C113.733 131.469 114.397 131.534 115.001 131.784C115.605 132.034 116.121 132.458 116.484 133.001C116.847 133.544 117.04 134.183 117.04 134.836C117.038 135.711 116.689 136.55 116.07 137.169C115.451 137.788 114.612 138.137 113.737 138.139ZM113.737 132.965C113.367 132.965 113.005 133.075 112.698 133.281C112.39 133.486 112.15 133.778 112.009 134.12C111.867 134.462 111.83 134.838 111.902 135.201C111.974 135.564 112.152 135.897 112.414 136.158C112.676 136.42 113.009 136.598 113.372 136.67C113.735 136.743 114.111 136.706 114.453 136.564C114.794 136.422 115.087 136.183 115.292 135.875C115.498 135.567 115.607 135.206 115.607 134.836C115.607 134.34 115.41 133.864 115.06 133.513C114.709 133.162 114.233 132.965 113.737 132.965Z" fill="#6B6B6B"/>
<path d="M120.821 128.269H119.389V194.332H120.821V128.269Z" fill="#6B6B6B"/>
<path d="M58.3341 145.382H56.9012V192.478H58.3341V145.382Z" fill="#6B6B6B"/>
<path d="M63.8584 145.382H62.4256V192.478H63.8584V145.382Z" fill="#6B6B6B"/>
<path d="M69.3748 145.382H67.942V205.675H69.3748V145.382Z" fill="#6B6B6B"/>
<path d="M74.8992 145.382H73.4663V205.675H74.8992V145.382Z" fill="#6B6B6B"/>
<path d="M80.4235 145.382H78.9907V205.675H80.4235V145.382Z" fill="#6B6B6B"/>
<path d="M85.9479 145.382H84.5151V205.675H85.9479V145.382Z" fill="#6B6B6B"/>
<path d="M91.4643 145.382H90.0314V205.675H91.4643V145.382Z" fill="#6B6B6B"/>
<path d="M96.9886 145.382H95.5558V205.675H96.9886V145.382Z" fill="#6B6B6B"/>
<path d="M102.513 145.382H101.08V205.675H102.513V145.382Z" fill="#6B6B6B"/>
<path d="M40.3043 200.103H38.5133V203.486H40.3043V200.103Z" fill="#6B6B6B"/>
<path d="M44.8814 200.103H43.0904V203.486H44.8814V200.103Z" fill="#6B6B6B"/>
<path d="M49.4585 200.103H47.6675V203.486H49.4585V200.103Z" fill="#6B6B6B"/>
<path d="M54.0356 200.103H52.2446V203.486H54.0356V200.103Z" fill="#6B6B6B"/>
<path d="M58.6127 200.103H56.8216V203.486H58.6127V200.103Z" fill="#6B6B6B"/>
<path d="M40.3043 206.869H38.5133V208.564H40.3043V206.869Z" fill="#6B6B6B"/>
<path d="M44.8814 206.869H43.0904V208.564H44.8814V206.869Z" fill="#6B6B6B"/>
<path d="M49.4585 206.869H47.6675V208.564H49.4585V206.869Z" fill="#6B6B6B"/>
<path d="M54.0356 206.869H52.2446V208.564H54.0356V206.869Z" fill="#6B6B6B"/>
<path d="M58.6127 206.869H56.8216V208.564H58.6127V206.869Z" fill="#6B6B6B"/>
<path d="M25.0765 206.869H23.2855V208.564H25.0765V206.869Z" fill="#6B6B6B"/>
<path d="M29.6536 206.869H27.8626V208.564H29.6536V206.869Z" fill="#6B6B6B"/>
<path d="M34.2307 206.869H32.4397V208.564H34.2307V206.869Z" fill="#6B6B6B"/>
<path d="M151.15 151.829H145.84V153.262H151.15V151.829Z" fill="#6B6B6B"/>
<path d="M171.846 151.829H164.419V153.262H171.846V151.829Z" fill="#6B6B6B"/>
<path d="M194.134 151.829H185.378V153.262H194.134V151.829Z" fill="#6B6B6B"/>
<path d="M219.607 151.829H213.9V153.262H219.607V151.829Z" fill="#6B6B6B"/>
<path d="M236.594 151.829H228.896V153.262H236.594V151.829Z" fill="#6B6B6B"/>
<path d="M255.229 152.625H249.06V154.058H255.229V152.625Z" fill="#6B6B6B"/>
<path d="M151.15 155.936H145.84V157.369H151.15V155.936Z" fill="#6B6B6B"/>
<path d="M171.846 155.936H164.419V157.369H171.846V155.936Z" fill="#6B6B6B"/>
<path d="M194.134 155.936H185.378V157.369H194.134V155.936Z" fill="#6B6B6B"/>
<path d="M219.607 155.936H213.9V157.369H219.607V155.936Z" fill="#6B6B6B"/>
<path d="M236.594 155.936H228.896V157.369H236.594V155.936Z" fill="#6B6B6B"/>
<path d="M255.229 156.732H249.06V158.165H255.229V156.732Z" fill="#6B6B6B"/>
<path d="M151.15 160.051H145.84V161.484H151.15V160.051Z" fill="#6B6B6B"/>
<path d="M171.846 160.051H164.419V161.484H171.846V160.051Z" fill="#6B6B6B"/>
<path d="M194.134 160.051H185.378V161.484H194.134V160.051Z" fill="#6B6B6B"/>
<path d="M219.607 160.051H213.9V161.484H219.607V160.051Z" fill="#6B6B6B"/>
<path d="M236.594 160.051H228.896V161.484H236.594V160.051Z" fill="#6B6B6B"/>
<path d="M255.229 160.847H249.06V162.28H255.229V160.847Z" fill="#6B6B6B"/>
<path d="M151.15 164.166H145.84V165.599H151.15V164.166Z" fill="#6B6B6B"/>
<path d="M171.846 164.166H164.419V165.599H171.846V164.166Z" fill="#6B6B6B"/>
<path d="M194.134 164.166H185.378V165.599H194.134V164.166Z" fill="#6B6B6B"/>
<path d="M219.607 164.166H213.9V165.599H219.607V164.166Z" fill="#6B6B6B"/>
<path d="M236.594 164.166H228.896V165.599H236.594V164.166Z" fill="#6B6B6B"/>
<path d="M255.229 164.962H249.06V166.395H255.229V164.962Z" fill="#6B6B6B"/>
<path d="M151.15 168.273H145.84V169.706H151.15V168.273Z" fill="#6B6B6B"/>
<path d="M171.846 168.273H164.419V169.706H171.846V168.273Z" fill="#6B6B6B"/>
<path d="M194.134 168.273H185.378V169.706H194.134V168.273Z" fill="#6B6B6B"/>
<path d="M219.607 168.273H213.9V169.706H219.607V168.273Z" fill="#6B6B6B"/>
<path d="M236.594 168.273H228.896V169.706H236.594V168.273Z" fill="#6B6B6B"/>
<path d="M255.229 169.069H249.06V170.502H255.229V169.069Z" fill="#6B6B6B"/>
<path d="M151.15 172.388H145.84V173.821H151.15V172.388Z" fill="#6B6B6B"/>
<path d="M171.846 172.388H164.419V173.821H171.846V172.388Z" fill="#6B6B6B"/>
<path d="M194.134 172.388H185.378V173.821H194.134V172.388Z" fill="#6B6B6B"/>
<path d="M219.607 172.388H213.9V173.821H219.607V172.388Z" fill="#6B6B6B"/>
<path d="M236.594 172.388H228.896V173.821H236.594V172.388Z" fill="#6B6B6B"/>
<path d="M255.229 173.184H249.06V174.617H255.229V173.184Z" fill="#6B6B6B"/>
<path d="M151.15 176.503H145.84V177.936H151.15V176.503Z" fill="#6B6B6B"/>
<path d="M171.846 176.503H164.419V177.936H171.846V176.503Z" fill="#6B6B6B"/>
<path d="M194.134 176.503H185.378V177.936H194.134V176.503Z" fill="#6B6B6B"/>
<path d="M219.607 176.503H213.9V177.936H219.607V176.503Z" fill="#6B6B6B"/>
<path d="M236.594 176.503H228.896V177.936H236.594V176.503Z" fill="#6B6B6B"/>
<path d="M255.229 177.299H249.06V178.732H255.229V177.299Z" fill="#6B6B6B"/>
<path d="M151.15 180.61H145.84V182.043H151.15V180.61Z" fill="#6B6B6B"/>
<path d="M171.846 180.61H164.419V182.043H171.846V180.61Z" fill="#6B6B6B"/>
<path d="M194.134 180.61H185.378V182.043H194.134V180.61Z" fill="#6B6B6B"/>
<path d="M219.607 180.61H213.9V182.043H219.607V180.61Z" fill="#6B6B6B"/>
<path d="M236.594 180.61H228.896V182.043H236.594V180.61Z" fill="#6B6B6B"/>
<path d="M255.229 181.406H249.06V182.839H255.229V181.406Z" fill="#6B6B6B"/>
<path d="M151.15 184.725H145.84V186.158H151.15V184.725Z" fill="#6B6B6B"/>
<path d="M171.846 184.725H164.419V186.158H171.846V184.725Z" fill="#6B6B6B"/>
<path d="M194.134 184.725H185.378V186.158H194.134V184.725Z" fill="#6B6B6B"/>
<path d="M219.607 184.725H213.9V186.158H219.607V184.725Z" fill="#6B6B6B"/>
<path d="M236.594 184.725H228.896V186.158H236.594V184.725Z" fill="#6B6B6B"/>
<path d="M255.229 185.521H249.06V186.954H255.229V185.521Z" fill="#6B6B6B"/>
<path d="M151.15 188.84H145.84V190.273H151.15V188.84Z" fill="#6B6B6B"/>
<path d="M171.846 188.84H164.419V190.273H171.846V188.84Z" fill="#6B6B6B"/>
<path d="M194.134 188.84H185.378V190.273H194.134V188.84Z" fill="#6B6B6B"/>
<path d="M236.594 188.84H228.896V190.273H236.594V188.84Z" fill="#6B6B6B"/>
<path d="M255.229 189.636H249.06V191.069H255.229V189.636Z" fill="#6B6B6B"/>
<path d="M171.846 192.948H164.419V194.38H171.846V192.948Z" fill="#6B6B6B"/>
<path d="M194.134 192.948H185.378V194.38H194.134V192.948Z" fill="#6B6B6B"/>
<path d="M236.594 192.948H228.896V194.38H236.594V192.948Z" fill="#6B6B6B"/>
<path d="M194.134 197.063H185.378V198.495H194.134V197.063Z" fill="#6B6B6B"/>
<path d="M236.594 197.063H228.896V198.495H236.594V197.063Z" fill="#6B6B6B"/>
<path d="M194.134 201.178H185.378V202.61H194.134V201.178Z" fill="#6B6B6B"/>
<path d="M236.594 201.178H228.896V202.61H236.594V201.178Z" fill="#6B6B6B"/>
<path d="M149.621 139.612H145.84V143.392H149.621V139.612Z" fill="#6B6B6B"/>
<path d="M171.217 139.612H167.436V143.392H171.217V139.612Z" fill="#6B6B6B"/>
<path d="M176.821 139.612H173.04V143.392H176.821V139.612Z" fill="#6B6B6B"/>
<path d="M254.799 141.498H251.018V145.279H254.799V141.498Z" fill="#6B6B6B"/>
<path d="M197.916 139.612H194.134V143.392H197.916V139.612Z" fill="#6B6B6B"/>
<path d="M220.005 139.612H216.224V143.392H220.005V139.612Z" fill="#6B6B6B"/>
<path d="M162.015 123.693H160.582V143.392H162.015V123.693Z" fill="#6B6B6B"/>
<path d="M182.513 130.92H181.08V143.392H182.513V130.92Z" fill="#6B6B6B"/>
<path d="M170.174 128.102H168.742V140.575H170.174V128.102Z" fill="#6B6B6B"/>
<path d="M148.419 130.323H146.986V140.208H148.419V130.323Z" fill="#6B6B6B"/>
<path d="M218.827 128.269H217.394V140.742H218.827V128.269Z" fill="#6B6B6B"/>
<path d="M237.302 132.711H235.87V145.183H237.302V132.711Z" fill="#6B6B6B"/>
<path d="M243.344 132.711H241.911V145.183H243.344V132.711Z" fill="#6B6B6B"/>
<path d="M204.085 150.818H202.891V154.933H204.085V150.818Z" fill="#6B6B6B"/>
<path d="M204.085 157.783H202.891V161.898H204.085V157.783Z" fill="#6B6B6B"/>
<path d="M204.085 164.747H202.891V168.862H204.085V164.747Z" fill="#6B6B6B"/>
<path d="M204.085 171.712H202.891V175.827H204.085V171.712Z" fill="#6B6B6B"/>
<path d="M204.085 178.676H202.891V182.791H204.085V178.676Z" fill="#6B6B6B"/>
<path d="M204.085 185.641H202.891V189.756H204.085V185.641Z" fill="#6B6B6B"/>
<path d="M155.464 149.29H154.27V153.405H155.464V149.29Z" fill="#6B6B6B"/>
<path d="M155.464 156.255H154.27V160.37H155.464V156.255Z" fill="#6B6B6B"/>
<path d="M155.464 163.219H154.27V167.334H155.464V163.219Z" fill="#6B6B6B"/>
<path d="M155.464 170.184H154.27V174.299H155.464V170.184Z" fill="#6B6B6B"/>
<path d="M155.464 177.148H154.27V181.263H155.464V177.148Z" fill="#6B6B6B"/>
<path d="M155.464 184.113H154.27V188.228H155.464V184.113Z" fill="#6B6B6B"/>
<path d="M263.587 149.792H262.393V153.907H263.587V149.792Z" fill="#6B6B6B"/>
<path d="M263.587 156.756H262.393V160.871H263.587V156.756Z" fill="#6B6B6B"/>
<path d="M263.587 163.721H262.393V167.836H263.587V163.721Z" fill="#6B6B6B"/>
<path d="M263.587 170.685H262.393V174.8H263.587V170.685Z" fill="#6B6B6B"/>
<path d="M263.587 177.65H262.393V181.765H263.587V177.65Z" fill="#6B6B6B"/>
<path d="M241.593 150.325H240.399V154.44H241.593V150.325Z" fill="#6B6B6B"/>
<path d="M241.593 157.289H240.399V161.404H241.593V157.289Z" fill="#6B6B6B"/>
<path d="M241.593 164.254H240.399V168.369H241.593V164.254Z" fill="#6B6B6B"/>
<path d="M241.593 171.218H240.399V175.333H241.593V171.218Z" fill="#6B6B6B"/>
<path d="M241.593 178.183H240.399V182.298H241.593V178.183Z" fill="#6B6B6B"/>
<path d="M241.593 185.147H240.399V189.262H241.593V185.147Z" fill="#6B6B6B"/>
<path d="M241.593 192.271H240.399V196.386H241.593V192.271Z" fill="#6B6B6B"/>
<path d="M241.593 199.403H240.399V203.518H241.593V199.403Z" fill="#6B6B6B"/>
<path d="M149.542 205.675H148.109V210.251H149.542V205.675Z" fill="#6B6B6B"/>
<path d="M156.379 205.675H154.947V210.251H156.379V205.675Z" fill="#6B6B6B"/>
<path d="M163.209 205.675H161.776V210.251H163.209V205.675Z" fill="#6B6B6B"/>
<path d="M170.039 205.675H168.606V210.251H170.039V205.675Z" fill="#6B6B6B"/>
<path d="M208.662 201.098H206.871V202.889H208.662V201.098Z" fill="#6B6B6B"/>
<path d="M208.662 205.675H206.871V207.465H208.662V205.675Z" fill="#6B6B6B"/>
<path d="M212.873 205.675H211.082V207.465H212.873V205.675Z" fill="#6B6B6B"/>
<path d="M263.961 198.575H253.836V199.944H263.961V198.575Z" fill="#6B6B6B"/>
<path d="M278.003 198.575H267.877V199.944H278.003V198.575Z" fill="#6B6B6B"/>
<path d="M292.044 198.575H281.919V199.944H292.044V198.575Z" fill="#6B6B6B"/>
<path d="M263.961 201.345H253.836V202.714H263.961V201.345Z" fill="#6B6B6B"/>
<path d="M278.003 201.345H267.877V202.714H278.003V201.345Z" fill="#6B6B6B"/>
<path d="M292.044 201.345H281.919V202.714H292.044V201.345Z" fill="#6B6B6B"/>
<path d="M263.961 204.123H253.836V205.492H263.961V204.123Z" fill="#6B6B6B"/>
<path d="M278.003 204.123H267.877V205.492H278.003V204.123Z" fill="#6B6B6B"/>
<path d="M292.044 204.123H281.919V205.492H292.044V204.123Z" fill="#6B6B6B"/>
<path d="M263.961 206.892H253.836V208.261H263.961V206.892Z" fill="#6B6B6B"/>
<path d="M278.003 206.892H267.877V208.261H278.003V206.892Z" fill="#6B6B6B"/>
<path d="M292.044 206.892H281.919V208.261H292.044V206.892Z" fill="#6B6B6B"/>
<path d="M301.605 201.345H299.185V202.714H301.605V201.345Z" fill="#6B6B6B"/>
<path d="M301.605 204.123H299.185V205.492H301.605V204.123Z" fill="#6B6B6B"/>
<path d="M301.605 206.892H299.185V208.261H301.605V206.892Z" fill="#6B6B6B"/>
<path d="M305.752 198.575H303.332V199.944H305.752V198.575Z" fill="#6B6B6B"/>
<path d="M305.752 201.345H303.332V202.714H305.752V201.345Z" fill="#6B6B6B"/>
<path d="M305.752 204.123H303.332V205.492H305.752V204.123Z" fill="#6B6B6B"/>
<path d="M309.899 198.575H307.479V199.944H309.899V198.575Z" fill="#6B6B6B"/>
<path d="M309.899 204.123H307.479V205.492H309.899V204.123Z" fill="#6B6B6B"/>
<path d="M309.899 206.892H307.479V208.261H309.899V206.892Z" fill="#6B6B6B"/>
<path d="M307.487 167.35H299.209V168.783H307.487V167.35Z" fill="#6B6B6B"/>
<path d="M307.487 170.534H299.209V171.967H307.487V170.534Z" fill="#6B6B6B"/>
<path d="M307.487 173.718H299.209V175.15H307.487V173.718Z" fill="#6B6B6B"/>
<path d="M281.481 141.402H280.048V143.392H281.481V141.402Z" fill="#6B6B6B"/>
<path d="M324.068 147.436H322.635V149.425H324.068V147.436Z" fill="#6B6B6B"/>
<path d="M327.388 147.436H325.955V149.425H327.388V147.436Z" fill="#6B6B6B"/>
<path d="M278.719 144.785H277.286V146.775H278.719V144.785Z" fill="#6B6B6B"/>
<path d="M275.949 148.168H274.516V150.158H275.949V148.168Z" fill="#6B6B6B"/>
<path d="M303.722 138.943H302.249V140.798H303.722V138.943Z" fill="#6B6B6B"/>
<path d="M303.722 142.461H302.249V144.316H303.722V142.461Z" fill="#6B6B6B"/>
<path d="M303.722 145.979H302.249V147.834H303.722V145.979Z" fill="#6B6B6B"/>
<path d="M303.722 149.489H302.249V151.344H303.722V149.489Z" fill="#6B6B6B"/>
<path d="M303.722 153.007H302.249V154.862H303.722V153.007Z" fill="#6B6B6B"/>
<path d="M303.722 156.525H302.249V158.38H303.722V156.525Z" fill="#6B6B6B"/>
<path d="M284.952 171.815H283.479V174.323H284.952V171.815Z" fill="#6B6B6B"/>
<path d="M284.952 176.424H283.479V178.931H284.952V176.424Z" fill="#6B6B6B"/>
<path d="M284.952 181.04H283.479V183.547H284.952V181.04Z" fill="#6B6B6B"/>
<path d="M284.952 185.657H283.479V188.164H284.952V185.657Z" fill="#6B6B6B"/>
<path d="M277.453 171.815H275.981V174.323H277.453V171.815Z" fill="#6B6B6B"/>
<path d="M277.453 176.424H275.981V178.931H277.453V176.424Z" fill="#6B6B6B"/>
<path d="M277.453 181.04H275.981V183.547H277.453V181.04Z" fill="#6B6B6B"/>
<path d="M277.453 185.657H275.981V188.164H277.453V185.657Z" fill="#6B6B6B"/>
<path d="M317.238 157.281H315.806V167.064H317.238V157.281Z" fill="#6B6B6B"/>
<path d="M320.653 157.281H319.22V164.15H320.653V157.281Z" fill="#6B6B6B"/>
<path d="M324.068 157.281H322.635V164.15H324.068V157.281Z" fill="#6B6B6B"/>
<path d="M350.751 112.343H349.684V115.335H350.751V112.343Z" fill="#6B6B6B"/>
<path d="M353.075 112.343H352.008V115.335H353.075V112.343Z" fill="#6B6B6B"/>
<path d="M336.661 112.343H335.595V115.335H336.661V112.343Z" fill="#6B6B6B"/>
<path d="M334.528 165.05H331.049V166.427H334.528V165.05Z" fill="#6B6B6B"/>
<path d="M321.179 195.869H318.194V197.389H321.179V195.869Z" fill="#6B6B6B"/>
<path d="M321.179 199.498H318.194V201.018H321.179V199.498Z" fill="#6B6B6B"/>
<path d="M321.179 206.741H318.194V208.261H321.179V206.741Z" fill="#6B6B6B"/>
<path d="M327.117 192.247H324.132V193.767H327.117V192.247Z" fill="#6B6B6B"/>
<path d="M327.117 195.869H324.132V197.389H327.117V195.869Z" fill="#6B6B6B"/>
<path d="M327.117 199.498H324.132V201.018H327.117V199.498Z" fill="#6B6B6B"/>
<path d="M327.117 203.12H324.132V204.64H327.117V203.12Z" fill="#6B6B6B"/>
<path d="M327.117 206.741H324.132V208.261H327.117V206.741Z" fill="#6B6B6B"/>
<path d="M333.055 192.247H330.07V193.767H333.055V192.247Z" fill="#6B6B6B"/>
<path d="M333.055 199.498H330.07V201.018H333.055V199.498Z" fill="#6B6B6B"/>
<path d="M333.055 203.12H330.07V204.64H333.055V203.12Z" fill="#6B6B6B"/>
<path d="M338.994 199.498H336.008V201.018H338.994V199.498Z" fill="#6B6B6B"/>
<path d="M338.994 203.12H336.008V204.64H338.994V203.12Z" fill="#6B6B6B"/>
<path d="M338.994 206.741H336.008V208.261H338.994V206.741Z" fill="#6B6B6B"/>
<path d="M334.528 169.101H331.049V170.478H334.528V169.101Z" fill="#6B6B6B"/>
<path d="M334.528 173.152H331.049V174.529H334.528V173.152Z" fill="#6B6B6B"/>
<path d="M334.528 177.212H331.049V178.589H334.528V177.212Z" fill="#6B6B6B"/>
<path d="M338.715 165.05H336.972V166.427H338.715V165.05Z" fill="#6B6B6B"/>
<path d="M338.715 169.101H336.972V170.478H338.715V169.101Z" fill="#6B6B6B"/>
<path d="M338.715 173.152H336.972V174.529H338.715V173.152Z" fill="#6B6B6B"/>
<path d="M338.715 177.212H336.972V178.589H338.715V177.212Z" fill="#6B6B6B"/>
<path d="M342.265 165.05H340.522V166.427H342.265V165.05Z" fill="#6B6B6B"/>
<path d="M342.265 169.101H340.522V170.478H342.265V169.101Z" fill="#6B6B6B"/>
<path d="M342.265 173.152H340.522V174.529H342.265V173.152Z" fill="#6B6B6B"/>
<path d="M342.265 177.212H340.522V178.589H342.265V177.212Z" fill="#6B6B6B"/>
<path d="M345.823 165.05H344.08V166.427H345.823V165.05Z" fill="#6B6B6B"/>
<path d="M345.823 169.101H344.08V170.478H345.823V169.101Z" fill="#6B6B6B"/>
<path d="M345.823 173.152H344.08V174.529H345.823V173.152Z" fill="#6B6B6B"/>
<path d="M326.671 173.718H316.522V175.15H326.671V173.718Z" fill="#6B6B6B"/>
<path d="M326.671 176.503H316.522V177.936H326.671V176.503Z" fill="#6B6B6B"/>
<path d="M326.671 179.289H316.522V180.722H326.671V179.289Z" fill="#6B6B6B"/>
<path d="M295.945 182.123H294.512V191.141H295.945V182.123Z" fill="#6B6B6B"/>
<path d="M299.901 182.123H298.468V191.141H299.901V182.123Z" fill="#6B6B6B"/>
<path d="M303.865 182.123H302.432V191.141H303.865V182.123Z" fill="#6B6B6B"/>
<path d="M369.704 199.984H346.572V201.416H369.704V199.984Z" fill="#6B6B6B"/>
<path d="M369.704 203.406H346.572V204.839H369.704V203.406Z" fill="#6B6B6B"/>
<path d="M390.352 207.203H346.572V208.636H390.352V207.203Z" fill="#6B6B6B"/>
<path d="M366.44 175.429H365.007V192.255H366.44V175.429Z" fill="#6B6B6B"/>
<path d="M373.923 175.429H372.49V192.255H373.923V175.429Z" fill="#6B6B6B"/>
<path d="M381.397 175.429H379.964V187.368H381.397V175.429Z" fill="#6B6B6B"/>
<path d="M388.88 175.429H387.447V187.368H388.88V175.429Z" fill="#6B6B6B"/>
<path d="M396.354 175.429H394.922V187.368H396.354V175.429Z" fill="#6B6B6B"/>
<path d="M403.837 175.429H402.404V192.255H403.837V175.429Z" fill="#6B6B6B"/>
<path d="M411.32 175.429H409.887V192.255H411.32V175.429Z" fill="#6B6B6B"/>
<path d="M418.794 175.429H417.361V192.255H418.794V175.429Z" fill="#6B6B6B"/>
<path d="M426.277 175.429H424.844V192.255H426.277V175.429Z" fill="#6B6B6B"/>
<path d="M433.751 175.429H432.318V192.255H433.751V175.429Z" fill="#6B6B6B"/>
<path d="M441.234 175.429H439.801V189.557H441.234V175.429Z" fill="#6B6B6B"/>
<path d="M448.716 175.429H447.284V189.557H448.716V175.429Z" fill="#6B6B6B"/>
<path d="M456.191 175.429H454.758V189.557H456.191V175.429Z" fill="#6B6B6B"/>
<path d="M460.203 180.682H359.109V182.115H460.203V180.682Z" fill="#6B6B6B"/>
<path d="M460.203 186.15H359.109V187.583H460.203V186.15Z" fill="#6B6B6B"/>
<path d="M385.632 58.2266H384.199V97.6257H385.632V58.2266Z" fill="#6B6B6B"/>
<path d="M445.445 196.219H444.283V198.702H445.445V196.219Z" fill="#6B6B6B"/>
<path d="M447.57 196.219H446.408V198.702H447.57V196.219Z" fill="#6B6B6B"/>
<path d="M452.107 196.219H450.945V198.702H452.107V196.219Z" fill="#6B6B6B"/>
<path d="M454.233 196.219H453.071V198.702H454.233V196.219Z" fill="#6B6B6B"/>
<path d="M458.778 196.219H457.616V198.702H458.778V196.219Z" fill="#6B6B6B"/>
<path d="M460.903 196.219H459.741V198.702H460.903V196.219Z" fill="#6B6B6B"/>
<path d="M465.441 196.219H464.279V198.702H465.441V196.219Z" fill="#6B6B6B"/>
<path d="M467.566 196.219H466.404V198.702H467.566V196.219Z" fill="#6B6B6B"/>
<path d="M472.111 196.219H470.949V198.702H472.111V196.219Z" fill="#6B6B6B"/>
<path d="M474.237 196.219H473.074V198.702H474.237V196.219Z" fill="#6B6B6B"/>
<path d="M445.445 200.652H444.283V203.136H445.445V200.652Z" fill="#6B6B6B"/>
<path d="M447.57 200.652H446.408V203.136H447.57V200.652Z" fill="#6B6B6B"/>
<path d="M452.107 200.652H450.945V203.136H452.107V200.652Z" fill="#6B6B6B"/>
<path d="M454.233 200.652H453.071V203.136H454.233V200.652Z" fill="#6B6B6B"/>
<path d="M458.778 200.652H457.616V203.136H458.778V200.652Z" fill="#6B6B6B"/>
<path d="M460.903 200.652H459.741V203.136H460.903V200.652Z" fill="#6B6B6B"/>
<path d="M465.441 200.652H464.279V203.136H465.441V200.652Z" fill="#6B6B6B"/>
<path d="M467.566 200.652H466.404V203.136H467.566V200.652Z" fill="#6B6B6B"/>
<path d="M472.111 200.652H470.949V203.136H472.111V200.652Z" fill="#6B6B6B"/>
<path d="M474.237 200.652H473.074V203.136H474.237V200.652Z" fill="#6B6B6B"/>
<path d="M445.445 205.078H444.283V207.561H445.445V205.078Z" fill="#6B6B6B"/>
<path d="M447.57 205.078H446.408V207.561H447.57V205.078Z" fill="#6B6B6B"/>
<path d="M438.233 200.652H437.071V203.136H438.233V200.652Z" fill="#6B6B6B"/>
<path d="M440.358 200.652H439.196V203.136H440.358V200.652Z" fill="#6B6B6B"/>
<path d="M438.233 205.078H437.071V207.561H438.233V205.078Z" fill="#6B6B6B"/>
<path d="M440.358 205.078H439.196V207.561H440.358V205.078Z" fill="#6B6B6B"/>
<path d="M452.107 205.078H450.945V207.561H452.107V205.078Z" fill="#6B6B6B"/>
<path d="M454.233 205.078H453.071V207.561H454.233V205.078Z" fill="#6B6B6B"/>
<path d="M458.778 205.078H457.616V207.561H458.778V205.078Z" fill="#6B6B6B"/>
<path d="M460.903 205.078H459.741V207.561H460.903V205.078Z" fill="#6B6B6B"/>
<path d="M465.441 205.078H464.279V207.561H465.441V205.078Z" fill="#6B6B6B"/>
<path d="M467.566 205.078H466.404V207.561H467.566V205.078Z" fill="#6B6B6B"/>
<path d="M472.111 205.078H470.949V207.561H472.111V205.078Z" fill="#6B6B6B"/>
<path d="M474.237 205.078H473.074V207.561H474.237V205.078Z" fill="#6B6B6B"/>
<path d="M484.649 196.219H483.486V198.702H484.649V196.219Z" fill="#6B6B6B"/>
<path d="M486.774 196.219H485.612V198.702H486.774V196.219Z" fill="#6B6B6B"/>
<path d="M491.319 196.219H490.157V198.702H491.319V196.219Z" fill="#6B6B6B"/>
<path d="M493.445 196.219H492.282V198.702H493.445V196.219Z" fill="#6B6B6B"/>
<path d="M497.982 196.219H496.82V198.702H497.982V196.219Z" fill="#6B6B6B"/>
<path d="M500.107 196.219H498.945V198.702H500.107V196.219Z" fill="#6B6B6B"/>
<path d="M484.649 200.652H483.486V203.136H484.649V200.652Z" fill="#6B6B6B"/>
<path d="M486.774 200.652H485.612V203.136H486.774V200.652Z" fill="#6B6B6B"/>
<path d="M491.319 200.652H490.157V203.136H491.319V200.652Z" fill="#6B6B6B"/>
<path d="M493.445 200.652H492.282V203.136H493.445V200.652Z" fill="#6B6B6B"/>
<path d="M497.982 200.652H496.82V203.136H497.982V200.652Z" fill="#6B6B6B"/>
<path d="M500.107 200.652H498.945V203.136H500.107V200.652Z" fill="#6B6B6B"/>
<path d="M484.649 205.078H483.486V207.561H484.649V205.078Z" fill="#6B6B6B"/>
<path d="M486.774 205.078H485.612V207.561H486.774V205.078Z" fill="#6B6B6B"/>
<path d="M491.319 205.078H490.157V207.561H491.319V205.078Z" fill="#6B6B6B"/>
<path d="M493.445 205.078H492.282V207.561H493.445V205.078Z" fill="#6B6B6B"/>
<path d="M528.947 204.56V203.04H524.346V204.56H528.947Z" fill="#6B6B6B"/>
<path d="M520.756 200.971V199.45H516.155V200.971H520.756Z" fill="#6B6B6B"/>
<path d="M520.748 204.56V203.04H516.147V204.56H520.748Z" fill="#6B6B6B"/>
<path d="M512.557 200.971V199.45H507.956V200.971H512.557Z" fill="#6B6B6B"/>
<path d="M528.955 208.261V206.741H524.354V208.261H528.955Z" fill="#6B6B6B"/>
<path d="M520.756 208.261V206.741H516.155V208.261H520.756Z" fill="#6B6B6B"/>
<path d="M512.557 208.261V206.741H507.956V208.261H512.557Z" fill="#6B6B6B"/>
<path d="M497.982 205.078H496.82V207.561H497.982V205.078Z" fill="#6B6B6B"/>
<path d="M500.107 205.078H498.945V207.561H500.107V205.078Z" fill="#6B6B6B"/>
<path d="M386.555 193.767H385.123V197.389H386.555V193.767Z" fill="#6B6B6B"/>
<path d="M400.223 204.855H398.79V208.476H400.223V204.855Z" fill="#6B6B6B"/>
<path d="M404.601 204.855H403.168V208.476H404.601V204.855Z" fill="#6B6B6B"/>
<path d="M408.979 204.855H407.546V208.476H408.979V204.855Z" fill="#6B6B6B"/>
<path d="M413.357 204.855H411.924V208.476H413.357V204.855Z" fill="#6B6B6B"/>
<path d="M400.223 199.856H398.79V201.719H400.223V199.856Z" fill="#6B6B6B"/>
<path d="M404.601 199.856H403.168V201.719H404.601V199.856Z" fill="#6B6B6B"/>
<path d="M408.979 199.856H407.546V201.719H408.979V199.856Z" fill="#6B6B6B"/>
<path d="M413.357 199.856H411.924V201.719H413.357V199.856Z" fill="#6B6B6B"/>
<path d="M417.735 204.855H416.303V208.476H417.735V204.855Z" fill="#6B6B6B"/>
<path d="M422.114 204.855H420.681V208.476H422.114V204.855Z" fill="#6B6B6B"/>
<path d="M426.492 204.855H425.059V208.476H426.492V204.855Z" fill="#6B6B6B"/>
<path d="M406.329 171.775H404.888V167.191L388.609 121.528V119.116L390.4 117.325V115.335H391.833V117.914L390.042 119.705V121.281L406.329 166.944V171.775Z" fill="#6B6B6B"/>
<path d="M462.456 148.2H460.895V149.76H462.456V148.2Z" fill="#6B6B6B"/>
<path d="M455.013 163.37H453.453V164.93H455.013V163.37Z" fill="#6B6B6B"/>
<path d="M455.013 166.936H453.453V168.496H455.013V166.936Z" fill="#6B6B6B"/>
<path d="M455.013 170.502H453.453V172.062H455.013V170.502Z" fill="#6B6B6B"/>
<path d="M461.469 163.37H459.908V164.93H461.469V163.37Z" fill="#6B6B6B"/>
<path d="M461.469 166.936H459.908V168.496H461.469V166.936Z" fill="#6B6B6B"/>
<path d="M461.469 170.502H459.908V172.062H461.469V170.502Z" fill="#6B6B6B"/>
<path d="M443.073 163.37H441.512V164.93H443.073V163.37Z" fill="#6B6B6B"/>
<path d="M443.073 166.936H441.512V168.496H443.073V166.936Z" fill="#6B6B6B"/>
<path d="M443.073 170.502H441.512V172.062H443.073V170.502Z" fill="#6B6B6B"/>
<path d="M472.111 181.048H467.566V182.266H472.111V181.048Z" fill="#6B6B6B"/>
<path d="M510.225 167.024H505.679V168.95H510.225V167.024Z" fill="#6B6B6B"/>
<path d="M519.594 167.024H515.048V168.95H519.594V167.024Z" fill="#6B6B6B"/>
<path d="M528.955 167.024H524.41V168.95H528.955V167.024Z" fill="#6B6B6B"/>
<path d="M538.324 167.024H533.779V168.95H538.324V167.024Z" fill="#6B6B6B"/>
<path d="M547.685 167.024H543.14V168.95H547.685V167.024Z" fill="#6B6B6B"/>
<path d="M557.046 167.024H552.501V168.95H557.046V167.024Z" fill="#6B6B6B"/>
<path d="M575.776 167.024H571.231V168.95H575.776V167.024Z" fill="#6B6B6B"/>
<path d="M585.146 167.024H580.6V168.95H585.146V167.024Z" fill="#6B6B6B"/>
<path d="M594.507 167.024H589.962V168.95H594.507V167.024Z" fill="#6B6B6B"/>
<path d="M613.237 167.024H608.692V168.95H613.237V167.024Z" fill="#6B6B6B"/>
<path d="M519.594 171.775H515.048V173.702H519.594V171.775Z" fill="#6B6B6B"/>
<path d="M528.955 171.775H524.41V173.702H528.955V171.775Z" fill="#6B6B6B"/>
<path d="M538.324 171.775H533.779V173.702H538.324V171.775Z" fill="#6B6B6B"/>
<path d="M557.046 171.775H552.501V173.702H557.046V171.775Z" fill="#6B6B6B"/>
<path d="M566.415 171.775H561.87V173.702H566.415V171.775Z" fill="#6B6B6B"/>
<path d="M575.776 171.775H571.231V173.702H575.776V171.775Z" fill="#6B6B6B"/>
<path d="M594.507 171.775H589.962V173.702H594.507V171.775Z" fill="#6B6B6B"/>
<path d="M603.876 171.775H599.331V173.702H603.876V171.775Z" fill="#6B6B6B"/>
<path d="M613.237 171.775H608.692V173.702H613.237V171.775Z" fill="#6B6B6B"/>
<path d="M538.324 176.527H533.779V178.453H538.324V176.527Z" fill="#6B6B6B"/>
<path d="M547.685 176.527H543.14V178.453H547.685V176.527Z" fill="#6B6B6B"/>
<path d="M566.415 176.527H561.87V178.453H566.415V176.527Z" fill="#6B6B6B"/>
<path d="M575.776 176.527H571.231V178.453H575.776V176.527Z" fill="#6B6B6B"/>
<path d="M585.146 176.527H580.6V178.453H585.146V176.527Z" fill="#6B6B6B"/>
<path d="M594.507 176.527H589.962V178.453H594.507V176.527Z" fill="#6B6B6B"/>
<path d="M603.876 176.527H599.331V178.453H603.876V176.527Z" fill="#6B6B6B"/>
<path d="M547.685 181.287H543.14V183.213H547.685V181.287Z" fill="#6B6B6B"/>
<path d="M557.046 181.287H552.501V183.213H557.046V181.287Z" fill="#6B6B6B"/>
<path d="M575.776 181.287H571.231V183.213H575.776V181.287Z" fill="#6B6B6B"/>
<path d="M585.146 181.287H580.6V183.213H585.146V181.287Z" fill="#6B6B6B"/>
<path d="M603.876 181.287H599.331V183.213H603.876V181.287Z" fill="#6B6B6B"/>
<path d="M613.237 181.287H608.692V183.213H613.237V181.287Z" fill="#6B6B6B"/>
<path d="M480.191 181.048H475.646V182.266H480.191V181.048Z" fill="#6B6B6B"/>
<path d="M488.263 181.048H483.717V182.266H488.263V181.048Z" fill="#6B6B6B"/>
<path d="M496.342 181.048H491.797V182.266H496.342V181.048Z" fill="#6B6B6B"/>
<path d="M504.422 181.048H499.876V182.266H504.422V181.048Z" fill="#6B6B6B"/>
<path d="M520.573 181.048H516.028V182.266H520.573V181.048Z" fill="#6B6B6B"/>
<path d="M480.191 184.694H475.646V185.911H480.191V184.694Z" fill="#6B6B6B"/>
<path d="M496.342 184.694H491.797V185.911H496.342V184.694Z" fill="#6B6B6B"/>
<path d="M504.422 184.694H499.876V185.911H504.422V184.694Z" fill="#6B6B6B"/>
<path d="M512.493 184.694H507.948V185.911H512.493V184.694Z" fill="#6B6B6B"/>
<path d="M520.573 184.694H516.028V185.911H520.573V184.694Z" fill="#6B6B6B"/>
<path d="M472.111 188.331H467.566V189.549H472.111V188.331Z" fill="#6B6B6B"/>
<path d="M480.191 188.331H475.646V189.549H480.191V188.331Z" fill="#6B6B6B"/>
<path d="M488.263 188.331H483.717V189.549H488.263V188.331Z" fill="#6B6B6B"/>
<path d="M504.422 188.331H499.876V189.549H504.422V188.331Z" fill="#6B6B6B"/>
<path d="M512.493 188.331H507.948V189.549H512.493V188.331Z" fill="#6B6B6B"/>
<path d="M542.01 194.627H540.577V210.251H542.01V194.627Z" fill="#6B6B6B"/>
<path d="M546.125 194.627H544.692V210.251H546.125V194.627Z" fill="#6B6B6B"/>
<path d="M550.24 194.627H548.807V210.251H550.24V194.627Z" fill="#6B6B6B"/>
<path d="M554.356 194.627H552.923V210.251H554.356V194.627Z" fill="#6B6B6B"/>
<path d="M558.471 194.627H557.038V210.251H558.471V194.627Z" fill="#6B6B6B"/>
<path d="M562.587 194.627H561.154V210.251H562.587V194.627Z" fill="#6B6B6B"/>
<path d="M566.702 194.627H565.269V210.251H566.702V194.627Z" fill="#6B6B6B"/>
<path d="M570.817 194.627H569.385V210.251H570.817V194.627Z" fill="#6B6B6B"/>
<path d="M574.933 194.627H573.5V210.251H574.933V194.627Z" fill="#6B6B6B"/>
<path d="M579.048 194.627H577.615V210.251H579.048V194.627Z" fill="#6B6B6B"/>
<path d="M583.156 205.078H581.723V210.251H583.156V205.078Z" fill="#6B6B6B"/>
<path d="M587.271 205.078H585.838V210.251H587.271V205.078Z" fill="#6B6B6B"/>
<path d="M591.386 205.078H589.954V210.251H591.386V205.078Z" fill="#6B6B6B"/>
<path d="M588.354 191.945H586.555V195.327H588.354V191.945Z" fill="#6B6B6B"/>
<path d="M593.13 191.945H591.331V195.327H593.13V191.945Z" fill="#6B6B6B"/>
<path d="M597.906 191.945H596.107V195.327H597.906V191.945Z" fill="#6B6B6B"/>
<path d="M602.682 191.945H600.883V195.327H602.682V191.945Z" fill="#6B6B6B"/>
<path d="M607.458 191.945H605.659V195.327H607.458V191.945Z" fill="#6B6B6B"/>
<path d="M614.972 203.048H603.868V204.481H614.972V203.048Z" fill="#6B6B6B"/>
<path d="M638.16 203.701H619.605V205.133H638.16V203.701Z" fill="#6B6B6B"/>
</g>
<mask id="mask1" mask-type="alpha" maskUnits="userSpaceOnUse" x="1010" y="0" width="256" height="287">
<rect x="1010" width="256" height="287" fill="#C4C4C4"/>
</mask>
<g mask="url(#mask1)">
<path d="M1243.59 234.018H618.533V233.023H1242.6V226.401H596.937V220.089H1258V214.231H586V213.236H1259V221.076H597.924V225.414H1243.59V234.018Z" fill="#6B6B6B"/>
<path d="M646.712 210.251H645.279V198.233H619.648V201.416H601.339V210.251H599.906V199.984H618.215V196.8H646.712V210.251Z" fill="#6B6B6B"/>
<path d="M757.756 210.251H756.324V202.212H742.791V196.243H711.747V135.751H706.573V128.986H692.881V135.353H637.558V197.516H636.125V133.921H691.448V127.553H708.005V134.319H713.18V194.81H744.224V200.78H757.756V210.251Z" fill="#6B6B6B"/>
<path d="M707.607 210.251H706.175V140.686H712.463V142.119H707.607V210.251Z" fill="#6B6B6B"/>
<path d="M691.289 210.251H689.856V142.119H636.842V140.686H691.289V210.251Z" fill="#6B6B6B"/>
<path d="M738.732 200.382H706.891V201.814H738.732V200.382Z" fill="#6B6B6B"/>
<path d="M727.11 201.098H725.677V210.251H727.11V201.098Z" fill="#6B6B6B"/>
<path d="M721.538 195.526H720.105V142.676H743.293V189.286H741.86V144.109H721.538V195.526Z" fill="#6B6B6B"/>
<path d="M764.785 203.884H763.352V144.109H742.576V142.676H764.785V203.884Z" fill="#6B6B6B"/>
<path d="M778.851 210.251H777.418V148.884H772.905V144.109H764.069V142.676H774.337V147.452H778.851V210.251Z" fill="#6B6B6B"/>
<path d="M791.587 197.516H790.154V144.109H773.621V142.676H791.587V197.516Z" fill="#6B6B6B"/>
<path d="M810.954 210.251H809.521V206.391H801.028V201.814H795.989V198.233H788.936V201.814H786.278V210.251H784.845V200.382H787.496V196.8H797.422V200.382H802.469V204.958H810.954V210.251Z" fill="#6B6B6B"/>
<path d="M809.896 195.526H808.463V144.109H790.871V142.676H809.896V195.526Z" fill="#6B6B6B"/>
<path d="M817.322 148.168H815.89V144.109H809.179V142.676H817.322V148.168Z" fill="#6B6B6B"/>
<path d="M821.302 203.884H819.87V149.147H812.896V147.714H821.302V203.884Z" fill="#6B6B6B"/>
<path d="M837.223 148.431H835.79V146.098H816.741V144.666H837.223V148.431Z" fill="#6B6B6B"/>
<path d="M851.026 184.248H849.585V146.098H836.506V144.666H851.026V184.248Z" fill="#6B6B6B"/>
<path d="M840.677 192.47H839.237V149.147H833.06V147.714H840.677V192.47Z" fill="#6B6B6B"/>
<path d="M773.621 147.452H769.378V148.884H773.621V147.452Z" fill="#6B6B6B"/>
<path d="M756.562 195.526H755.13V148.884H748.411V147.452H756.562V195.526Z" fill="#6B6B6B"/>
<path d="M735.866 195.526H734.433V148.884H729.84V147.452H735.866V195.526Z" fill="#6B6B6B"/>
<path d="M804.323 189.557H802.891V149.147H797.9V147.714H804.323V189.557Z" fill="#6B6B6B"/>
<path d="M844.124 145.382H842.691V130.204H876.761V134.104H875.328V131.636H844.124V145.382Z" fill="#6B6B6B"/>
<path d="M853.676 130.92H852.244V141.402H853.676V130.92Z" fill="#6B6B6B"/>
<path d="M849.434 130.92H848.001V136.157H849.434V130.92Z" fill="#6B6B6B"/>
<path d="M904.359 149.147H889.123V136.873H886.998V134.255H863.571V132.822H888.438V135.441H890.556V147.714H902.918V142.676H913.72V144.109H904.359V149.147Z" fill="#6B6B6B"/>
<path d="M877.422 161.699H875.989V149.306H882.492V138.863H857.203V137.431H883.925V150.739H877.422V161.699Z" fill="#6B6B6B"/>
<path d="M897.72 184.248H896.287V162.415H872.144V160.027H859.249V162.415H850.309V160.983H857.816V158.595H873.577V160.983H897.72V184.248Z" fill="#6B6B6B"/>
<path d="M891.965 164.095H850.309V165.527H891.965V164.095Z" fill="#6B6B6B"/>
<path d="M897.72 210.251H896.287V191.865H851.026V196.243H835.631V210.251H834.198V194.81H849.585V190.432H897.72V210.251Z" fill="#6B6B6B"/>
<path d="M879.945 210.251H878.512V196.243H850.309V194.81H879.945V210.251Z" fill="#6B6B6B"/>
<path d="M897.004 194.81H883.209V196.243H897.004V194.81Z" fill="#6B6B6B"/>
<path d="M927.706 210.251H926.273V195.311H919.149V186.023H908.339V188.148H892.681V191.149H891.248V186.715H906.898V184.59H920.582V193.879H927.706V210.251Z" fill="#6B6B6B"/>
<path d="M857.919 191.149H856.486V168.273H879.945V178.414H878.512V169.706H857.919V191.149Z" fill="#6B6B6B"/>
<path d="M876.761 191.149H875.328V177.96H892.681V183.189H891.248V179.393H876.761V191.149Z" fill="#6B6B6B"/>
<path d="M871.849 168.99H870.417V185.306H871.849V168.99Z" fill="#6B6B6B"/>
<path d="M896.399 148.431H894.966V156.653H896.399V148.431Z" fill="#6B6B6B"/>
<path d="M914.707 161.699H913.266V107.655H916.641V109.087H914.707V161.699Z" fill="#6B6B6B"/>
<path d="M945.378 160.505H943.945V107.909L941.819 105.784H940.339L938.038 103.484H920.422L918.862 105.036H918.066L917.358 105.744V137.431H918.353V146.719H920.582V153.907H919.149V148.152H916.92V138.863H915.925V105.155L917.469 103.603H918.265L919.825 102.043H938.627L940.936 104.351H942.408L945.378 107.32V160.505Z" fill="#6B6B6B"/>
<path d="M926.424 109.302L924.044 106.867H923.129L919.61 103.261L920.637 102.266L923.726 105.434H924.649L927.451 108.299L926.424 109.302Z" fill="#6B6B6B"/>
<path d="M931.24 108.904L930.301 107.83L933.326 105.187H934.321L937.728 102.226L938.667 103.301L934.862 106.62H933.859L931.24 108.904Z" fill="#6B6B6B"/>
<path d="M924.721 151.845H923.288V115.948H922.389V107.655H931.487V115.948H930.19V148.661H928.757V114.516H930.054V109.087H923.821V114.516H924.721V151.845Z" fill="#6B6B6B"/>
<path d="M938.054 156.525H936.621V146.186H938.412V138.298H939.407V114.818H940.912V109.358H942.345V116.251H940.84V139.731H939.845V147.619H938.054V156.525Z" fill="#6B6B6B"/>
<path d="M906.611 171.171H897.004V169.738H905.179V166.355H910.87V167.788H906.611V171.171Z" fill="#6B6B6B"/>
<path d="M911.587 185.306H910.154V161.381H920.621V162.813H911.587V185.306Z" fill="#6B6B6B"/>
<path d="M940.195 178.676H938.763V157.369H936.096V154.543L934.48 152.928L932.88 154.527V158.237H925.023L923.67 156.875L922.309 158.237H913.991V156.804H921.72L923.67 154.854L925.62 156.804H931.447V153.938L934.48 150.898L937.529 153.946V155.936H940.195V178.676Z" fill="#6B6B6B"/>
<path d="M933.875 177.148H932.442V162.813H927.985V161.381H933.875V177.148Z" fill="#6B6B6B"/>
<path d="M979.248 210.251H977.815V202.411H957.716V197.437H935.029V187.487H930.054V182.911H919.873V181.478H931.487V186.055H936.462V196.004H959.149V200.979H979.248V210.251Z" fill="#6B6B6B"/>
<path d="M943.825 196.72H942.392V174.713H1048.5V189.756H1047.07V176.145H943.825V196.72Z" fill="#6B6B6B"/>
<path d="M968.9 175.429H967.467V171.529H974.034V166.355H999.745V171.33H1016.34V172.762H998.313V167.788H975.467V172.961H968.9V175.429Z" fill="#6B6B6B"/>
<path d="M971.288 168.759H969.855V161.221H958.114V157.242H952.183V161.221H939.479V159.789H950.751V155.809H959.547V159.789H971.288V168.759Z" fill="#6B6B6B"/>
<path d="M954.77 156.525H953.338V149.147H950.79V150.643H944.661V149.203H949.358V147.714H954.77V156.525Z" fill="#6B6B6B"/>
<path d="M1048.5 171.775H1047.07V159.231H1044.28V157.242H1037.56V160.72H1018.53L1017.06 162.192V165.527H1009.5V171.775H1008.06V164.095H1015.63V161.595L1017.93 159.287H1036.12V155.809H1045.72V157.799H1048.5V171.775Z" fill="#6B6B6B"/>
<path d="M1035.17 160.004H1033.74V171.25H1035.17V160.004Z" fill="#6B6B6B"/>
<path d="M1023.43 160.004H1021.99V175.429H1023.43V160.004Z" fill="#6B6B6B"/>
<path d="M1108.6 191.945H1107.17V177.936H1047.79V176.503H1108.6V191.945Z" fill="#6B6B6B"/>
<path d="M1014.27 210.251H1012.84V200.62H1002.32L999.132 197.437H977.815V191.069H966.91V201.695H965.477V189.636H979.248V196.004H999.722L1002.91 199.188H1014.27V210.251Z" fill="#6B6B6B"/>
<path d="M1064.02 210.251H1062.59V193.656H1025.62V195.845H1006.59V194.412H1024.18V192.223H1064.02V210.251Z" fill="#6B6B6B"/>
<path d="M1071.78 177.22H1070.35V172.524H1088.38V173.956H1071.78V177.22Z" fill="#6B6B6B"/>
<path d="M1206.31 191.149H1204.88V166.339H1202.29V163.41H1085.12V166.339H1083.53V173.24H1082.09V164.907H1083.69V161.977H1203.72V164.907H1206.31V191.149Z" fill="#6B6B6B"/>
<path d="M1094.07 196.322H1092.64V193.656H1066.89V192.223H1094.07V196.322Z" fill="#6B6B6B"/>
<path d="M1121.14 210.251H1119.71V204.202H1115.92V197.437H1088.5V210.251H1087.07V196.004H1117.36V202.769H1121.14V210.251Z" fill="#6B6B6B"/>
<path d="M1180.64 210.251H1179.21V201.018H1165.28V189.278H1140.84V192.661H1134.03V189.278H1121.14V192.661H1101.32V191.228H1119.71V187.846H1135.47V191.228H1139.41V187.846H1166.71V199.586H1180.64V210.251Z" fill="#6B6B6B"/>
<path d="M1222.88 210.251H1221.44V203.534L1218.04 200.119H1209.65V194.945H1197.52V189.278H1165.99V187.846H1198.95V193.513H1211.09V198.686H1218.63L1222.88 202.937V210.251Z" fill="#6B6B6B"/>
<path d="M1245.12 210.251H1243.68V199.323C1241.75 197.317 1239.62 195.144 1239.01 194.603H1219.97L1214.66 199.904L1213.65 198.893L1219.38 193.162H1239.23C1239.6 193.162 1239.73 193.162 1244.89 198.535L1245.09 198.742L1245.12 210.251Z" fill="#6B6B6B"/>
<path d="M1199.7 210.251H1198.26V202.937L1202.51 198.686H1210.37V200.119H1203.1L1199.7 203.534V210.251Z" fill="#6B6B6B"/>
<path d="M1184.9 210.251H1183.47V202.467L1187.79 198.153H1194.91L1199.48 202.73L1198.47 203.74L1194.32 199.586H1188.38L1184.9 203.064V210.251Z" fill="#6B6B6B"/>
<path d="M1227.61 210.251H1226.17V199.251L1228.74 196.688H1232.92L1235.33 199.092H1244.38V200.525H1234.73L1232.33 198.121H1229.33L1227.61 199.848V210.251Z" fill="#6B6B6B"/>
<path d="M1033.18 154.933H1031.75V146.122H1041.65C1042.18 145.523 1042.83 145.047 1043.56 144.727C1044.29 144.407 1045.08 144.251 1045.88 144.27C1046.68 144.289 1047.46 144.483 1048.18 144.837C1048.89 145.191 1049.52 145.698 1050.02 146.321H1059.51V150.755H1058.05V147.754H1049.22L1049.01 147.38C1048.67 146.851 1048.19 146.419 1047.64 146.124C1047.08 145.828 1046.46 145.68 1045.83 145.693C1045.21 145.652 1044.6 145.768 1044.04 146.032C1043.48 146.295 1043 146.696 1042.64 147.197L1042.44 147.547H1033.18V154.933Z" fill="#6B6B6B"/>
<path d="M1061.05 150.166H1048.12V151.598H1061.05V150.166Z" fill="#6B6B6B"/>
<path d="M1051.85 153.103L1051.8 154.535L1061.28 154.909L1061.34 153.478L1051.85 153.103Z" fill="#6B6B6B"/>
<path d="M1051.68 156.205L1051.63 157.637L1061.11 158.009L1061.16 156.578L1051.68 156.205Z" fill="#6B6B6B"/>
<path d="M1051.61 159.334L1051.55 160.766L1061.03 161.14L1061.09 159.709L1051.61 159.334Z" fill="#6B6B6B"/>
<path d="M1051.48 162.458L1051.43 163.889L1060.91 164.264L1060.96 162.832L1051.48 162.458Z" fill="#6B6B6B"/>
<path d="M1051.36 165.566L1051.31 166.997L1060.79 167.371L1060.84 165.94L1051.36 165.566Z" fill="#6B6B6B"/>
<path d="M1059.51 174.052H1052.36V172.619H1058.08V169.34H1067.37V166.204H1074.77V168.544H1077.12V166.204H1080.12V167.637H1078.55V169.977H1073.34V167.637H1068.8V170.773H1059.51V174.052Z" fill="#6B6B6B"/>
<path d="M967.188 116.052H960.303V106.063H961.943V104.335L963.813 102.465V98.0953L964.482 97.4267V58.5529L962.237 56.5949L961.688 52.5277L962.579 48.1818L967.674 45.7383L968.295 47.0277L963.837 49.1608L963.137 52.5754L963.582 55.8706L965.915 57.9003V98.0157L965.246 98.6843V103.062L963.375 104.932V107.495H961.736V114.619H967.188V116.052Z" fill="#6B6B6B"/>
<path d="M954.731 150.795L953.377 150.309L963.781 121.281V119.705L961.99 117.914V115.335H963.423V117.325L965.214 119.116V121.528L954.731 150.795Z" fill="#6B6B6B"/>
<path d="M968.916 -5.98193L967.053 47.0834H970.77L968.916 -5.98193Z" fill="#6B6B6B"/>
<path d="M977.521 116.052H970.635V114.619H976.088V107.495H974.448V104.932L972.577 103.062V98.6843L971.909 98.0157V57.9003L974.241 55.8706L974.687 52.5754L973.986 49.1608L969.529 47.0277L970.15 45.7383L975.244 48.1818L976.136 52.5277L975.586 56.5949L973.342 58.5529V97.4267L974.01 98.0873V102.465L975.881 104.335V106.063H977.521V116.052Z" fill="#6B6B6B"/>
<path d="M971.288 121.631H969.855V160.497H971.288V121.631Z" fill="#6B6B6B"/>
<path d="M966.91 128.269H965.477V160.505H966.91V128.269Z" fill="#6B6B6B"/>
<path d="M971.436 130.656L970.114 131.209L985.237 167.358L986.559 166.805L971.436 130.656Z" fill="#6B6B6B"/>
<path d="M965.531 132.652L955.506 156.361L956.825 156.919L966.851 133.21L965.531 132.652Z" fill="#6B6B6B"/>
<path d="M975.164 106.063H962.659V107.495H975.164V106.063Z" fill="#6B6B6B"/>
<path d="M972.625 57.5103H965.198V58.9429H972.625V57.5103Z" fill="#6B6B6B"/>
<path d="M697.737 138.139C697.083 138.139 696.445 137.945 695.902 137.582C695.358 137.219 694.935 136.704 694.685 136.1C694.435 135.496 694.369 134.832 694.497 134.191C694.624 133.551 694.939 132.962 695.401 132.5C695.863 132.038 696.452 131.724 697.092 131.596C697.733 131.469 698.397 131.534 699.001 131.784C699.605 132.034 700.121 132.458 700.484 133.001C700.847 133.544 701.04 134.183 701.04 134.836C701.038 135.711 700.689 136.55 700.07 137.169C699.451 137.788 698.612 138.137 697.737 138.139ZM697.737 132.965C697.367 132.965 697.005 133.075 696.698 133.281C696.39 133.486 696.15 133.778 696.009 134.12C695.867 134.462 695.83 134.838 695.902 135.201C695.974 135.564 696.152 135.897 696.414 136.158C696.676 136.42 697.009 136.598 697.372 136.67C697.735 136.743 698.111 136.706 698.453 136.564C698.794 136.422 699.087 136.183 699.292 135.875C699.498 135.567 699.607 135.206 699.607 134.836C699.607 134.34 699.41 133.864 699.06 133.513C698.709 133.162 698.233 132.965 697.737 132.965Z" fill="#6B6B6B"/>
<path d="M704.821 128.269H703.389V194.332H704.821V128.269Z" fill="#6B6B6B"/>
<path d="M642.334 145.382H640.901V192.478H642.334V145.382Z" fill="#6B6B6B"/>
<path d="M647.858 145.382H646.426V192.478H647.858V145.382Z" fill="#6B6B6B"/>
<path d="M653.375 145.382H651.942V205.675H653.375V145.382Z" fill="#6B6B6B"/>
<path d="M658.899 145.382H657.466V205.675H658.899V145.382Z" fill="#6B6B6B"/>
<path d="M664.424 145.382H662.991V205.675H664.424V145.382Z" fill="#6B6B6B"/>
<path d="M669.948 145.382H668.515V205.675H669.948V145.382Z" fill="#6B6B6B"/>
<path d="M675.464 145.382H674.031V205.675H675.464V145.382Z" fill="#6B6B6B"/>
<path d="M680.989 145.382H679.556V205.675H680.989V145.382Z" fill="#6B6B6B"/>
<path d="M686.513 145.382H685.08V205.675H686.513V145.382Z" fill="#6B6B6B"/>
<path d="M624.304 200.103H622.513V203.486H624.304V200.103Z" fill="#6B6B6B"/>
<path d="M628.881 200.103H627.09V203.486H628.881V200.103Z" fill="#6B6B6B"/>
<path d="M633.458 200.103H631.667V203.486H633.458V200.103Z" fill="#6B6B6B"/>
<path d="M638.036 200.103H636.245V203.486H638.036V200.103Z" fill="#6B6B6B"/>
<path d="M642.613 200.103H640.822V203.486H642.613V200.103Z" fill="#6B6B6B"/>
<path d="M624.304 206.869H622.513V208.564H624.304V206.869Z" fill="#6B6B6B"/>
<path d="M628.881 206.869H627.09V208.564H628.881V206.869Z" fill="#6B6B6B"/>
<path d="M633.458 206.869H631.667V208.564H633.458V206.869Z" fill="#6B6B6B"/>
<path d="M638.036 206.869H636.245V208.564H638.036V206.869Z" fill="#6B6B6B"/>
<path d="M642.613 206.869H640.822V208.564H642.613V206.869Z" fill="#6B6B6B"/>
<path d="M609.077 206.869H607.285V208.564H609.077V206.869Z" fill="#6B6B6B"/>
<path d="M613.654 206.869H611.863V208.564H613.654V206.869Z" fill="#6B6B6B"/>
<path d="M618.231 206.869H616.44V208.564H618.231V206.869Z" fill="#6B6B6B"/>
<path d="M735.15 151.829H729.84V153.262H735.15V151.829Z" fill="#6B6B6B"/>
<path d="M755.846 151.829H748.419V153.262H755.846V151.829Z" fill="#6B6B6B"/>
<path d="M778.134 151.829H769.378V153.262H778.134V151.829Z" fill="#6B6B6B"/>
<path d="M803.607 151.829H797.9V153.262H803.607V151.829Z" fill="#6B6B6B"/>
<path d="M820.594 151.829H812.896V153.262H820.594V151.829Z" fill="#6B6B6B"/>
<path d="M839.229 152.625H833.06V154.058H839.229V152.625Z" fill="#6B6B6B"/>
<path d="M735.15 155.936H729.84V157.369H735.15V155.936Z" fill="#6B6B6B"/>
<path d="M755.846 155.936H748.419V157.369H755.846V155.936Z" fill="#6B6B6B"/>
<path d="M778.134 155.936H769.378V157.369H778.134V155.936Z" fill="#6B6B6B"/>
<path d="M803.607 155.936H797.9V157.369H803.607V155.936Z" fill="#6B6B6B"/>
<path d="M820.594 155.936H812.896V157.369H820.594V155.936Z" fill="#6B6B6B"/>
<path d="M839.229 156.732H833.06V158.165H839.229V156.732Z" fill="#6B6B6B"/>
<path d="M735.15 160.051H729.84V161.484H735.15V160.051Z" fill="#6B6B6B"/>
<path d="M755.846 160.051H748.419V161.484H755.846V160.051Z" fill="#6B6B6B"/>
<path d="M778.134 160.051H769.378V161.484H778.134V160.051Z" fill="#6B6B6B"/>
<path d="M803.607 160.051H797.9V161.484H803.607V160.051Z" fill="#6B6B6B"/>
<path d="M820.594 160.051H812.896V161.484H820.594V160.051Z" fill="#6B6B6B"/>
<path d="M839.229 160.847H833.06V162.28H839.229V160.847Z" fill="#6B6B6B"/>
<path d="M735.15 164.166H729.84V165.599H735.15V164.166Z" fill="#6B6B6B"/>
<path d="M755.846 164.166H748.419V165.599H755.846V164.166Z" fill="#6B6B6B"/>
<path d="M778.134 164.166H769.378V165.599H778.134V164.166Z" fill="#6B6B6B"/>
<path d="M803.607 164.166H797.9V165.599H803.607V164.166Z" fill="#6B6B6B"/>
<path d="M820.594 164.166H812.896V165.599H820.594V164.166Z" fill="#6B6B6B"/>
<path d="M839.229 164.962H833.06V166.395H839.229V164.962Z" fill="#6B6B6B"/>
<path d="M735.15 168.273H729.84V169.706H735.15V168.273Z" fill="#6B6B6B"/>
<path d="M755.846 168.273H748.419V169.706H755.846V168.273Z" fill="#6B6B6B"/>
<path d="M778.134 168.273H769.378V169.706H778.134V168.273Z" fill="#6B6B6B"/>
<path d="M803.607 168.273H797.9V169.706H803.607V168.273Z" fill="#6B6B6B"/>
<path d="M820.594 168.273H812.896V169.706H820.594V168.273Z" fill="#6B6B6B"/>
<path d="M839.229 169.069H833.06V170.502H839.229V169.069Z" fill="#6B6B6B"/>
<path d="M735.15 172.388H729.84V173.821H735.15V172.388Z" fill="#6B6B6B"/>
<path d="M755.846 172.388H748.419V173.821H755.846V172.388Z" fill="#6B6B6B"/>
<path d="M778.134 172.388H769.378V173.821H778.134V172.388Z" fill="#6B6B6B"/>
<path d="M803.607 172.388H797.9V173.821H803.607V172.388Z" fill="#6B6B6B"/>
<path d="M820.594 172.388H812.896V173.821H820.594V172.388Z" fill="#6B6B6B"/>
<path d="M839.229 173.184H833.06V174.617H839.229V173.184Z" fill="#6B6B6B"/>
<path d="M735.15 176.503H729.84V177.936H735.15V176.503Z" fill="#6B6B6B"/>
<path d="M755.846 176.503H748.419V177.936H755.846V176.503Z" fill="#6B6B6B"/>
<path d="M778.134 176.503H769.378V177.936H778.134V176.503Z" fill="#6B6B6B"/>
<path d="M803.607 176.503H797.9V177.936H803.607V176.503Z" fill="#6B6B6B"/>
<path d="M820.594 176.503H812.896V177.936H820.594V176.503Z" fill="#6B6B6B"/>
<path d="M839.229 177.299H833.06V178.732H839.229V177.299Z" fill="#6B6B6B"/>
<path d="M735.15 180.61H729.84V182.043H735.15V180.61Z" fill="#6B6B6B"/>
<path d="M755.846 180.61H748.419V182.043H755.846V180.61Z" fill="#6B6B6B"/>
<path d="M778.134 180.61H769.378V182.043H778.134V180.61Z" fill="#6B6B6B"/>
<path d="M803.607 180.61H797.9V182.043H803.607V180.61Z" fill="#6B6B6B"/>
<path d="M820.594 180.61H812.896V182.043H820.594V180.61Z" fill="#6B6B6B"/>
<path d="M839.229 181.406H833.06V182.839H839.229V181.406Z" fill="#6B6B6B"/>
<path d="M735.15 184.725H729.84V186.158H735.15V184.725Z" fill="#6B6B6B"/>
<path d="M755.846 184.725H748.419V186.158H755.846V184.725Z" fill="#6B6B6B"/>
<path d="M778.134 184.725H769.378V186.158H778.134V184.725Z" fill="#6B6B6B"/>
<path d="M803.607 184.725H797.9V186.158H803.607V184.725Z" fill="#6B6B6B"/>
<path d="M820.594 184.725H812.896V186.158H820.594V184.725Z" fill="#6B6B6B"/>
<path d="M839.229 185.521H833.06V186.954H839.229V185.521Z" fill="#6B6B6B"/>
<path d="M735.15 188.84H729.84V190.273H735.15V188.84Z" fill="#6B6B6B"/>
<path d="M755.846 188.84H748.419V190.273H755.846V188.84Z" fill="#6B6B6B"/>
<path d="M778.134 188.84H769.378V190.273H778.134V188.84Z" fill="#6B6B6B"/>
<path d="M820.594 188.84H812.896V190.273H820.594V188.84Z" fill="#6B6B6B"/>
<path d="M839.229 189.636H833.06V191.069H839.229V189.636Z" fill="#6B6B6B"/>
<path d="M755.846 192.948H748.419V194.38H755.846V192.948Z" fill="#6B6B6B"/>
<path d="M778.134 192.948H769.378V194.38H778.134V192.948Z" fill="#6B6B6B"/>
<path d="M820.594 192.948H812.896V194.38H820.594V192.948Z" fill="#6B6B6B"/>
<path d="M778.134 197.063H769.378V198.495H778.134V197.063Z" fill="#6B6B6B"/>
<path d="M820.594 197.063H812.896V198.495H820.594V197.063Z" fill="#6B6B6B"/>
<path d="M778.134 201.178H769.378V202.61H778.134V201.178Z" fill="#6B6B6B"/>
<path d="M820.594 201.178H812.896V202.61H820.594V201.178Z" fill="#6B6B6B"/>
<path d="M733.621 139.612H729.84V143.392H733.621V139.612Z" fill="#6B6B6B"/>
<path d="M755.217 139.612H751.436V143.392H755.217V139.612Z" fill="#6B6B6B"/>
<path d="M760.821 139.612H757.04V143.392H760.821V139.612Z" fill="#6B6B6B"/>
<path d="M838.799 141.498H835.018V145.279H838.799V141.498Z" fill="#6B6B6B"/>
<path d="M781.916 139.612H778.134V143.392H781.916V139.612Z" fill="#6B6B6B"/>
<path d="M804.005 139.612H800.224V143.392H804.005V139.612Z" fill="#6B6B6B"/>
<path d="M746.015 123.693H744.582V143.392H746.015V123.693Z" fill="#6B6B6B"/>
<path d="M766.513 130.92H765.08V143.392H766.513V130.92Z" fill="#6B6B6B"/>
<path d="M754.174 128.102H752.742V140.575H754.174V128.102Z" fill="#6B6B6B"/>
<path d="M732.419 130.323H730.986V140.208H732.419V130.323Z" fill="#6B6B6B"/>
<path d="M802.827 128.269H801.394V140.742H802.827V128.269Z" fill="#6B6B6B"/>
<path d="M821.302 132.711H819.87V145.183H821.302V132.711Z" fill="#6B6B6B"/>
<path d="M827.344 132.711H825.911V145.183H827.344V132.711Z" fill="#6B6B6B"/>
<path d="M788.085 150.818H786.891V154.933H788.085V150.818Z" fill="#6B6B6B"/>
<path d="M788.085 157.783H786.891V161.898H788.085V157.783Z" fill="#6B6B6B"/>
<path d="M788.085 164.747H786.891V168.862H788.085V164.747Z" fill="#6B6B6B"/>
<path d="M788.085 171.712H786.891V175.827H788.085V171.712Z" fill="#6B6B6B"/>
<path d="M788.085 178.676H786.891V182.791H788.085V178.676Z" fill="#6B6B6B"/>
<path d="M788.085 185.641H786.891V189.756H788.085V185.641Z" fill="#6B6B6B"/>
<path d="M739.464 149.29H738.27V153.405H739.464V149.29Z" fill="#6B6B6B"/>
<path d="M739.464 156.255H738.27V160.37H739.464V156.255Z" fill="#6B6B6B"/>
<path d="M739.464 163.219H738.27V167.334H739.464V163.219Z" fill="#6B6B6B"/>
<path d="M739.464 170.184H738.27V174.299H739.464V170.184Z" fill="#6B6B6B"/>
<path d="M739.464 177.148H738.27V181.263H739.464V177.148Z" fill="#6B6B6B"/>
<path d="M739.464 184.113H738.27V188.228H739.464V184.113Z" fill="#6B6B6B"/>
<path d="M847.587 149.792H846.393V153.907H847.587V149.792Z" fill="#6B6B6B"/>
<path d="M847.587 156.756H846.393V160.871H847.587V156.756Z" fill="#6B6B6B"/>
<path d="M847.587 163.721H846.393V167.836H847.587V163.721Z" fill="#6B6B6B"/>
<path d="M847.587 170.685H846.393V174.8H847.587V170.685Z" fill="#6B6B6B"/>
<path d="M847.587 177.65H846.393V181.765H847.587V177.65Z" fill="#6B6B6B"/>
<path d="M825.593 150.325H824.399V154.44H825.593V150.325Z" fill="#6B6B6B"/>
<path d="M825.593 157.289H824.399V161.404H825.593V157.289Z" fill="#6B6B6B"/>
<path d="M825.593 164.254H824.399V168.369H825.593V164.254Z" fill="#6B6B6B"/>
<path d="M825.593 171.218H824.399V175.333H825.593V171.218Z" fill="#6B6B6B"/>
<path d="M825.593 178.183H824.399V182.298H825.593V178.183Z" fill="#6B6B6B"/>
<path d="M825.593 185.147H824.399V189.262H825.593V185.147Z" fill="#6B6B6B"/>
<path d="M825.593 192.271H824.399V196.386H825.593V192.271Z" fill="#6B6B6B"/>
<path d="M825.593 199.403H824.399V203.518H825.593V199.403Z" fill="#6B6B6B"/>
<path d="M733.542 205.675H732.109V210.251H733.542V205.675Z" fill="#6B6B6B"/>
<path d="M740.379 205.675H738.947V210.251H740.379V205.675Z" fill="#6B6B6B"/>
<path d="M747.209 205.675H745.776V210.251H747.209V205.675Z" fill="#6B6B6B"/>
<path d="M754.039 205.675H752.606V210.251H754.039V205.675Z" fill="#6B6B6B"/>
<path d="M792.662 201.098H790.871V202.889H792.662V201.098Z" fill="#6B6B6B"/>
<path d="M792.662 205.675H790.871V207.465H792.662V205.675Z" fill="#6B6B6B"/>
<path d="M796.873 205.675H795.082V207.465H796.873V205.675Z" fill="#6B6B6B"/>
<path d="M847.961 198.575H837.836V199.944H847.961V198.575Z" fill="#6B6B6B"/>
<path d="M862.003 198.575H851.877V199.944H862.003V198.575Z" fill="#6B6B6B"/>
<path d="M876.044 198.575H865.919V199.944H876.044V198.575Z" fill="#6B6B6B"/>
<path d="M847.961 201.345H837.836V202.714H847.961V201.345Z" fill="#6B6B6B"/>
<path d="M862.003 201.345H851.877V202.714H862.003V201.345Z" fill="#6B6B6B"/>
<path d="M876.044 201.345H865.919V202.714H876.044V201.345Z" fill="#6B6B6B"/>
<path d="M847.961 204.123H837.836V205.492H847.961V204.123Z" fill="#6B6B6B"/>
<path d="M862.003 204.123H851.877V205.492H862.003V204.123Z" fill="#6B6B6B"/>
<path d="M876.044 204.123H865.919V205.492H876.044V204.123Z" fill="#6B6B6B"/>
<path d="M847.961 206.892H837.836V208.261H847.961V206.892Z" fill="#6B6B6B"/>
<path d="M862.003 206.892H851.877V208.261H862.003V206.892Z" fill="#6B6B6B"/>
<path d="M876.044 206.892H865.919V208.261H876.044V206.892Z" fill="#6B6B6B"/>
<path d="M885.605 201.345H883.185V202.714H885.605V201.345Z" fill="#6B6B6B"/>
<path d="M885.605 204.123H883.185V205.492H885.605V204.123Z" fill="#6B6B6B"/>
<path d="M885.605 206.892H883.185V208.261H885.605V206.892Z" fill="#6B6B6B"/>
<path d="M889.752 198.575H887.332V199.944H889.752V198.575Z" fill="#6B6B6B"/>
<path d="M889.752 201.345H887.332V202.714H889.752V201.345Z" fill="#6B6B6B"/>
<path d="M889.752 204.123H887.332V205.492H889.752V204.123Z" fill="#6B6B6B"/>
<path d="M893.899 198.575H891.479V199.944H893.899V198.575Z" fill="#6B6B6B"/>
<path d="M893.899 204.123H891.479V205.492H893.899V204.123Z" fill="#6B6B6B"/>
<path d="M893.899 206.892H891.479V208.261H893.899V206.892Z" fill="#6B6B6B"/>
<path d="M891.487 167.35H883.209V168.783H891.487V167.35Z" fill="#6B6B6B"/>
<path d="M891.487 170.534H883.209V171.967H891.487V170.534Z" fill="#6B6B6B"/>
<path d="M891.487 173.718H883.209V175.15H891.487V173.718Z" fill="#6B6B6B"/>
<path d="M865.481 141.402H864.048V143.392H865.481V141.402Z" fill="#6B6B6B"/>
<path d="M908.068 147.436H906.635V149.425H908.068V147.436Z" fill="#6B6B6B"/>
<path d="M911.388 147.436H909.955V149.425H911.388V147.436Z" fill="#6B6B6B"/>
<path d="M862.719 144.785H861.286V146.775H862.719V144.785Z" fill="#6B6B6B"/>
<path d="M859.949 148.168H858.516V150.158H859.949V148.168Z" fill="#6B6B6B"/>
<path d="M887.722 138.943H886.249V140.798H887.722V138.943Z" fill="#6B6B6B"/>
<path d="M887.722 142.461H886.249V144.316H887.722V142.461Z" fill="#6B6B6B"/>
<path d="M887.722 145.979H886.249V147.834H887.722V145.979Z" fill="#6B6B6B"/>
<path d="M887.722 149.489H886.249V151.344H887.722V149.489Z" fill="#6B6B6B"/>
<path d="M887.722 153.007H886.249V154.862H887.722V153.007Z" fill="#6B6B6B"/>
<path d="M887.722 156.525H886.249V158.38H887.722V156.525Z" fill="#6B6B6B"/>
<path d="M868.952 171.815H867.479V174.323H868.952V171.815Z" fill="#6B6B6B"/>
<path d="M868.952 176.424H867.479V178.931H868.952V176.424Z" fill="#6B6B6B"/>
<path d="M868.952 181.04H867.479V183.547H868.952V181.04Z" fill="#6B6B6B"/>
<path d="M868.952 185.657H867.479V188.164H868.952V185.657Z" fill="#6B6B6B"/>
<path d="M861.453 171.815H859.981V174.323H861.453V171.815Z" fill="#6B6B6B"/>
<path d="M861.453 176.424H859.981V178.931H861.453V176.424Z" fill="#6B6B6B"/>
<path d="M861.453 181.04H859.981V183.547H861.453V181.04Z" fill="#6B6B6B"/>
<path d="M861.453 185.657H859.981V188.164H861.453V185.657Z" fill="#6B6B6B"/>
<path d="M901.238 157.281H899.806V167.064H901.238V157.281Z" fill="#6B6B6B"/>
<path d="M904.653 157.281H903.22V164.15H904.653V157.281Z" fill="#6B6B6B"/>
<path d="M908.068 157.281H906.635V164.15H908.068V157.281Z" fill="#6B6B6B"/>
<path d="M934.751 112.343H933.684V115.335H934.751V112.343Z" fill="#6B6B6B"/>
<path d="M937.075 112.343H936.008V115.335H937.075V112.343Z" fill="#6B6B6B"/>
<path d="M920.661 112.343H919.595V115.335H920.661V112.343Z" fill="#6B6B6B"/>
<path d="M918.528 165.05H915.049V166.427H918.528V165.05Z" fill="#6B6B6B"/>
<path d="M905.179 195.869H902.194V197.389H905.179V195.869Z" fill="#6B6B6B"/>
<path d="M905.179 199.498H902.194V201.018H905.179V199.498Z" fill="#6B6B6B"/>
<path d="M905.179 206.741H902.194V208.261H905.179V206.741Z" fill="#6B6B6B"/>
<path d="M911.117 192.247H908.132V193.767H911.117V192.247Z" fill="#6B6B6B"/>
<path d="M911.117 195.869H908.132V197.389H911.117V195.869Z" fill="#6B6B6B"/>
<path d="M911.117 199.498H908.132V201.018H911.117V199.498Z" fill="#6B6B6B"/>
<path d="M911.117 203.12H908.132V204.64H911.117V203.12Z" fill="#6B6B6B"/>
<path d="M911.117 206.741H908.132V208.261H911.117V206.741Z" fill="#6B6B6B"/>
<path d="M917.055 192.247H914.07V193.767H917.055V192.247Z" fill="#6B6B6B"/>
<path d="M917.055 199.498H914.07V201.018H917.055V199.498Z" fill="#6B6B6B"/>
<path d="M917.055 203.12H914.07V204.64H917.055V203.12Z" fill="#6B6B6B"/>
<path d="M922.994 199.498H920.008V201.018H922.994V199.498Z" fill="#6B6B6B"/>
<path d="M922.994 203.12H920.008V204.64H922.994V203.12Z" fill="#6B6B6B"/>
<path d="M922.994 206.741H920.008V208.261H922.994V206.741Z" fill="#6B6B6B"/>
<path d="M918.528 169.101H915.049V170.478H918.528V169.101Z" fill="#6B6B6B"/>
<path d="M918.528 173.152H915.049V174.529H918.528V173.152Z" fill="#6B6B6B"/>
<path d="M918.528 177.212H915.049V178.589H918.528V177.212Z" fill="#6B6B6B"/>
<path d="M922.715 165.05H920.972V166.427H922.715V165.05Z" fill="#6B6B6B"/>
<path d="M922.715 169.101H920.972V170.478H922.715V169.101Z" fill="#6B6B6B"/>
<path d="M922.715 173.152H920.972V174.529H922.715V173.152Z" fill="#6B6B6B"/>
<path d="M922.715 177.212H920.972V178.589H922.715V177.212Z" fill="#6B6B6B"/>
<path d="M926.265 165.05H924.522V166.427H926.265V165.05Z" fill="#6B6B6B"/>
<path d="M926.265 169.101H924.522V170.478H926.265V169.101Z" fill="#6B6B6B"/>
<path d="M926.265 173.152H924.522V174.529H926.265V173.152Z" fill="#6B6B6B"/>
<path d="M926.265 177.212H924.522V178.589H926.265V177.212Z" fill="#6B6B6B"/>
<path d="M929.823 165.05H928.08V166.427H929.823V165.05Z" fill="#6B6B6B"/>
<path d="M929.823 169.101H928.08V170.478H929.823V169.101Z" fill="#6B6B6B"/>
<path d="M929.823 173.152H928.08V174.529H929.823V173.152Z" fill="#6B6B6B"/>
<path d="M910.671 173.718H900.522V175.15H910.671V173.718Z" fill="#6B6B6B"/>
<path d="M910.671 176.503H900.522V177.936H910.671V176.503Z" fill="#6B6B6B"/>
<path d="M910.671 179.289H900.522V180.722H910.671V179.289Z" fill="#6B6B6B"/>
<path d="M879.945 182.123H878.512V191.141H879.945V182.123Z" fill="#6B6B6B"/>
<path d="M883.901 182.123H882.468V191.141H883.901V182.123Z" fill="#6B6B6B"/>
<path d="M887.865 182.123H886.432V191.141H887.865V182.123Z" fill="#6B6B6B"/>
<path d="M953.704 199.984H930.572V201.416H953.704V199.984Z" fill="#6B6B6B"/>
<path d="M953.704 203.406H930.572V204.839H953.704V203.406Z" fill="#6B6B6B"/>
<path d="M974.352 207.203H930.572V208.636H974.352V207.203Z" fill="#6B6B6B"/>
<path d="M950.44 175.429H949.007V192.255H950.44V175.429Z" fill="#6B6B6B"/>
<path d="M957.923 175.429H956.49V192.255H957.923V175.429Z" fill="#6B6B6B"/>
<path d="M965.397 175.429H963.964V187.368H965.397V175.429Z" fill="#6B6B6B"/>
<path d="M972.88 175.429H971.447V187.368H972.88V175.429Z" fill="#6B6B6B"/>
<path d="M980.354 175.429H978.922V187.368H980.354V175.429Z" fill="#6B6B6B"/>
<path d="M987.837 175.429H986.404V192.255H987.837V175.429Z" fill="#6B6B6B"/>
<path d="M995.32 175.429H993.887V192.255H995.32V175.429Z" fill="#6B6B6B"/>
<path d="M1002.79 175.429H1001.36V192.255H1002.79V175.429Z" fill="#6B6B6B"/>
<path d="M1010.28 175.429H1008.84V192.255H1010.28V175.429Z" fill="#6B6B6B"/>
<path d="M1017.75 175.429H1016.32V192.255H1017.75V175.429Z" fill="#6B6B6B"/>
<path d="M1025.23 175.429H1023.8V189.557H1025.23V175.429Z" fill="#6B6B6B"/>
<path d="M1032.72 175.429H1031.28V189.557H1032.72V175.429Z" fill="#6B6B6B"/>
<path d="M1040.19 175.429H1038.76V189.557H1040.19V175.429Z" fill="#6B6B6B"/>
<path d="M1044.2 180.682H943.109V182.115H1044.2V180.682Z" fill="#6B6B6B"/>
<path d="M1044.2 186.15H943.109V187.583H1044.2V186.15Z" fill="#6B6B6B"/>
<path d="M969.632 58.2266H968.199V97.6257H969.632V58.2266Z" fill="#6B6B6B"/>
<path d="M1029.44 196.219H1028.28V198.702H1029.44V196.219Z" fill="#6B6B6B"/>
<path d="M1031.57 196.219H1030.41V198.702H1031.57V196.219Z" fill="#6B6B6B"/>
<path d="M1036.11 196.219H1034.95V198.702H1036.11V196.219Z" fill="#6B6B6B"/>
<path d="M1038.23 196.219H1037.07V198.702H1038.23V196.219Z" fill="#6B6B6B"/>
<path d="M1042.78 196.219H1041.62V198.702H1042.78V196.219Z" fill="#6B6B6B"/>
<path d="M1044.9 196.219H1043.74V198.702H1044.9V196.219Z" fill="#6B6B6B"/>
<path d="M1049.44 196.219H1048.28V198.702H1049.44V196.219Z" fill="#6B6B6B"/>
<path d="M1051.57 196.219H1050.4V198.702H1051.57V196.219Z" fill="#6B6B6B"/>
<path d="M1056.11 196.219H1054.95V198.702H1056.11V196.219Z" fill="#6B6B6B"/>
<path d="M1058.24 196.219H1057.07V198.702H1058.24V196.219Z" fill="#6B6B6B"/>
<path d="M1029.44 200.652H1028.28V203.136H1029.44V200.652Z" fill="#6B6B6B"/>
<path d="M1031.57 200.652H1030.41V203.136H1031.57V200.652Z" fill="#6B6B6B"/>
<path d="M1036.11 200.652H1034.95V203.136H1036.11V200.652Z" fill="#6B6B6B"/>
<path d="M1038.23 200.652H1037.07V203.136H1038.23V200.652Z" fill="#6B6B6B"/>
<path d="M1042.78 200.652H1041.62V203.136H1042.78V200.652Z" fill="#6B6B6B"/>
<path d="M1044.9 200.652H1043.74V203.136H1044.9V200.652Z" fill="#6B6B6B"/>
<path d="M1049.44 200.652H1048.28V203.136H1049.44V200.652Z" fill="#6B6B6B"/>
<path d="M1051.57 200.652H1050.4V203.136H1051.57V200.652Z" fill="#6B6B6B"/>
<path d="M1056.11 200.652H1054.95V203.136H1056.11V200.652Z" fill="#6B6B6B"/>
<path d="M1058.24 200.652H1057.07V203.136H1058.24V200.652Z" fill="#6B6B6B"/>
<path d="M1029.44 205.078H1028.28V207.561H1029.44V205.078Z" fill="#6B6B6B"/>
<path d="M1031.57 205.078H1030.41V207.561H1031.57V205.078Z" fill="#6B6B6B"/>
<path d="M1022.23 200.652H1021.07V203.136H1022.23V200.652Z" fill="#6B6B6B"/>
<path d="M1024.36 200.652H1023.2V203.136H1024.36V200.652Z" fill="#6B6B6B"/>
<path d="M1022.23 205.078H1021.07V207.561H1022.23V205.078Z" fill="#6B6B6B"/>
<path d="M1024.36 205.078H1023.2V207.561H1024.36V205.078Z" fill="#6B6B6B"/>
<path d="M1036.11 205.078H1034.95V207.561H1036.11V205.078Z" fill="#6B6B6B"/>
<path d="M1038.23 205.078H1037.07V207.561H1038.23V205.078Z" fill="#6B6B6B"/>
<path d="M1042.78 205.078H1041.62V207.561H1042.78V205.078Z" fill="#6B6B6B"/>
<path d="M1044.9 205.078H1043.74V207.561H1044.9V205.078Z" fill="#6B6B6B"/>
<path d="M1049.44 205.078H1048.28V207.561H1049.44V205.078Z" fill="#6B6B6B"/>
<path d="M1051.57 205.078H1050.4V207.561H1051.57V205.078Z" fill="#6B6B6B"/>
<path d="M1056.11 205.078H1054.95V207.561H1056.11V205.078Z" fill="#6B6B6B"/>
<path d="M1058.24 205.078H1057.07V207.561H1058.24V205.078Z" fill="#6B6B6B"/>
<path d="M1068.65 196.219H1067.49V198.702H1068.65V196.219Z" fill="#6B6B6B"/>
<path d="M1070.77 196.219H1069.61V198.702H1070.77V196.219Z" fill="#6B6B6B"/>
<path d="M1075.32 196.219H1074.16V198.702H1075.32V196.219Z" fill="#6B6B6B"/>
<path d="M1077.44 196.219H1076.28V198.702H1077.44V196.219Z" fill="#6B6B6B"/>
<path d="M1081.98 196.219H1080.82V198.702H1081.98V196.219Z" fill="#6B6B6B"/>
<path d="M1084.11 196.219H1082.95V198.702H1084.11V196.219Z" fill="#6B6B6B"/>
<path d="M1068.65 200.652H1067.49V203.136H1068.65V200.652Z" fill="#6B6B6B"/>
<path d="M1070.77 200.652H1069.61V203.136H1070.77V200.652Z" fill="#6B6B6B"/>
<path d="M1075.32 200.652H1074.16V203.136H1075.32V200.652Z" fill="#6B6B6B"/>
<path d="M1077.44 200.652H1076.28V203.136H1077.44V200.652Z" fill="#6B6B6B"/>
<path d="M1081.98 200.652H1080.82V203.136H1081.98V200.652Z" fill="#6B6B6B"/>
<path d="M1084.11 200.652H1082.95V203.136H1084.11V200.652Z" fill="#6B6B6B"/>
<path d="M1068.65 205.078H1067.49V207.561H1068.65V205.078Z" fill="#6B6B6B"/>
<path d="M1070.77 205.078H1069.61V207.561H1070.77V205.078Z" fill="#6B6B6B"/>
<path d="M1075.32 205.078H1074.16V207.561H1075.32V205.078Z" fill="#6B6B6B"/>
<path d="M1077.44 205.078H1076.28V207.561H1077.44V205.078Z" fill="#6B6B6B"/>
<path d="M1112.95 204.56V203.04H1108.35V204.56H1112.95Z" fill="#6B6B6B"/>
<path d="M1104.76 200.971V199.45H1100.15V200.971H1104.76Z" fill="#6B6B6B"/>
<path d="M1104.75 204.56V203.04H1100.15V204.56H1104.75Z" fill="#6B6B6B"/>
<path d="M1096.56 200.971V199.45H1091.96V200.971H1096.56Z" fill="#6B6B6B"/>
<path d="M1112.95 208.261V206.741H1108.35V208.261H1112.95Z" fill="#6B6B6B"/>
<path d="M1104.76 208.261V206.741H1100.15V208.261H1104.76Z" fill="#6B6B6B"/>
<path d="M1096.56 208.261V206.741H1091.96V208.261H1096.56Z" fill="#6B6B6B"/>
<path d="M1081.98 205.078H1080.82V207.561H1081.98V205.078Z" fill="#6B6B6B"/>
<path d="M1084.11 205.078H1082.95V207.561H1084.11V205.078Z" fill="#6B6B6B"/>
<path d="M970.555 193.767H969.123V197.389H970.555V193.767Z" fill="#6B6B6B"/>
<path d="M984.223 204.855H982.79V208.476H984.223V204.855Z" fill="#6B6B6B"/>
<path d="M988.601 204.855H987.168V208.476H988.601V204.855Z" fill="#6B6B6B"/>
<path d="M992.979 204.855H991.546V208.476H992.979V204.855Z" fill="#6B6B6B"/>
<path d="M997.357 204.855H995.924V208.476H997.357V204.855Z" fill="#6B6B6B"/>
<path d="M984.223 199.856H982.79V201.719H984.223V199.856Z" fill="#6B6B6B"/>
<path d="M988.601 199.856H987.168V201.719H988.601V199.856Z" fill="#6B6B6B"/>
<path d="M992.979 199.856H991.546V201.719H992.979V199.856Z" fill="#6B6B6B"/>
<path d="M997.357 199.856H995.924V201.719H997.357V199.856Z" fill="#6B6B6B"/>
<path d="M1001.74 204.855H1000.3V208.476H1001.74V204.855Z" fill="#6B6B6B"/>
<path d="M1006.11 204.855H1004.68V208.476H1006.11V204.855Z" fill="#6B6B6B"/>
<path d="M1010.49 204.855H1009.06V208.476H1010.49V204.855Z" fill="#6B6B6B"/>
<path d="M990.329 171.775H988.888V167.191L972.609 121.528V119.116L974.4 117.325V115.335H975.833V117.914L974.042 119.705V121.281L990.329 166.944V171.775Z" fill="#6B6B6B"/>
<path d="M1046.46 148.2H1044.9V149.76H1046.46V148.2Z" fill="#6B6B6B"/>
<path d="M1039.01 163.37H1037.45V164.93H1039.01V163.37Z" fill="#6B6B6B"/>
<path d="M1039.01 166.936H1037.45V168.496H1039.01V166.936Z" fill="#6B6B6B"/>
<path d="M1039.01 170.502H1037.45V172.062H1039.01V170.502Z" fill="#6B6B6B"/>
<path d="M1045.47 163.37H1043.91V164.93H1045.47V163.37Z" fill="#6B6B6B"/>
<path d="M1045.47 166.936H1043.91V168.496H1045.47V166.936Z" fill="#6B6B6B"/>
<path d="M1045.47 170.502H1043.91V172.062H1045.47V170.502Z" fill="#6B6B6B"/>
<path d="M1027.07 163.37H1025.51V164.93H1027.07V163.37Z" fill="#6B6B6B"/>
<path d="M1027.07 166.936H1025.51V168.496H1027.07V166.936Z" fill="#6B6B6B"/>
<path d="M1027.07 170.502H1025.51V172.062H1027.07V170.502Z" fill="#6B6B6B"/>
<path d="M1056.11 181.048H1051.57V182.266H1056.11V181.048Z" fill="#6B6B6B"/>
<path d="M1094.22 167.024H1089.68V168.95H1094.22V167.024Z" fill="#6B6B6B"/>
<path d="M1103.59 167.024H1099.05V168.95H1103.59V167.024Z" fill="#6B6B6B"/>
<path d="M1112.95 167.024H1108.41V168.95H1112.95V167.024Z" fill="#6B6B6B"/>
<path d="M1122.32 167.024H1117.78V168.95H1122.32V167.024Z" fill="#6B6B6B"/>
<path d="M1131.69 167.024H1127.14V168.95H1131.69V167.024Z" fill="#6B6B6B"/>
<path d="M1141.05 167.024H1136.5V168.95H1141.05V167.024Z" fill="#6B6B6B"/>
<path d="M1159.78 167.024H1155.23V168.95H1159.78V167.024Z" fill="#6B6B6B"/>
<path d="M1169.15 167.024H1164.6V168.95H1169.15V167.024Z" fill="#6B6B6B"/>
<path d="M1178.51 167.024H1173.96V168.95H1178.51V167.024Z" fill="#6B6B6B"/>
<path d="M1197.24 167.024H1192.69V168.95H1197.24V167.024Z" fill="#6B6B6B"/>
<path d="M1103.59 171.775H1099.05V173.702H1103.59V171.775Z" fill="#6B6B6B"/>
<path d="M1112.95 171.775H1108.41V173.702H1112.95V171.775Z" fill="#6B6B6B"/>
<path d="M1122.32 171.775H1117.78V173.702H1122.32V171.775Z" fill="#6B6B6B"/>
<path d="M1141.05 171.775H1136.5V173.702H1141.05V171.775Z" fill="#6B6B6B"/>
<path d="M1150.42 171.775H1145.87V173.702H1150.42V171.775Z" fill="#6B6B6B"/>
<path d="M1159.78 171.775H1155.23V173.702H1159.78V171.775Z" fill="#6B6B6B"/>
<path d="M1178.51 171.775H1173.96V173.702H1178.51V171.775Z" fill="#6B6B6B"/>
<path d="M1187.88 171.775H1183.33V173.702H1187.88V171.775Z" fill="#6B6B6B"/>
<path d="M1197.24 171.775H1192.69V173.702H1197.24V171.775Z" fill="#6B6B6B"/>
<path d="M1122.32 176.527H1117.78V178.453H1122.32V176.527Z" fill="#6B6B6B"/>
<path d="M1131.69 176.527H1127.14V178.453H1131.69V176.527Z" fill="#6B6B6B"/>
<path d="M1150.42 176.527H1145.87V178.453H1150.42V176.527Z" fill="#6B6B6B"/>
<path d="M1159.78 176.527H1155.23V178.453H1159.78V176.527Z" fill="#6B6B6B"/>
<path d="M1169.15 176.527H1164.6V178.453H1169.15V176.527Z" fill="#6B6B6B"/>
<path d="M1178.51 176.527H1173.96V178.453H1178.51V176.527Z" fill="#6B6B6B"/>
<path d="M1187.88 176.527H1183.33V178.453H1187.88V176.527Z" fill="#6B6B6B"/>
<path d="M1131.69 181.287H1127.14V183.213H1131.69V181.287Z" fill="#6B6B6B"/>
<path d="M1141.05 181.287H1136.5V183.213H1141.05V181.287Z" fill="#6B6B6B"/>
<path d="M1159.78 181.287H1155.23V183.213H1159.78V181.287Z" fill="#6B6B6B"/>
<path d="M1169.15 181.287H1164.6V183.213H1169.15V181.287Z" fill="#6B6B6B"/>
<path d="M1187.88 181.287H1183.33V183.213H1187.88V181.287Z" fill="#6B6B6B"/>
<path d="M1197.24 181.287H1192.69V183.213H1197.24V181.287Z" fill="#6B6B6B"/>
<path d="M1064.19 181.048H1059.65V182.266H1064.19V181.048Z" fill="#6B6B6B"/>
<path d="M1072.26 181.048H1067.72V182.266H1072.26V181.048Z" fill="#6B6B6B"/>
<path d="M1080.34 181.048H1075.8V182.266H1080.34V181.048Z" fill="#6B6B6B"/>
<path d="M1088.42 181.048H1083.88V182.266H1088.42V181.048Z" fill="#6B6B6B"/>
<path d="M1104.57 181.048H1100.03V182.266H1104.57V181.048Z" fill="#6B6B6B"/>
<path d="M1064.19 184.694H1059.65V185.911H1064.19V184.694Z" fill="#6B6B6B"/>
<path d="M1080.34 184.694H1075.8V185.911H1080.34V184.694Z" fill="#6B6B6B"/>
<path d="M1088.42 184.694H1083.88V185.911H1088.42V184.694Z" fill="#6B6B6B"/>
<path d="M1096.49 184.694H1091.95V185.911H1096.49V184.694Z" fill="#6B6B6B"/>
<path d="M1104.57 184.694H1100.03V185.911H1104.57V184.694Z" fill="#6B6B6B"/>
<path d="M1056.11 188.331H1051.57V189.549H1056.11V188.331Z" fill="#6B6B6B"/>
<path d="M1064.19 188.331H1059.65V189.549H1064.19V188.331Z" fill="#6B6B6B"/>
<path d="M1072.26 188.331H1067.72V189.549H1072.26V188.331Z" fill="#6B6B6B"/>
<path d="M1088.42 188.331H1083.88V189.549H1088.42V188.331Z" fill="#6B6B6B"/>
<path d="M1096.49 188.331H1091.95V189.549H1096.49V188.331Z" fill="#6B6B6B"/>
<path d="M1126.01 194.627H1124.58V210.251H1126.01V194.627Z" fill="#6B6B6B"/>
<path d="M1130.12 194.627H1128.69V210.251H1130.12V194.627Z" fill="#6B6B6B"/>
<path d="M1134.24 194.627H1132.81V210.251H1134.24V194.627Z" fill="#6B6B6B"/>
<path d="M1138.36 194.627H1136.92V210.251H1138.36V194.627Z" fill="#6B6B6B"/>
<path d="M1142.47 194.627H1141.04V210.251H1142.47V194.627Z" fill="#6B6B6B"/>
<path d="M1146.59 194.627H1145.15V210.251H1146.59V194.627Z" fill="#6B6B6B"/>
<path d="M1150.7 194.627H1149.27V210.251H1150.7V194.627Z" fill="#6B6B6B"/>
<path d="M1154.82 194.627H1153.38V210.251H1154.82V194.627Z" fill="#6B6B6B"/>
<path d="M1158.93 194.627H1157.5V210.251H1158.93V194.627Z" fill="#6B6B6B"/>
<path d="M1163.05 194.627H1161.62V210.251H1163.05V194.627Z" fill="#6B6B6B"/>
<path d="M1167.16 205.078H1165.72V210.251H1167.16V205.078Z" fill="#6B6B6B"/>
<path d="M1171.27 205.078H1169.84V210.251H1171.27V205.078Z" fill="#6B6B6B"/>
<path d="M1175.39 205.078H1173.95V210.251H1175.39V205.078Z" fill="#6B6B6B"/>
<path d="M1172.35 191.945H1170.55V195.327H1172.35V191.945Z" fill="#6B6B6B"/>
<path d="M1177.13 191.945H1175.33V195.327H1177.13V191.945Z" fill="#6B6B6B"/>
<path d="M1181.91 191.945H1180.11V195.327H1181.91V191.945Z" fill="#6B6B6B"/>
<path d="M1186.68 191.945H1184.88V195.327H1186.68V191.945Z" fill="#6B6B6B"/>
<path d="M1191.46 191.945H1189.66V195.327H1191.46V191.945Z" fill="#6B6B6B"/>
<path d="M1198.97 203.048H1187.87V204.481H1198.97V203.048Z" fill="#6B6B6B"/>
<path d="M1222.16 203.701H1203.61V205.133H1222.16V203.701Z" fill="#6B6B6B"/>
</g>
</svg>
