<svg width="563" class="city-2" height="495" viewBox="0 0 563 495" fill="none" xmlns="http://www.w3.org/2000/svg">
<path d="M282.391 81.7155V108.454" stroke="#6B6B6B" />
<path d="M279.867 80.9291V108.454" stroke="#6B6B6B" />
<path d="M277.344 80.5359V108.454" stroke="#6B6B6B" />
<path d="M274.399 80.1426V108.454" stroke="#6B6B6B" />
<path d="M271.035 80.1426V108.061" stroke="#6B6B6B" />
<path d="M266.828 80.1426V108.847" stroke="#6B6B6B" />
<path d="M261.781 79.7494V109.24" stroke="#6B6B6B" />
<path d="M257.575 79.7494V109.634" stroke="#6B6B6B" />
<path d="M251.686 79.7494V110.813" stroke="#6B6B6B" />
<path d="M246.218 79.7494V113.173" stroke="#6B6B6B" />
<path d="M239.488 79.7494V145.416" stroke="#6B6B6B" />
<path d="M232.759 79.7494V146.596" stroke="#6B6B6B" />
<path d="M226.029 79.7494V146.596" stroke="#6B6B6B" />
<path d="M218.458 79.7494V146.596" stroke="#6B6B6B" />
<path d="M210.887 79.7494V146.596" stroke="#6B6B6B" />
<path d="M203.316 79.7494V146.596" stroke="#6B6B6B" />
<path d="M194.903 79.7494V149.741" stroke="#6B6B6B" />
<path d="M186.911 80.1426V397.466" stroke="#6B6B6B" />
<path d="M178.92 80.5359V397.466" stroke="#6B6B6B" />
<path d="M170.508 80.5359V248.045" stroke="#6B6B6B" />
<path d="M162.095 81.3223V248.045" stroke="#6B6B6B" />
<path d="M153.683 81.7155V248.045" stroke="#6B6B6B" />
<path d="M145.271 82.5018V247.652" stroke="#6B6B6B" />
<path d="M137.699 82.8951V240.181" stroke="#6B6B6B" />
<path d="M129.708 83.6815V239.787" stroke="#6B6B6B" />
<path d="M122.137 83.6815V246.865" stroke="#6B6B6B" />
<path d="M114.566 84.8612V240.181" stroke="#6B6B6B" />
<path d="M107.415 85.2543V240.574" stroke="#6B6B6B" />
<path d="M100.685 86.0408V240.574" stroke="#6B6B6B" />
<path d="M93.9556 87.2205V246.472" stroke="#6B6B6B" />
<path d="M88.0669 87.6136V246.472" stroke="#6B6B6B" />
<path d="M82.1783 88.0068V246.472" stroke="#6B6B6B" />
<path d="M76.7103 88.4001V246.472" stroke="#6B6B6B" />
<path d="M72.0836 89.5797V246.472" stroke="#6B6B6B" />
<path d="M67.8774 89.973V246.472" stroke="#6B6B6B" />
<path d="M63.6713 91.1526V246.472" stroke="#6B6B6B" />
<path d="M60.3063 91.9391V246.472" stroke="#6B6B6B" />
<path d="M56.5208 92.3322V246.472" stroke="#6B6B6B" />
<path d="M54.4177 93.5118V246.472" stroke="#6B6B6B" />
<path d="M52.3147 93.905V246.472" stroke="#6B6B6B" />
<path d="M50.2115 94.6915V246.472" stroke="#6B6B6B" />
<path d="M192.38 397.859L173.452 397.073" stroke="#6B6B6B" />
<path d="M192.38 290.905L173.452 290.119" stroke="#6B6B6B" />
<path d="M192.38 294.837L173.452 294.051" stroke="#6B6B6B" />
<path d="M192.38 344.775L173.452 343.989" stroke="#6B6B6B" />
<path d="M192.38 348.707L173.452 347.921" stroke="#6B6B6B" />
<path d="M141.485 240.967C155.399 240.991 173.031 240.861 192.8 240.794" stroke="#6B6B6B" />
<path d="M141.485 240.983L192.8 240.81M48.5292 238.623C48.5292 238.623 53.341 239.233 61.9889 239.41C68.685 239.536 69.4464 240.53 124.488 240.806L48.5292 238.623Z" stroke="#6B6B6B" />
<path d="M48.5292 235.01C48.5292 235.01 52.9204 235.293 61.5682 235.462C69.909 235.627 73.0637 237.074 192.8 237.176" stroke="#6B6B6B" />
<path d="M48.5292 191.438C48.5292 191.438 52.9456 190.317 61.5682 189.692C70.1909 189.067 69.3496 189.173 192.8 186.92" stroke="#6B6B6B" />
<path d="M48.5292 187.824C48.5292 187.824 52.9456 186.703 61.5682 186.078C70.1909 185.453 68.7187 184.379 192.8 183.306" stroke="#6B6B6B" />
<path d="M48.5292 143.45C48.5292 143.45 52.9456 142.074 61.5682 141.091C70.1909 140.108 123.819 133.62 247.901 133.62" stroke="#6B6B6B" />
<path d="M48.5292 139.518C48.5292 139.518 52.9456 138.142 61.5682 137.159C70.1909 136.176 123.819 129.688 247.901 129.688" stroke="#6B6B6B" />
<path d="M58.6239 443.814L46.0349 444.53" stroke="#6B6B6B" />
<path d="M58.6239 440.425L46.0349 441.121" stroke="#6B6B6B" />
<path d="M58.6239 431.77L46.0349 432.411" stroke="#6B6B6B" />
<path d="M58.6239 428.38L46.0349 428.998" stroke="#6B6B6B" />
<path d="M58.6239 420.099L46.0349 420.666" stroke="#6B6B6B" />
<path d="M58.6239 416.71L46.0349 417.252" stroke="#6B6B6B" />
<path d="M58.6239 408.429L46.0349 408.92" stroke="#6B6B6B" />
<path d="M58.6239 405.043L46.0349 405.515" stroke="#6B6B6B" />
<path d="M58.6239 396.762L46.0349 397.175" stroke="#6B6B6B" />
<path d="M58.6239 393.373L46.0349 393.766" stroke="#6B6B6B" />
<path d="M58.6239 385.092L46.0349 385.43" stroke="#6B6B6B" />
<path d="M58.6239 381.702L46.0349 382.021" stroke="#6B6B6B" />
<path d="M58.6239 373.043L46.0349 373.307" stroke="#6B6B6B" />
<path d="M58.6239 369.658L46.0349 369.898" stroke="#6B6B6B" />
<path d="M58.6239 361.377L46.0349 361.565" stroke="#6B6B6B" />
<path d="M58.6239 357.987L46.0349 358.152" stroke="#6B6B6B" />
<path d="M58.6239 349.706L46.0349 349.82" stroke="#6B6B6B" />
<path d="M58.6239 346.321L46.0349 346.411" stroke="#6B6B6B" />
<path d="M58.6239 337.662L46.0349 337.697" stroke="#6B6B6B" />
<path d="M58.6239 334.273H46.0349" stroke="#6B6B6B" />
<path d="M58.6239 325.991L46.0349 325.952" stroke="#6B6B6B" />
<path d="M58.6239 322.601L46.0349 322.539" stroke="#6B6B6B" />
<path d="M58.6239 313.57L46.0349 313.448" stroke="#6B6B6B" />
<path d="M58.6239 310.18L46.0349 310.039" stroke="#6B6B6B" />
<path d="M58.6239 302.654L46.0349 302.466" stroke="#6B6B6B" />
<path d="M58.6239 299.265L46.0349 299.052" stroke="#6B6B6B" />
<path d="M58.6239 290.606L46.0349 290.339" stroke="#6B6B6B" />
<path d="M58.6239 287.221L46.0349 286.93" stroke="#6B6B6B" />
<path d="M58.6239 278.562L46.0349 278.216" stroke="#6B6B6B" />
<path d="M58.6239 275.173L46.0349 274.807" stroke="#6B6B6B" />
<path d="M58.6239 267.269L46.0349 266.852" stroke="#6B6B6B" />
<path d="M58.6239 263.879L46.0349 263.439" stroke="#6B6B6B" />
<path d="M46.0055 444.663L17.0461 440.653" stroke="#6B6B6B" />
<path d="M46.0055 441.25L17.0461 437.318" stroke="#6B6B6B" />
<path d="M46.0055 432.533L17.0461 428.758" stroke="#6B6B6B" />
<path d="M46.0055 429.108L17.0461 425.4" stroke="#6B6B6B" />
<path d="M46.0055 420.78L17.0461 417.241" stroke="#6B6B6B" />
<path d="M46.0055 417.367L17.0461 413.891" stroke="#6B6B6B" />
<path d="M46.0055 409.027L17.0461 405.716" stroke="#6B6B6B" />
<path d="M46.0055 405.613L17.0461 402.369" stroke="#6B6B6B" />
<path d="M46.0055 397.258L17.0461 394.175" stroke="#6B6B6B" />
<path d="M46.0055 393.86L17.0461 390.844" stroke="#6B6B6B" />
<path d="M46.0055 385.52L17.0461 382.669" stroke="#6B6B6B" />
<path d="M46.0055 382.107L17.0461 379.323" stroke="#6B6B6B" />
<path d="M46.0055 373.385L17.0461 370.775" stroke="#6B6B6B" />
<path d="M46.0055 369.972L17.0461 367.428" stroke="#6B6B6B" />
<path d="M46.0055 361.632L17.0461 359.25" stroke="#6B6B6B" />
<path d="M46.0055 358.219L17.0461 355.903" stroke="#6B6B6B" />
<path d="M46.0055 349.879L17.0461 347.713" stroke="#6B6B6B" />
<path d="M46.0055 346.466L17.0461 344.382" stroke="#6B6B6B" />
<path d="M46.0055 337.749L17.0461 335.834" stroke="#6B6B6B" />
<path d="M46.0055 334.343L17.0461 332.495" stroke="#6B6B6B" />
<path d="M46.0055 325.995L17.0461 324.312" stroke="#6B6B6B" />
<path d="M46.0055 322.582L17.0461 320.974" stroke="#6B6B6B" />
<path d="M46.0055 313.483L17.0461 312.048" stroke="#6B6B6B" />
<path d="M46.0055 310.07L17.0461 308.702" stroke="#6B6B6B" />
<path d="M46.0055 302.493L17.0461 301.27" stroke="#6B6B6B" />
<path d="M46.0055 299.076L17.0461 297.92" stroke="#6B6B6B" />
<path d="M46.0055 290.355L17.0461 289.372" stroke="#6B6B6B" />
<path d="M46.0055 286.942L17.0461 286.025" stroke="#6B6B6B" />
<path d="M46.0055 278.224L17.0461 277.481" stroke="#6B6B6B" />
<path d="M46.0055 274.811L17.0461 274.134" stroke="#6B6B6B" />
<path d="M46.0055 266.848L17.0461 266.317" stroke="#6B6B6B" />
<path d="M46.0055 263.435L17.0461 262.979" stroke="#6B6B6B" />
<path d="M97.7411 452.516L67.8774 448.356" stroke="#6B6B6B" />
<path d="M97.7411 448.977L67.8774 444.887" stroke="#6B6B6B" />
<path d="M97.7411 439.933L67.8774 436.001" stroke="#6B6B6B" />
<path d="M97.7411 436.394L67.8774 432.548" stroke="#6B6B6B" />
<path d="M97.7411 427.743L67.8774 424.071" stroke="#6B6B6B" />
<path d="M97.7411 424.205L67.8774 420.599" stroke="#6B6B6B" />
<path d="M97.7411 415.554L67.8774 412.117" stroke="#6B6B6B" />
<path d="M97.7411 412.015L67.8774 408.649" stroke="#6B6B6B" />
<path d="M97.7411 403.364L67.8774 400.167" stroke="#6B6B6B" />
<path d="M97.7411 399.825L67.8774 396.68" stroke="#6B6B6B" />
<path d="M97.7411 391.174L67.8774 388.218" stroke="#6B6B6B" />
<path d="M97.7411 387.636L67.8774 384.749" stroke="#6B6B6B" />
<path d="M97.7411 378.592L67.8774 375.882" stroke="#6B6B6B" />
<path d="M97.7411 375.053L67.8774 372.414" stroke="#6B6B6B" />
<path d="M97.7411 366.402L67.8774 363.933" stroke="#6B6B6B" />
<path d="M97.7411 362.863L67.8774 360.461" stroke="#6B6B6B" />
<path d="M97.7411 354.212L67.8774 351.983" stroke="#6B6B6B" />
<path d="M97.7411 350.674L67.8774 348.511" stroke="#6B6B6B" />
<path d="M97.7411 341.63L67.8774 339.664" stroke="#6B6B6B" />
<path d="M97.7411 338.091L67.8774 336.176" stroke="#6B6B6B" />
<path d="M97.7411 329.44L67.8774 327.694" stroke="#6B6B6B" />
<path d="M97.7411 325.901L67.8774 324.226" stroke="#6B6B6B" />
<path d="M97.7411 316.464L67.8774 314.974" stroke="#6B6B6B" />
<path d="M97.7411 312.925L67.8774 311.506" stroke="#6B6B6B" />
<path d="M97.7411 305.061L67.8774 303.795" stroke="#6B6B6B" />
<path d="M97.7411 301.522L67.8774 300.342" stroke="#6B6B6B" />
<path d="M97.7411 292.478L67.8774 291.459" stroke="#6B6B6B" />
<path d="M97.7411 288.939L67.8774 287.987" stroke="#6B6B6B" />
<path d="M97.7411 279.895L67.8774 279.109" stroke="#6B6B6B" />
<path d="M97.7411 276.356L67.8774 275.652" stroke="#6B6B6B" />
<path d="M97.7411 268.099L67.8774 267.556" stroke="#6B6B6B" />
<path d="M97.7411 264.56L67.8774 264.088" stroke="#6B6B6B" />
<path d="M136.858 265.739L115.407 265.346" stroke="#6B6B6B" />
<path d="M136.858 266.919L115.407 266.526" stroke="#6B6B6B" />
<path d="M136.858 278.322L115.407 277.724" stroke="#6B6B6B" />
<path d="M136.858 279.502L115.407 278.888" stroke="#6B6B6B" />
<path d="M136.858 290.512L115.407 289.725" stroke="#6B6B6B" />
<path d="M136.858 291.692L115.407 290.881" stroke="#6B6B6B" />
<path d="M136.858 302.702L115.407 301.714" stroke="#6B6B6B" />
<path d="M136.858 303.881L115.407 302.874" stroke="#6B6B6B" />
<path d="M136.858 315.284L115.407 314.105" stroke="#6B6B6B" />
<path d="M136.858 316.464L115.407 315.253" stroke="#6B6B6B" />
<path d="M136.858 327.474L115.407 326.086" stroke="#6B6B6B" />
<path d="M136.858 328.654L115.407 327.246" stroke="#6B6B6B" />
<path d="M136.858 340.057L115.407 338.484" stroke="#6B6B6B" />
<path d="M136.858 341.236L115.407 339.628" stroke="#6B6B6B" />
<path d="M136.858 352.64L115.407 350.847" stroke="#6B6B6B" />
<path d="M136.858 353.819L115.407 352.006" stroke="#6B6B6B" />
<path d="M136.858 364.829L115.407 362.839" stroke="#6B6B6B" />
<path d="M136.858 366.009L115.407 364" stroke="#6B6B6B" />
<path d="M136.858 377.412L115.407 375.222" stroke="#6B6B6B" />
<path d="M136.858 378.592L115.407 376.382" stroke="#6B6B6B" />
<path d="M136.858 389.602L115.407 387.215" stroke="#6B6B6B" />
<path d="M136.858 390.781L115.407 388.375" stroke="#6B6B6B" />
<path d="M136.858 401.398L115.407 398.819" stroke="#6B6B6B" />
<path d="M136.858 402.578L115.407 399.979" stroke="#6B6B6B" />
<path d="M136.858 413.981L115.407 411.201" stroke="#6B6B6B" />
<path d="M136.858 415.161L115.407 412.361" stroke="#6B6B6B" />
<path d="M136.858 426.564L115.407 423.579" stroke="#6B6B6B" />
<path d="M136.858 427.743L115.407 424.739" stroke="#6B6B6B" />
<path d="M136.858 439.147L115.407 435.962" stroke="#6B6B6B" />
<path d="M136.858 440.326L115.407 437.122" stroke="#6B6B6B" />
<path d="M136.858 451.336L115.407 447.955" stroke="#6B6B6B" />
<path d="M136.858 452.516L115.407 449.115" stroke="#6B6B6B" />
<path d="M152.842 253.943V459.2" stroke="#6B6B6B" />
<path d="M156.627 253.943V458.414" stroke="#6B6B6B" />
<path d="M30.8633 253.55V452.909" stroke="#6B6B6B" />
<path d="M32.9663 253.55V452.909" stroke="#6B6B6B" />
<path d="M81.337 254.729V459.987" stroke="#6B6B6B" />
<path d="M83.4402 254.729V459.987" stroke="#6B6B6B" />
<path d="M199.963 438.006L228.287 437.613" stroke="#6B6B6B" />
<path d="M199.963 434.121L228.287 433.728" stroke="#6B6B6B" />
<path d="M199.963 410.029L228.287 409.663" stroke="#6B6B6B" />
<path d="M199.963 406.144L228.287 405.782" stroke="#6B6B6B" />
<path d="M199.963 381.663L228.287 381.321" stroke="#6B6B6B" />
<path d="M199.963 377.778L228.287 377.44" stroke="#6B6B6B" />
<path d="M199.963 354.464L228.287 354.146" stroke="#6B6B6B" />
<path d="M199.963 350.579L228.287 350.265" stroke="#6B6B6B" />
<path d="M199.963 326.479L228.287 326.184" stroke="#6B6B6B" />
<path d="M199.963 322.602L228.287 322.311" stroke="#6B6B6B" />
<path d="M199.963 297.342L228.287 297.071" stroke="#6B6B6B" />
<path d="M199.963 293.449L228.287 293.182" stroke="#6B6B6B" />
<path d="M199.963 269.365L228.287 269.117" stroke="#6B6B6B" />
<path d="M199.963 265.48L228.287 265.236" stroke="#6B6B6B" />
<path d="M199.963 240.613L228.287 240.389" stroke="#6B6B6B" />
<path d="M199.963 236.728L228.287 236.508" stroke="#6B6B6B" />
<path d="M199.963 212.636L228.279 212.447" stroke="#6B6B6B" />
<path d="M199.963 208.751L228.287 208.554" stroke="#6B6B6B" />
<path d="M199.963 185.048L228.287 184.871" stroke="#6B6B6B" />
<path d="M199.963 181.163L228.279 180.99" stroke="#6B6B6B" />
<path d="M192.8 429.108L197.797 430.508" stroke="#6B6B6B" />
<path d="M192.8 425.392L197.797 426.764" stroke="#6B6B6B" />
<path d="M192.8 402.279L197.797 403.486" stroke="#6B6B6B" />
<path d="M192.8 398.551L197.797 399.731" stroke="#6B6B6B" />
<path d="M192.8 375.065L197.797 376.079" stroke="#6B6B6B" />
<path d="M192.8 371.337L197.797 372.324" stroke="#6B6B6B" />
<path d="M192.8 348.971L197.797 349.801" stroke="#6B6B6B" />
<path d="M192.8 345.243L197.797 346.03" stroke="#6B6B6B" />
<path d="M192.8 322.13L197.797 322.771" stroke="#6B6B6B" />
<path d="M192.8 318.402L197.797 319.016" stroke="#6B6B6B" />
<path d="M192.8 294.169L197.797 294.609" stroke="#6B6B6B" />
<path d="M192.8 290.441L197.797 290.858" stroke="#6B6B6B" />
<path d="M192.8 267.328L197.797 267.58" stroke="#6B6B6B" />
<path d="M192.8 263.6L197.797 263.824" stroke="#6B6B6B" />
<path d="M192.8 239.74L197.797 239.796" stroke="#6B6B6B" />
<path d="M192.8 236.012L197.797 236.041" stroke="#6B6B6B" />
<path d="M192.8 212.899L197.797 212.766" stroke="#6B6B6B" />
<path d="M192.8 209.172L197.797 209.01" stroke="#6B6B6B" />
<path d="M192.8 186.432L197.797 186.11" stroke="#6B6B6B" />
<path d="M192.8 182.704L197.797 182.354" stroke="#6B6B6B" />
<path d="M228.994 437.589L242.008 441.486" stroke="#6B6B6B" />
<path d="M228.994 433.701L242.008 437.531" stroke="#6B6B6B" />
<path d="M228.994 409.597L242.008 413.029" stroke="#6B6B6B" />
<path d="M228.994 405.712L242.008 409.078" stroke="#6B6B6B" />
<path d="M228.994 381.218L242.008 384.179" stroke="#6B6B6B" />
<path d="M228.994 377.329L242.008 380.227" stroke="#6B6B6B" />
<path d="M228.994 354.004L242.008 356.517" stroke="#6B6B6B" />
<path d="M228.994 350.119L242.008 352.565" stroke="#6B6B6B" />
<path d="M228.994 326.015L242.008 328.064" stroke="#6B6B6B" />
<path d="M228.994 322.126L242.008 324.092" stroke="#6B6B6B" />
<path d="M228.994 296.858L242.008 298.431" stroke="#6B6B6B" />
<path d="M228.994 292.969L242.008 294.467" stroke="#6B6B6B" />
<path d="M228.994 268.869L242.008 269.97" stroke="#6B6B6B" />
<path d="M228.994 264.98L242.008 266.019" stroke="#6B6B6B" />
<path d="M228.994 240.102L242.008 240.727" stroke="#6B6B6B" />
<path d="M228.994 236.213L242.008 236.771" stroke="#6B6B6B" />
<path d="M228.994 212.109L242.008 212.27" stroke="#6B6B6B" />
<path d="M228.994 208.224L242.008 208.322" stroke="#6B6B6B" />
<path d="M228.994 184.509L242.008 184.214" stroke="#6B6B6B" />
<path d="M228.994 180.62L242.008 180.259" stroke="#6B6B6B" />
<path d="M257.995 440.719L300.478 434.428" stroke="#6B6B6B" />
<path d="M257.995 436.787L300.478 430.606" stroke="#6B6B6B" />
<path d="M257.995 412.408L300.478 406.903" stroke="#6B6B6B" />
<path d="M257.995 408.476L300.478 403.093" stroke="#6B6B6B" />
<path d="M257.995 383.704L300.478 379.02" stroke="#6B6B6B" />
<path d="M257.995 379.771L300.478 375.198" stroke="#6B6B6B" />
<path d="M257.995 356.178L300.478 352.27" stroke="#6B6B6B" />
<path d="M257.995 352.246L300.478 348.448" stroke="#6B6B6B" />
<path d="M257.995 327.867L300.478 324.757" stroke="#6B6B6B" />
<path d="M257.995 323.935L300.478 320.935" stroke="#6B6B6B" />
<path d="M257.995 298.376L300.478 296.099" stroke="#6B6B6B" />
<path d="M257.995 294.444L300.478 292.277" stroke="#6B6B6B" />
<path d="M257.995 270.065L300.478 268.586" stroke="#6B6B6B" />
<path d="M257.995 266.133L300.478 264.764" stroke="#6B6B6B" />
<path d="M257.995 240.967L300.478 240.306" stroke="#6B6B6B" />
<path d="M257.995 237.035L300.478 236.488" stroke="#6B6B6B" />
<path d="M257.995 212.656L300.478 212.793" stroke="#6B6B6B" />
<path d="M257.995 208.723L300.478 208.975" stroke="#6B6B6B" />
<path d="M257.995 184.737L300.478 185.665" stroke="#6B6B6B" />
<path d="M257.995 180.805L300.478 181.843" stroke="#6B6B6B" />
<path d="M307.203 181.607L300.894 181.851" stroke="#6B6B6B" />
<path d="M307.628 185.131L301.319 185.351" stroke="#6B6B6B" />
<path d="M307.203 209.117L300.894 209.148" stroke="#6B6B6B" />
<path d="M307.628 212.656H301.319" stroke="#6B6B6B" />
<path d="M307.203 236.63L300.894 236.449" stroke="#6B6B6B" />
<path d="M307.628 240.181L301.319 239.972" stroke="#6B6B6B" />
<path d="M307.203 265.319L300.894 264.925" stroke="#6B6B6B" />
<path d="M307.628 268.885L301.319 268.456" stroke="#6B6B6B" />
<path d="M307.203 292.828L300.894 292.214" stroke="#6B6B6B" />
<path d="M307.628 296.41L301.319 295.769" stroke="#6B6B6B" />
<path d="M307.203 320.341L300.894 319.515" stroke="#6B6B6B" />
<path d="M307.628 323.935L301.319 323.082" stroke="#6B6B6B" />
<path d="M394.789 414V340" stroke="#6B6B6B" />
<path d="M396.789 414L396.789 339" stroke="#6B6B6B" />
<path d="M410.679 415.554H373.665" stroke="#6B6B6B" />
<path d="M410.679 413.588H373.665" stroke="#6B6B6B" />
<path d="M410.679 397.859H373.665" stroke="#6B6B6B" />
<path d="M410.679 395.893H373.665" stroke="#6B6B6B" />
<path d="M410.679 382.131H373.665" stroke="#6B6B6B" />
<path d="M410.679 380.164H373.665" stroke="#6B6B6B" />
<path d="M410.679 366.402H373.665" stroke="#6B6B6B" />
<path d="M410.679 364.436H373.665" stroke="#6B6B6B" />
<path d="M410.789 351L378.789 351" stroke="#6B6B6B" />
<path d="M410.789 349L381.789 349" stroke="#6B6B6B" />
<path d="M410.789 335L401.789 335" stroke="#6B6B6B" />
<path d="M410.789 333H402.789" stroke="#6B6B6B" />
<path d="M381.789 270H373.789" stroke="#6B6B6B" />
<path d="M382.789 268H373.789" stroke="#6B6B6B" />
<path d="M391.789 255H373.789" stroke="#6B6B6B" />
<path d="M392.789 253H373.789" stroke="#6B6B6B" />
<path d="M399.679 239.001H373.665" stroke="#6B6B6B" />
<path d="M400.679 237.035H373.665" stroke="#6B6B6B" />
<path d="M404.789 223H373.789" stroke="#6B6B6B" />
<path d="M405.789 221H373.789" stroke="#6B6B6B" />
<path d="M378.789 414L378.789 351" stroke="#6B6B6B" />
<path d="M380.789 414V350" stroke="#6B6B6B" />
<path d="M394.789 249V208" stroke="#6B6B6B" />
<path d="M396.789 245L396.789 207" stroke="#6B6B6B" />
<path d="M378.789 273L378.789 208" stroke="#6B6B6B" />
<path d="M380.789 270L380.789 208" stroke="#6B6B6B" />
<path d="M395.537 432.069V415.947" stroke="#6B6B6B" />
<path d="M396.798 432.069V415.947" stroke="#6B6B6B" />
<path d="M379.974 434.428V415.554" stroke="#6B6B6B" />
<path d="M381.236 434.428V415.554" stroke="#6B6B6B" />
<path d="M483.025 449.37V432.462" stroke="#6B6B6B" />
<path d="M484.286 449.37V432.462" stroke="#6B6B6B" />
<path d="M471.668 449.37V432.462" stroke="#6B6B6B" />
<path d="M472.93 449.37V432.462" stroke="#6B6B6B" />
<path d="M461.573 451.336V434.428" stroke="#6B6B6B" />
<path d="M462.835 451.336V434.428" stroke="#6B6B6B" />
<path d="M442.225 428.137L419.512 426.171" stroke="#6B6B6B" />
<path d="M494.802 420.272C494.802 420.272 450.805 419.014 442.225 428.137" stroke="#6B6B6B" />
<path d="M430.789 428L430.789 300" stroke="#6B6B6B" />
<path d="M432.789 428L432.789 297" stroke="#6B6B6B" />
<path d="M430.789 160L430.789 77.9999" stroke="#6B6B6B" />
<path d="M432.789 158L432.789 77.9999" stroke="#6B6B6B" />
<path d="M482.74 420V164.5M482.74 85.9999V135" stroke="#6B6B6B" />
<path d="M484.664 420V164.5M484.664 85.9999V135.5" stroke="#6B6B6B" />
<path d="M470.234 421V168M470.234 84.9999V135" stroke="#6B6B6B" />
<path d="M472.158 421V166.5M472.158 84.9999V135" stroke="#6B6B6B" />
<path d="M460.062 422.693L460.058 181M460.057 83.9999L460.058 137" stroke="#6B6B6B" />
<path d="M461.807 422.693L461.803 177M461.802 83.9999L461.803 136.5" stroke="#6B6B6B" />
<path d="M446.185 426V261.5M446.185 79.9999V144" stroke="#6B6B6B" />
<path d="M448.109 426L448.109 253.5M448.109 80.9999L448.109 142.5" stroke="#6B6B6B" />
<path d="M451.957 424C451.957 348.052 451.957 291.079 451.957 231.5M451.957 81.9999C451.957 102.772 451.957 122.125 451.957 140.5" stroke="#6B6B6B" />
<path d="M453.881 424V219M453.881 81.9999V139.5" stroke="#6B6B6B" />
<path d="M453.161 453.302V437.181" stroke="#6B6B6B" />
<path d="M454.423 453.302V436.394" stroke="#6B6B6B" />
<path d="M444.328 457.234V440.326" stroke="#6B6B6B" />
<path d="M445.59 457.234V440.326" stroke="#6B6B6B" />
<path d="M495.63 230.586C495.63 230.586 479.546 230.653 464.926 230.527C459.757 230.483 455.458 230.41 452.058 230.335" stroke="#6B6B6B" />
<path d="M495.63 224.2C495.63 224.2 479.546 224.267 464.925 224.141C460.363 224.102 456.477 224.041 453.289 223.975" stroke="#6B6B6B" />
<path d="M419.789 182.5L409.838 182.96" stroke="#6B6B6B" />
<path d="M419.512 176.094L411.099 176.547" stroke="#6B6B6B" />
<path d="M495.63 181.269C495.63 181.269 479.546 181.521 464.925 181.045C463.105 180.986 461.393 180.914 459.789 180.832" stroke="#6B6B6B" />
<path d="M495.63 174.966C495.63 174.966 479.546 175.218 464.925 174.742C464.37 174.724 463.825 174.704 463.289 174.684M420.761 173.393L423.789 173.331" stroke="#6B6B6B" />
<path d="M419.512 126L411.099 126.452" stroke="#6B6B6B" />
<path d="M495.63 126.988C495.63 126.988 479.546 127.24 464.925 126.764C450.305 126.288 442.633 122.546 442.633 122.546L420.761 122.998" stroke="#6B6B6B" />
<path d="M420.769 134L409.833 135.073" stroke="#6B6B6B" />
<path d="M495.618 134.09C495.618 134.09 479.533 134.574 464.913 133.661C450.292 132.749 442.62 130.229 442.62 130.229L420.748 131.086" stroke="#6B6B6B" />
<path d="M420.387 367.963L409.451 366.783" stroke="#6B6B6B" />
<path d="M420.328 374.844L410.654 373.712" stroke="#6B6B6B" />
<path d="M495.643 371.997C495.643 371.997 479.563 371.471 464.938 372.465C450.313 373.46 442.645 376.209 442.645 376.209L420.727 374.707" stroke="#6B6B6B" />
<path d="M495.643 377.742C495.643 377.742 479.563 377.215 464.938 378.21C450.313 379.205 442.645 382.929 442.645 382.929L420.807 381.03" stroke="#6B6B6B" />
<path d="M420.789 320L415.789 319.633" stroke="#6B6B6B" />
<path d="M419.289 325.5L411.789 325" stroke="#6B6B6B" />
<path d="M495.643 322.441C495.643 322.441 479.567 322.075 464.963 322.767C450.359 323.459 442.671 325.37 442.671 325.37L420.757 324.324" stroke="#6B6B6B" />
<path d="M495.643 329.444C495.643 329.444 479.567 329.078 464.963 329.77C450.36 330.462 442.671 332.373 442.671 332.373L420.799 331.72" stroke="#6B6B6B" />
<path d="M495.643 272.503C495.643 272.503 479.567 272.137 464.963 272.829C450.359 273.521 442.671 275.432 442.671 275.432L441.789 275.39" stroke="#6B6B6B" />
<path d="M495.643 279.506C495.643 279.506 479.567 279.14 464.963 279.832C450.36 280.524 442.671 282.435 442.671 282.435L439.289 282.334" stroke="#6B6B6B" />
<path d="M407.314 79.9205C407.314 79.9205 415.726 78.9374 419.091 77.168" stroke="#6B6B6B" />
<path d="M439.281 57.114V60.6529H440.963V62.2258" stroke="#6B6B6B" />
<path d="M421.315 91.3237C421.315 91.3237 415.216 93.3881 411.641 93.683" stroke="#6B6B6B" />
<path d="M497.026 86.2119C497.026 86.2119 476.205 86.1136 466.321 85.0323C456.436 83.951 446.657 81.1002 444.028 77.9545C439.086 77.5612 421.736 79.5273 421.736 79.5273" stroke="#6B6B6B" />
<path d="M429.606 456.448V439.54" stroke="#6B6B6B" />
<path d="M430.868 456.448V439.54" stroke="#6B6B6B" />
<path d="M343.38 157.999V451.73" stroke="#6B6B6B" />
<path d="M344.642 157.606V451.336" stroke="#6B6B6B" />
<path d="M372.823 183.165L341.277 182.642" stroke="#6B6B6B" />
<path d="M372.823 187.097L341.277 186.664" stroke="#6B6B6B" />
<path d="M372.823 209.117L341.277 209.199" stroke="#6B6B6B" />
<path d="M372.823 213.049L341.277 213.226" stroke="#6B6B6B" />
<path d="M372.823 235.855L341.277 236.567" stroke="#6B6B6B" />
<path d="M372.823 239.787L341.277 240.574" stroke="#6B6B6B" />
<path d="M372.823 262.2L341.277 263.53" stroke="#6B6B6B" />
<path d="M372.823 266.133L341.277 267.556" stroke="#6B6B6B" />
<path d="M372.823 288.153L341.277 290.091" stroke="#6B6B6B" />
<path d="M372.823 292.085L341.277 294.114" stroke="#6B6B6B" />
<path d="M372.823 314.498L341.277 317.054" stroke="#6B6B6B" />
<path d="M372.823 318.43L341.277 321.08" stroke="#6B6B6B" />
<path d="M372.823 340.45L341.277 343.615" stroke="#6B6B6B" />
<path d="M372.823 344.382L341.277 347.638" stroke="#6B6B6B" />
<path d="M372.823 366.795L341.277 370.578" stroke="#6B6B6B" />
<path d="M372.823 370.727L341.277 374.604" stroke="#6B6B6B" />
<path d="M372.823 393.141L341.277 397.541" stroke="#6B6B6B" />
<path d="M372.823 397.073L341.277 401.567" stroke="#6B6B6B" />
<path d="M372.823 419.093L341.277 424.102" stroke="#6B6B6B" />
<path d="M372.823 423.025L341.277 428.137" stroke="#6B6B6B" />
<path d="M326.976 432.855L321.929 433.445" stroke="#6B6B6B" />
<path d="M326.976 429.316L322.35 429.847" stroke="#6B6B6B" />
<path d="M326.976 405.33L321.929 405.853" stroke="#6B6B6B" />
<path d="M326.976 401.791L322.35 402.263" stroke="#6B6B6B" />
<path d="M326.976 377.805L321.929 378.265" stroke="#6B6B6B" />
<path d="M326.976 374.266L322.35 374.679" stroke="#6B6B6B" />
<path d="M326.976 350.28L321.929 350.674" stroke="#6B6B6B" />
<path d="M326.976 346.741L322.35 347.095" stroke="#6B6B6B" />
<path d="M326.976 322.755L321.929 323.086" stroke="#6B6B6B" />
<path d="M326.976 319.216L322.35 319.511" stroke="#6B6B6B" />
<path d="M326.976 295.23L321.929 295.498" stroke="#6B6B6B" />
<path d="M326.976 291.692L322.35 291.927" stroke="#6B6B6B" />
<path d="M326.976 267.705L321.929 267.906" stroke="#6B6B6B" />
<path d="M326.976 264.167L322.35 264.343" stroke="#6B6B6B" />
<path d="M326.976 240.18L321.929 240.318" stroke="#6B6B6B" />
<path d="M326.976 236.642L322.35 236.76" stroke="#6B6B6B" />
<path d="M326.976 212.656L321.929 212.73" stroke="#6B6B6B" />
<path d="M326.976 209.117L322.35 209.175" stroke="#6B6B6B" />
<path d="M326.976 185.131H321.929" stroke="#6B6B6B" />
<path d="M326.976 181.592H322.35" stroke="#6B6B6B" />
<path d="M213.831 154.46V463.526" stroke="#6B6B6B" />
<path d="M215.093 154.46V463.133" stroke="#6B6B6B" />
<path d="M213.41 470.604V487.905" stroke="#6B6B6B" />
<path d="M214.672 470.604V487.512" stroke="#6B6B6B" />
<path d="M270.614 472.963V489.478" stroke="#6B6B6B" />
<path d="M271.876 472.963V489.085" stroke="#6B6B6B" />
<path d="M281.129 470.997V487.512" stroke="#6B6B6B" />
<path d="M282.391 470.997V487.119" stroke="#6B6B6B" />
<path d="M291.645 469.031V485.546" stroke="#6B6B6B" />
<path d="M292.906 469.031V485.153" stroke="#6B6B6B" />
<path d="M322.77 466.278V482.793" stroke="#6B6B6B" />
<path d="M324.032 466.278V482.4" stroke="#6B6B6B" />
<path d="M329.08 465.099V481.614" stroke="#6B6B6B" />
<path d="M330.341 465.099V481.22" stroke="#6B6B6B" />
<path d="M354.737 458.021V473.356" stroke="#6B6B6B" />
<path d="M355.999 457.628V472.963" stroke="#6B6B6B" />
<path d="M364.411 456.448V470.997" stroke="#6B6B6B" />
<path d="M365.673 456.055V470.604" stroke="#6B6B6B" />
<path d="M267.249 154.067V465.492" stroke="#6B6B6B" />
<path d="M268.511 154.067V465.099" stroke="#6B6B6B" />
<path d="M279.026 154.46V463.133" stroke="#6B6B6B" />
<path d="M280.288 154.46V462.739" stroke="#6B6B6B" />
<path d="M289.962 154.46V461.166" stroke="#6B6B6B" />
<path d="M291.224 154.46V460.773" stroke="#6B6B6B" />
<path d="M352.634 158.392V449.763" stroke="#6B6B6B" />
<path d="M353.896 157.999V449.37" stroke="#6B6B6B" />
<path d="M362.308 159.179V448.191" stroke="#6B6B6B" />
<path d="M363.57 158.785V447.797" stroke="#6B6B6B" />
<path d="M377.03 468.244L345.904 475.715L345.483 478.468L307.628 485.939L300.898 483.973L258.416 492.23L240.75 491.444L226.87 487.905H198.268L194.483 486.725V478.075L189.015 476.109L188.594 474.536" stroke="#6B6B6B" />
<path d="M174.714 474.143L136.858 485.153L115.828 482.007L111.621 483.187L96.8998 483.58L67.0362 479.254L66.1949 476.502L58.2032 475.322L45.1642 476.109L16.983 471.39V466.672L3.10266 464.312" stroke="#6B6B6B" />
<path d="M192.38 402.185L173.452 401.005" stroke="#6B6B6B" />
<path d="M192.38 403.757L173.452 402.578" stroke="#6B6B6B" />
<path d="M192.38 407.69L173.452 406.51" stroke="#6B6B6B" />
<path d="M16.9829 252.763V450.157" stroke="#6B6B6B" />
<path d="M45.1642 253.157V455.662" stroke="#6B6B6B" />
<path d="M58.2032 252.763V453.696" stroke="#6B6B6B" />
<path d="M67.0361 253.943V457.628" stroke="#6B6B6B" />
<path d="M97.3206 254.336V462.346" stroke="#6B6B6B" />
<path d="M110.78 253.55V462.346" stroke="#6B6B6B" />
<path d="M345.063 461.953V480.041" stroke="#6B6B6B" />
<path d="M16.5624 456.055V472.963" stroke="#6B6B6B" />
<path d="M45.1642 460.38V478.075" stroke="#6B6B6B" />
<path d="M57.7826 458.807V477.288" stroke="#6B6B6B" />
<path d="M66.6156 462.346V482.007" stroke="#6B6B6B" />
<path d="M96.4792 467.065V486.332" stroke="#6B6B6B" />
<path d="M110.78 466.672V485.546" stroke="#6B6B6B" />
<path d="M115.407 465.099V484.759" stroke="#6B6B6B" />
<path d="M136.438 467.851V487.512" stroke="#6B6B6B" />
<path d="M194.483 469.817V487.905" stroke="#6B6B6B" />
<path d="M197.427 470.997V489.085" stroke="#6B6B6B" />
<path d="M226.449 470.997V489.085" stroke="#6B6B6B" />
<path d="M240.33 475.322V493.41" stroke="#6B6B6B" />
<path d="M257.995 475.322V493.41" stroke="#6B6B6B" />
<path d="M300.057 467.458V485.546" stroke="#6B6B6B" />
<path d="M307.207 469.031V487.119" stroke="#6B6B6B" />
<path d="M115.407 253.55V459.987" stroke="#6B6B6B" />
<path d="M136.858 253.943V463.133" stroke="#6B6B6B" />
<path d="M195.324 149.348V156.426" stroke="#6B6B6B" />
<path d="M198.268 146.989V154.46" stroke="#6B6B6B" />
<path d="M227.291 147.382V154.46" stroke="#6B6B6B" />
<path d="M241.591 145.416V153.28" stroke="#6B6B6B" />
<path d="M300.478 147.775V154.853" stroke="#6B6B6B" />
<path d="M307.207 147.775V154.46" stroke="#6B6B6B" />
<path d="M342.539 149.741V156.426" stroke="#6B6B6B" />
<path d="M198.268 156.819V458.414" stroke="#6B6B6B" />
<path d="M199.53 154.067V463.526" stroke="#6B6B6B" />
<path d="M228.132 154.067V463.526" stroke="#6B6B6B" />
<path d="M241.591 154.067V467.065" stroke="#6B6B6B" />
<path d="M257.154 154.067V467.065" stroke="#6B6B6B" />
<path d="M300.478 155.246V459.201" stroke="#6B6B6B" />
<path d="M307.207 155.246V460.773" stroke="#6B6B6B" />
<path d="M321.508 155.64V458.414" stroke="#6B6B6B" />
<path d="M326.976 155.64V457.234" stroke="#6B6B6B" />
<path d="M340.436 157.212V454.482" stroke="#6B6B6B" />
<path d="M324.032 119.071L311.414 117.498L306.787 117.891L292.065 116.712L290.803 115.532L271.876 115.139L245.798 118.284" stroke="#6B6B6B" />
<path d="M410.679 207.544H373.665" stroke="#6B6B6B" />
<path d="M188.173 459.594L194.483 461.953" stroke="#6B6B6B" />
<path d="M376.609 453.695L346.745 459.2V461.953L307.628 469.031L300.478 467.458L259.678 474.929H240.33L226.87 470.604H197.427L192.8 469.424V464.312" stroke="#6B6B6B" />
<path d="M188.173 454.482L197.847 456.841V459.2L192.8 463.526L197.847 465.099L226.449 464.705L239.909 468.638H259.678L300.898 461.56L307.628 463.133L347.586 456.055L342.118 454.089L377.45 447.797" stroke="#6B6B6B" />
<path d="M373.244 443.865L372.823 446.618L340.857 452.516V454.875L308.469 461.166L301.319 459.594L257.996 467.065L242.853 467.458L228.973 463.133H200.371L197.848 461.953V454.875L192.8 453.695V448.584" stroke="#6B6B6B" />
<path d="M172.19 253.156L137.7 254.336L115.828 253.943L96.8999 254.336L66.195 253.943L65.3537 253.156H45.5848L17.4036 252.763L16.1418 251.977L4.78516 251.584" stroke="#6B6B6B" />
<path d="M174.293 458.414L136.858 468.244L115.407 465.099L110.36 466.671L96.8999 467.065L67.0362 462.739V460.38L58.6239 458.807L44.7436 459.987L16.5624 455.661L17.4036 450.943L3.52332 448.584" stroke="#6B6B6B" />
<path d="M174.293 453.695L136.858 463.526L115.407 460.38L110.36 461.953L96.8999 462.346L67.0362 458.021V455.662L58.6239 454.089L44.7436 455.268L16.5624 450.943L17.4036 446.224L3.52332 443.865" stroke="#6B6B6B" />
<path d="M173.031 437.181V253.156L175.134 251.977V248.438L141.485 247.258V240.18H124.24V246.865H115.828V240.574H97.7411V246.472H47.6879" stroke="#6B6B6B" />
<path d="M321.929 148.169L307.207 147.775H300.898L241.591 145.416L227.711 146.989L199.109 146.596L195.744 147.775V149.741H191.118V157.606L192.8 157.999V440.719" stroke="#6B6B6B" />
<path d="M278.606 63.2345C278.606 63.2345 219.089 55.5668 127.605 57.3363C84.4918 57.7295 53.9972 62.0548 53.9972 62.0548" stroke="#6B6B6B" />
<path d="M410.679 325.508V366.402L409.417 366.795V372.694L410.679 373.48V414.767L408.576 415.554L397.219 417.127V424.991C397.219 424.991 401.707 424.334 405.211 425.777V432.069" stroke="#6B6B6B" />
<path d="M373.244 202.039H410.679M410.679 202.039V182.378H409.417V176.48L411.099 176.087V134.799H409.838V126.589H411.099V93.8525L410.379 92.5033V90.5372L408.276 90.144V79.5273L412.903 78.7408V76.7748L416.688 75.9883V72.0562L418.371 71.2698V64.1919L422.997 63.7987V61.8326H427.204V57.5073L439.822 56.7209L441.925 58.6869V50.8227L444.028 50.0362V30.7688L445.29 29.9823V4.42346H448.655V29.5891L449.917 31.162V50.0362L452.02 51.2159V57.9005L454.543 58.6869V62.2259C454.543 62.2259 460.293 64.8486 482.725 65.3716H491.558V69.6969H495.764V71.663H499.549V82.673L497.026 84.639L496.184 86.9983H495.222V126.776H496.905V134.047H495.222V137.5M410.679 202.039V207.5M374.085 436.001C394.275 431.153 405.211 431.282 405.211 431.282L404.79 440.326L400.584 441.113V444.652L415.726 447.404V454.089L410.258 455.662V459.2C410.258 459.2 434.233 461.296 447.693 462.346C452.458 458.021 458.768 455.532 471.247 454.089C483.727 452.646 504.897 453.695 504.897 453.695V450.157L500.27 446.618V432.855L506.579 432.462V424.991L495.222 416.733V377.805L496.905 377.412V372.693L495.643 371.121V328.654H496.905V322.362L495.222 321.182V279.895H496.905V273.604H495.222V229.957H496.905V224.059H495.222V181.985H496.905V174.514H495.222V166.5" stroke="#6B6B6B" />
<path fill-rule="evenodd" clip-rule="evenodd" d="M377.03 470.604L345.484 476.895V479.648L307.628 487.512L300.478 485.546L259.258 493.803L239.909 493.017L226.45 489.085L197.848 489.478L192.801 487.905V486.332H194.062V479.648L188.174 477.682V475.322L189.436 474.143V460.773L188.174 459.987V454.482L192.801 449.37V438.753L173.032 437.181V452.909L176.397 453.696V457.628L173.873 458.414V472.57L175.135 474.536V476.502L136.859 487.512L115.828 483.973L111.622 485.153L96.9003 485.939L65.3541 481.221V478.468L58.6243 477.288L45.5852 478.075L15.7215 472.963V470.604L16.9834 468.638L1 465.885V464.312L3.52369 463.919V449.37L1 448.977V444.652L4.36492 443.865V251.977H2.26185V247.652L48.5295 246.079V239.001H47.6883V235.069H48.9501V191.422H48.1089V187.883L48.5295 187.49V144.236L47.6883 143.843V140.304L48.5295 139.911V96.6576C48.5295 96.6576 48.1089 96.7559 48.1089 95.0847V65.2005C48.1089 63.431 48.5295 63.0378 53.9975 62.0548V59.6955C53.9975 59.6955 53.8924 56.4515 61.148 54.1905C68.4036 51.9295 96.5848 44.95 146.953 40.428C197.322 35.9061 243.695 36.4959 243.695 36.4959C243.695 36.4959 280.288 35.218 279.868 43.5737C279.552 51.9295 278.606 63.6276 278.606 63.6276C278.606 63.6276 284.81 64.709 284.915 66.3801C285.02 68.0513 284.915 82.9934 284.915 84.0747C284.915 85.1561 284.495 85.2544 284.495 85.2544V108.847L287.86 109.24L289.542 109.634L305.525 110.813H310.152L320.247 111.206V113.959L323.612 114.352V116.711L324.453 117.498V119.071L323.612 119.857V122.61L322.35 123.003V126.542H321.088V148.169L343.381 149.348V150.921L374.927 152.101V159.965H373.244V443.472L377.871 444.652V450.55L377.03 453.696H376.189V466.672L377.451 468.244L377.03 470.604Z" stroke="#6B6B6B" />
<path d="M443.066 63.145V72.7269L442.225 73.1201M442.645 274.783H443.907V282.468H442.225V325.508H443.066V332.193H441.804V376.626L442.645 377.019V383.31L441.384 383.703V428.137L442.225 430.103M442.225 77.4999V122.5L443.487 123V129.901L442.225 130.294V147" stroke="#6B6B6B" />
<path d="M420.774 423.418V381.737H419.932V375.446H421.194V331.406H419.091V324.721H421.194V314M421.194 80.4999V123H419.932V129.688H421.194V174.121H419.512V180.019H420.774V181.5" stroke="#6B6B6B" />
<path d="M409.417 415.554C409.417 415.554 420.774 416.077 420.774 419.486" stroke="#6B6B6B" />
<path d="M495.222 416.34V422.632C495.222 422.632 457.367 420.665 442.646 430.496C427.924 429.446 419.091 428.923 419.091 428.923V426.564" stroke="#6B6B6B" />
<path d="M415.726 447.404V438.754" stroke="#6B6B6B" />
<path d="M500.27 446.618V448.977C500.27 448.977 479.66 448.092 466.621 450.157C453.581 452.221 446.957 455.662 445.169 457.628C438.755 457.038 415.726 455.268 415.726 455.268V453.696" stroke="#6B6B6B" />
<path d="M407.314 430.103V437.967L448.955 441.113C448.955 441.113 450.322 430.594 500.27 432.462" stroke="#6B6B6B" />
<path d="M397.64 424.204C397.64 424.204 412.361 424.204 415.305 427.743" stroke="#6B6B6B" />
<path d="M506.158 424.991C506.158 424.991 455.579 423.713 448.955 432.855C430.237 431.577 407.314 430.103 407.314 430.103C407.314 430.103 420.773 427.645 420.773 423.418C420.773 419.191 398.06 417.52 398.06 417.52" stroke="#6B6B6B" />
<path d="M454.002 62.2258C454.002 62.2258 443.382 60.0631 440.542 58.6869" stroke="#6B6B6B" />
<path d="M417.409 68.5175V75.5953" stroke="#6B6B6B" />
<path d="M494.381 71.2698C494.381 71.2698 466.41 74.3172 443.487 62.6191C429.081 63.4056 419.932 64.192 419.932 64.192" stroke="#6B6B6B" />
<path d="M499.129 82.2797C499.129 82.2797 483.881 84.0492 468.003 81.8865C452.125 79.7238 445.395 76.5781 444.449 73.629C438.56 74.0222 418.791 75.9883 418.791 75.9883L421.315 77.5612V87.7847C417.941 89.0147 414.403 89.8085 410.799 90.144" stroke="#6B6B6B" />
<path d="M373.665 159.179L342.96 157.606V156.819L307.628 154.853L300.898 155.246L258.416 153.674H242.012L228.132 154.46H199.53L197.848 154.853L197.427 156.426L191.538 157.212" stroke="#6B6B6B" />
<path d="M284.494 84.8612C284.494 84.8612 285.966 80.929 271.035 80.1426C256.103 79.3562 224.767 79.2579 191.118 80.1426C157.469 81.0273 48.5292 87.9086 48.5292 96.6576" stroke="#6B6B6B" />
<path d="M247.901 125.755V145.416" stroke="#6B6B6B" />
<path d="M321.929 126.148L310.572 125.755H305.525L289.962 124.576L289.542 123.789L272.717 123.003L247.059 126.148V121.823L245.798 121.43V117.105L245.377 116.318V113.566L249.162 113.172V110.813L273.558 108.061L284.915 108.847" stroke="#6B6B6B" />
<path d="M396.309 68.9884C396.309 68.9884 398.631 83.0829 382.727 90.9293C366.822 98.7758 358.451 92.2843 356.9 90.4633M356.9 90.4633C355.29 88.0371 355.769 83.9454 355.769 83.9454L341.527 62.7157M356.9 90.4633C367.919 108.396 389.639 132.176 410.741 151.098M373.851 33.7507L378.148 43.3505C378.148 43.3505 378.87 49.0445 374.394 54.7108M363.669 62.2302C347.605 68.6225 340.574 58.5154 341.307 56.6704C340.666 55.6035 340.278 54.4693 340.278 54.4693M363.669 62.2302L347.653 30.878M363.669 62.2302C368.885 60.1544 372.241 57.4358 374.394 54.7108M340.278 54.4693C338.038 58.7269 341.527 62.7157 341.527 62.7157M340.278 54.4693C338.259 48.5477 326.625 27.1283 326.625 27.1283M380.82 41.7647C380.82 41.7647 383.526 54.6139 368.547 62.927C354.355 70.7959 344.551 66.3799 341.527 62.7157M380.82 41.7647C379.268 36.6576 374.265 34.4089 374.265 34.4089C374.265 34.4089 364.342 11.534 363.765 9.6217M380.82 41.7647C383.274 46.8819 390.443 61.231 390.443 61.231C390.443 61.231 395.395 63.2397 396.193 69.5253C397.546 72.4353 403.196 83.9027 410.741 98.2456M390.418 61.2407L393.918 69.503C393.918 69.503 394.36 81.8013 379.828 89.0507C368.376 94.7616 361.315 90.392 359.036 88.7548C357.951 86.8409 356.73 85.0083 355.381 83.2714M326.625 27.1283C326.157 26.3655 326.601 25.2234 327.61 24.571C328.619 23.9186 329.852 24.0111 330.333 24.7839M326.625 27.1283C327.093 27.8911 328.339 27.9936 329.348 27.3412C330.357 26.6888 330.816 25.5506 330.333 24.7839M330.333 24.7839C331.386 26.5957 331.318 26.4951 331.318 26.4951M333.015 25.4943L330.729 21.5716M330.729 21.5716C330.192 20.7292 330.669 19.4724 331.799 18.7669C332.928 18.0615 334.279 18.1686 334.82 19.0119M330.729 21.5716C331.267 22.4141 332.622 22.522 333.751 21.8165C334.88 21.111 335.364 19.843 334.82 19.0119M337.977 21.6735C336.978 20.0569 335.073 16.3035 335.073 16.3035M335.073 16.3035C334.605 15.5407 335.049 14.3986 336.058 13.7462C337.067 13.0938 338.3 13.1863 338.781 13.9591M335.073 16.3035C335.541 17.0663 336.787 17.1688 337.796 16.5164C338.805 15.864 339.261 14.725 338.781 13.9591M343.932 14.7396L341.869 11.8297M341.869 11.8297C341.401 11.0669 341.846 9.92477 342.855 9.27236C343.863 8.61996 345.096 8.71248 345.578 9.48528M341.869 11.8297C342.337 12.5925 343.583 12.695 344.592 12.0426C345.601 11.3902 346.062 10.2589 345.578 9.48528M357.236 7.65476C357.692 8.45031 359.134 11.549 359.785 12.7788M357.236 7.65476C356.754 6.88196 355.522 6.78956 354.513 7.44197C353.504 8.09438 353.059 9.23649 353.527 9.99929M357.236 7.65476C357.723 8.4063 357.259 9.55979 356.25 10.2122C355.241 10.8646 353.995 10.7621 353.527 9.99929M363.765 9.6217C363.284 8.8489 362.051 8.75646 361.042 9.40887C360.033 10.0613 359.589 11.2034 360.057 11.9662M363.765 9.6217C364.252 10.3732 363.789 11.5267 362.78 12.1791C361.771 12.8315 360.525 12.729 360.057 11.9662M334.82 19.0119L336.781 22.423M347.158 26.6039C346.676 25.8311 345.693 25.5129 344.684 26.1653C343.675 26.8177 343.23 27.9598 343.698 28.7227M347.158 26.6039C347.641 27.3707 347.43 28.2832 346.421 28.9356C345.412 29.588 344.166 29.4855 343.698 28.7227M347.158 26.6039L348.067 28.7689M343.698 28.7227L361.275 63.1399M339.966 28.9773C339.484 28.2045 338.252 28.112 337.243 28.7644C336.234 29.4168 335.789 30.5589 336.257 31.3217M339.966 28.9773C340.449 29.744 339.989 30.8822 338.98 31.5346C337.971 32.187 336.725 32.0845 336.257 31.3217M339.966 28.9773C341.853 32.1039 357.838 63.9373 357.838 63.9373M336.257 31.3217L353.546 64.2938M340.028 22.2047C339.546 21.4319 338.313 21.3394 337.304 21.9918C337.108 22.119 336.932 22.2649 336.781 22.423M340.028 22.2047C340.511 22.9684 340.051 24.1096 339.042 24.762C338.033 25.4144 336.787 25.3119 336.319 24.5491M340.028 22.2047L359.548 63.5702M336.319 24.5491L338.438 28.3396M336.319 24.5491C335.942 23.9351 336.157 23.0753 336.781 22.423M335.092 26.0168C334.611 25.244 333.378 25.1515 332.369 25.8039C331.36 26.4563 330.388 26.9431 330.856 27.7059M335.092 26.0168C335.575 26.7835 335.116 27.9217 334.107 28.5741C333.098 29.2265 331.324 28.4687 330.856 27.7059M335.092 26.0168C335.474 26.2647 336.838 29.0784 336.838 29.0784M330.856 27.7059L349.04 63.6047M330.856 27.7059C330.856 27.7059 330.508 27.3533 331.13 26.6462M338.781 13.9591L344.878 26.0513M345.578 9.48528L348.887 15.2268M346.318 15.3445C345.836 14.5717 344.604 14.4792 343.595 15.1316C342.586 15.784 342.141 16.9261 342.609 17.6889M346.318 15.3445C346.801 16.1112 346.341 17.2494 345.332 17.9018C344.323 18.5542 343.077 18.4517 342.609 17.6889M346.318 15.3445L351.093 27.6235M342.609 17.6889L346.233 25.8798M351.668 28.0005C351.186 27.2277 349.647 27.6683 348.638 28.3207C347.63 28.9731 347.185 30.1152 347.653 30.878M351.668 28.0005C352.151 28.7672 351.385 30.4386 350.376 31.091C349.367 31.7434 348.121 31.6409 347.653 30.878M351.668 28.0005L367.845 60.2252M358.435 22.4889C357.954 21.7161 356.721 21.6236 355.712 22.276C354.703 22.9284 354.259 24.0705 354.727 24.8333M358.435 22.4889C358.918 23.2556 358.459 24.3938 357.45 25.0462C356.441 25.6986 355.195 25.5961 354.727 24.8333M358.435 22.4889C361.843 30.196 372.87 56.4225 372.87 56.4225M354.727 24.8333L370.174 58.7186M358.22 17.2971C357.739 16.5243 356.506 16.4318 355.497 17.0842C354.488 17.7366 354.044 18.8787 354.512 19.6415M358.22 17.2971C358.714 18.073 358.244 19.202 357.235 19.8544C356.226 20.5068 354.979 20.4043 354.512 19.6415M358.22 17.2971L374.394 54.7108M354.512 19.6415L355.887 22.2114M352.015 15.1257C351.533 14.3529 350.301 14.2604 349.292 14.9128C348.283 15.5652 347.838 16.7073 348.306 17.4701M352.015 15.1257C352.496 15.8886 352.038 17.0306 351.029 17.683C350.02 18.3354 348.774 18.2329 348.306 17.4701M352.015 15.1257L355.211 22.6843M348.306 17.4701L362.06 48.8001M350.126 12.9607C349.658 12.1979 350.103 11.0558 351.112 10.4034C352.121 9.75097 353.353 9.84348 353.835 10.6163C354.316 11.3891 353.858 12.5212 352.849 13.1736C351.84 13.826 350.594 13.7235 350.126 12.9607ZM350.126 12.9607L350.973 14.5453M353.527 9.99929L356.843 16.6507M360.057 11.9662L360.313 12.6116M362.099 13.2113C361.617 12.4385 360.385 12.346 359.376 12.9984C358.367 13.6508 357.922 14.7929 358.39 15.5557M362.099 13.2113C362.582 13.978 362.122 15.1162 361.113 15.7686C360.104 16.421 358.858 16.3185 358.39 15.5557M362.099 13.2113L377.649 48.2634M358.39 15.5557L375.523 53.4189M494.741 184.907C503.689 185.566 507.984 182.25 508.952 178.513C510.172 173.803 501.591 168.119 492.512 165.767C483.434 163.415 473.886 163.631 464.9 172.194C464.9 172.194 459.448 178.639 457.858 188.48C457.858 188.48 452.452 237.652 445.087 266.081C439.169 288.926 420.007 329.215 373.241 354.087M494.741 203.181C511.871 205.412 526.014 199.741 529.955 184.527C534.505 166.964 522.219 144.611 496.344 137.907C470.47 131.204 455.84 135.965 439.42 148.62C439.42 148.62 432.485 156.234 427.547 165.207C424.354 170.05 408.577 213.305 404.542 224.453C400.507 235.601 399.389 245.266 380.667 270.885C378.483 273.874 375.976 276.598 373.241 279.08" stroke="#6B6B6B" stroke-width="1.1"/>
</svg>
