<svg width="105" height="81" viewBox="0 0 105 81" fill="none" xmlns="http://www.w3.org/2000/svg">
<path d="M11.2737 16.5537C12.948 6.98294 21.2585 0 30.9746 0H105L93.7263 64.4463C92.052 74.0171 83.7415 81 74.0254 81H0L11.2737 16.5537Z" fill="#3181D7"/>
<path d="M77.0169 18H27.9831C26.3382 18 25 19.3379 25 20.9825V31.7813C25 32.2302 25.3642 32.5947 25.8136 32.5947C26.263 32.5947 26.6273 32.2302 26.6273 31.7813V20.9825C26.6273 20.2353 27.2357 19.627 27.9831 19.627H77.0169C77.7647 19.627 78.3727 20.2353 78.3727 20.9825V53.5206C78.3727 54.2682 77.7643 54.8762 77.0169 54.8762H60.1723C60.2272 54.5044 60.2562 54.1244 60.2562 53.7371C60.2562 53.3503 60.2272 52.9702 60.1723 52.5985H70.7248C71.1742 52.5985 71.5384 52.2344 71.5384 51.785C71.5384 49.7218 73.2173 48.0432 75.281 48.0432C75.7304 48.0432 76.0946 47.6791 76.0946 47.2297V33.3923C76.0946 32.9429 75.7304 32.5788 75.281 32.5788C74.8316 32.5788 74.4674 32.9429 74.4674 33.3923V46.4779C72.1565 46.8308 70.3253 48.6612 69.9728 50.9716H59.7447C58.6281 48.0579 55.8024 45.9825 52.5 45.9825C49.1976 45.9825 46.3719 48.0579 45.2553 50.9716H35.0272C34.6747 48.6612 32.8435 46.8308 30.5326 46.4779V28.0252C32.8435 27.6723 34.6747 25.8419 35.0272 23.5315H69.9728C70.3257 25.8419 72.1565 27.6723 74.4674 28.0252V29.5984C74.4674 30.0477 74.832 30.4119 75.281 30.4119C75.7304 30.4119 76.0946 30.0477 76.0946 29.5984V27.2734C76.0946 26.824 75.7304 26.4599 75.281 26.4599C73.2173 26.4599 71.5384 24.7813 71.5384 22.7181C71.5384 22.2688 71.1742 21.9046 70.7248 21.9046H34.2752C33.8258 21.9046 33.4616 22.2688 33.4616 22.7181C33.4616 24.7813 31.7827 26.4599 29.719 26.4599C29.2696 26.4599 28.9054 26.824 28.9054 27.2734V47.2297C28.9054 47.6791 29.2696 48.0432 29.719 48.0432C31.7827 48.0432 33.4616 49.7218 33.4616 51.785C33.4616 52.2344 33.8258 52.5985 34.2752 52.5985H44.8277C44.7728 52.9706 44.7438 53.3507 44.7438 53.7375C44.7438 54.1244 44.7728 54.5044 44.8277 54.8766H27.9831C27.2353 54.8766 26.6273 54.2682 26.6273 53.5206V35.5638C26.6273 35.1144 26.263 34.7503 25.8136 34.7503C25.3642 34.7503 25 35.1144 25 35.5638V53.5206C25 55.1652 26.3382 56.5031 27.9831 56.5031H45.2553C45.5297 57.2197 45.9078 57.885 46.3707 58.4816V67.1865C46.3707 67.4575 46.5058 67.7105 46.7307 67.8616C46.9556 68.0126 47.2409 68.042 47.4919 67.9396L52.5 65.8956L57.5081 67.9396C57.6072 67.9799 57.7116 68 57.8153 68C57.9747 68 58.1334 67.953 58.2693 67.8616C58.4942 67.7105 58.6293 67.4575 58.6293 67.1865V64.8598C58.6293 64.4105 58.2647 64.0463 57.8157 64.0463C57.3663 64.0463 57.0021 64.4105 57.0021 64.8598V65.9758L52.8076 64.2641C52.6104 64.1839 52.3896 64.1839 52.1924 64.2641L47.9979 65.9758V60.0465C49.2685 60.9552 50.8224 61.4922 52.5 61.4922C54.1776 61.4922 55.7315 60.9552 57.0021 60.0465V61.0584C57.0021 61.5077 57.3663 61.8719 57.8157 61.8719C58.2647 61.8719 58.6293 61.5077 58.6293 61.0584V58.4816C59.0922 57.885 59.4703 57.2197 59.7447 56.5031H77.0169C78.6618 56.5031 80 55.1652 80 53.5206V20.9825C80 19.3379 78.6618 18 77.0169 18ZM52.5 59.8652C49.1204 59.8652 46.3707 57.1165 46.3707 53.7375C46.3707 50.3586 49.1204 47.6094 52.5 47.6094C55.8796 47.6094 58.6293 50.3586 58.6293 53.7375C58.6293 57.1165 55.8796 59.8652 52.5 59.8652Z" fill="white"/>
<path d="M59.6599 28.7375C60.1093 28.7375 60.4736 28.3734 60.4736 27.9241C60.4736 27.4747 60.1093 27.1106 59.6599 27.1106H45.3401C44.8907 27.1106 44.5264 27.4747 44.5264 27.9241C44.5264 28.3734 44.8907 28.7375 45.3401 28.7375H59.6599Z" fill="white"/>
<path d="M65.0839 31.449H39.9161C39.4667 31.449 39.1025 31.8131 39.1025 32.2625C39.1025 32.7118 39.4667 33.0759 39.9161 33.0759H65.0839C65.5333 33.0759 65.8975 32.7118 65.8975 32.2625C65.8975 31.8131 65.5333 31.449 65.0839 31.449Z" fill="white"/>
<path d="M65.0839 35.7874H39.9161C39.4667 35.7874 39.1025 36.1515 39.1025 36.6009C39.1025 37.0502 39.4667 37.4143 39.9161 37.4143H65.0839C65.5333 37.4143 65.8975 37.0502 65.8975 36.6009C65.8975 36.1515 65.5333 35.7874 65.0839 35.7874Z" fill="white"/>
<path d="M65.0839 40.7765H61.1785C60.7291 40.7765 60.3649 41.1406 60.3649 41.5899C60.3649 42.0393 60.7291 42.4034 61.1785 42.4034H65.0839C65.5333 42.4034 65.8975 42.0393 65.8975 41.5899C65.8975 41.1406 65.5333 40.7765 65.0839 40.7765Z" fill="white"/>
<path d="M39.9161 40.7765C39.4667 40.7765 39.1025 41.1406 39.1025 41.5899C39.1025 42.0393 39.4667 42.4034 39.9161 42.4034H43.8215C44.2709 42.4034 44.6351 42.0393 44.6351 41.5899C44.6351 41.1406 44.2709 40.7765 43.8215 40.7765H39.9161Z" fill="white"/>
<path d="M52.5 49.4533C50.1371 49.4533 48.2149 51.3751 48.2149 53.7375C48.2149 56.0999 50.1371 58.0218 52.5 58.0218C54.8629 58.0218 56.7851 56.0999 56.7851 53.7375C56.7851 51.3751 54.8629 49.4533 52.5 49.4533ZM52.5 56.3949C51.0343 56.3949 49.8421 55.2026 49.8421 53.7375C49.8421 52.2721 51.0343 51.0802 52.5 51.0802C53.9657 51.0802 55.1579 52.2721 55.1579 53.7375C55.1579 55.2026 53.9657 56.3949 52.5 56.3949Z" fill="white"/>
<path d="M49.7339 41.5899C49.7339 43.115 50.9747 44.3555 52.5 44.3555C54.0253 44.3555 55.2661 43.115 55.2661 41.5899C55.2661 40.0649 54.0253 38.8244 52.5 38.8244C50.9747 38.8244 49.7339 40.0649 49.7339 41.5899ZM53.6393 41.5899C53.6393 42.218 53.1282 42.729 52.5 42.729C51.8718 42.729 51.3607 42.218 51.3607 41.5899C51.3607 40.9619 51.8718 40.4509 52.5 40.4509C53.1282 40.4509 53.6393 40.9619 53.6393 41.5899Z" fill="white"/>
</svg>
