<svg width="105" height="81" viewBox="0 0 105 81" fill="none" xmlns="http://www.w3.org/2000/svg">
<path d="M11.2737 16.5537C12.948 6.98294 21.2585 0 30.9746 0H105L93.7263 64.4463C92.052 74.0171 83.7415 81 74.0254 81H0L11.2737 16.5537Z" fill="#3181D7"/>
<mask id="path-2-inside-1" fill="white">
<path d="M42.5781 31.4204C45.4872 31.4204 47.8537 29.0402 47.8537 26.1148C47.8537 23.189 45.4872 20.8088 42.5781 20.8088C39.6691 20.8088 37.3026 23.189 37.3026 26.1148C37.3026 29.0406 39.6691 31.4204 42.5781 31.4204ZM42.5781 23.0875C44.2375 23.0875 45.588 24.4458 45.588 26.1148C45.588 27.7838 44.2375 29.1417 42.5781 29.1417C40.9187 29.1417 39.5682 27.7838 39.5682 26.1148C39.5682 24.4454 40.9187 23.0875 42.5781 23.0875Z"/>
<path d="M42.5781 27.2542C42.8759 27.2542 43.1684 27.1322 43.3791 26.9204C43.5897 26.7085 43.7109 26.4143 43.7109 26.1148C43.7109 25.8153 43.5897 25.5211 43.3791 25.3093C43.1684 25.0974 42.8759 24.9755 42.5781 24.9755C42.2803 24.9755 41.9878 25.0974 41.7772 25.3093C41.5666 25.5211 41.4453 25.8153 41.4453 26.1148C41.4453 26.4157 41.5666 26.7085 41.7772 26.9204C41.9878 27.1322 42.2803 27.2542 42.5781 27.2542Z"/>
<path d="M81.669 40.5165L70.763 29.5204C70.5506 29.3063 70.2621 29.1857 69.9612 29.1857H61.8359C61.2102 29.1857 60.7031 29.6962 60.7031 30.3251V38.8457H59.5017C58.9592 34.3377 55.1342 30.8324 50.5078 30.8324C50.4472 30.8324 50.3875 30.836 50.3268 30.8369C51.1605 29.459 51.6406 27.8421 51.6406 26.1148C51.6406 21.0888 47.5753 17 42.5781 17C37.5809 17 33.5156 21.0888 33.5156 26.1148C33.5156 27.8421 33.9957 29.459 34.8294 30.8373C34.7688 30.836 34.7091 30.8324 34.6484 30.8324C30.022 30.8324 26.197 34.3377 25.6545 38.8457H25.1328C24.5071 38.8457 24 39.3562 24 39.9851V55.4803C24 56.1096 24.5071 56.6196 25.1328 56.6196H29.9234C29.8968 56.8444 29.8813 57.0718 29.8813 57.3032C29.8813 58.585 30.3044 59.7689 31.0172 60.7213H25.1328C24.5071 60.7213 24 61.2318 24 61.8606C24 62.49 24.5071 63 25.1328 63H44.6079C47.7311 63 50.272 60.4445 50.272 57.3032C50.272 57.0718 50.2565 56.8444 50.2295 56.6196H66.6358C66.6092 56.8444 66.5938 57.0718 66.5938 57.3032C66.5938 58.585 67.0168 59.7689 67.7297 60.7213H59.2871C58.6614 60.7213 58.1543 61.2318 58.1543 61.8606C58.1543 62.49 58.6614 63 59.2871 63H72.2578C75.381 63 77.9219 60.4445 77.9219 57.3032C77.9219 57.0718 77.9064 56.8444 77.8798 56.6196H80.8672C81.4929 56.6196 82 56.1096 82 55.4803V41.3216C82 41.0199 81.881 40.7301 81.669 40.5165ZM79.7344 41.7925V43.7022H69.2377V31.4644H69.4908L79.7344 41.7925ZM60.7031 43.4031H48.0156C47.3899 43.4031 46.8828 43.9136 46.8828 44.5425C46.8828 45.1718 47.3899 45.6819 48.0156 45.6819H60.7031V47.9606H26.2656V45.6819H38.9531C39.5788 45.6819 40.0859 45.1718 40.0859 44.5425C40.0859 43.9136 39.5788 43.4031 38.9531 43.4031H26.2656V41.1244H60.7031V43.4031ZM31.8456 38.8457C32.2846 37.7197 33.3749 36.9204 34.6484 36.9204C35.922 36.9204 37.0123 37.7202 37.4513 38.8457H31.8456ZM47.705 38.8457C48.144 37.7197 49.2343 36.9204 50.5078 36.9204C51.7813 36.9204 52.8717 37.7202 53.3106 38.8457H47.705ZM57.2153 38.8457H55.6683C55.1625 36.4473 53.0412 34.6417 50.5078 34.6417C47.974 34.6417 45.8531 36.4473 45.3473 38.8457H43.8003C44.326 35.5986 47.1328 33.1111 50.5078 33.1111C53.8828 33.1111 56.6896 35.5986 57.2153 38.8457ZM42.5781 35.5407C42.5193 35.4348 42.46 35.3289 42.3971 35.2252C42.4578 35.2261 42.5175 35.2296 42.5781 35.2296C42.6387 35.2296 42.6985 35.2265 42.7591 35.2252C42.6963 35.3289 42.637 35.4344 42.5781 35.5407ZM42.5781 19.2787C46.3261 19.2787 49.375 22.3452 49.375 26.1148C49.375 29.8845 46.3261 32.9509 42.5781 32.9509C38.8301 32.9509 35.7812 29.8845 35.7812 26.1148C35.7812 22.3452 38.8301 19.2787 42.5781 19.2787ZM34.6484 33.1111C38.0234 33.1111 40.8302 35.5986 41.3559 38.8457H39.8089C39.3031 36.4473 37.1818 34.6417 34.6484 34.6417C32.1147 34.6417 29.9937 36.4473 29.4879 38.8457H27.9409C28.4666 35.5986 31.2735 33.1111 34.6484 33.1111ZM32.147 57.3032C32.147 55.4189 33.6714 53.8852 35.5454 53.8852C37.4194 53.8852 38.9438 55.4189 38.9438 57.3032C38.9438 59.1881 37.4194 60.7213 35.5454 60.7213C33.6714 60.7213 32.147 59.1881 32.147 57.3032ZM40.0766 60.7173C40.0775 60.7191 40.0789 60.72 40.0797 60.7213H40.0735C40.0744 60.72 40.0753 60.7191 40.0766 60.7173ZM44.6079 60.7213C42.7339 60.7213 41.2095 59.1881 41.2095 57.3032C41.2095 55.4189 42.7339 53.8852 44.6079 53.8852C46.4819 53.8852 48.0063 55.4189 48.0063 57.3032C48.0063 59.1881 46.4819 60.7213 44.6079 60.7213ZM49.444 54.3409C48.448 52.7027 46.6527 51.6065 44.6079 51.6065C42.7569 51.6065 41.1108 52.5042 40.0766 53.8892C39.0421 52.5042 37.3964 51.6065 35.5454 51.6065C33.5001 51.6065 31.7049 52.7027 30.7093 54.3409H26.2656V50.2393H60.7031V54.3409H49.444ZM72.2578 60.7213C70.3838 60.7213 68.8594 59.1881 68.8594 57.3032C68.8594 55.4189 70.3838 53.8852 72.2578 53.8852C73.4128 53.8852 74.4345 54.4682 75.0487 55.3566C75.0443 55.3975 75.0416 55.4384 75.0416 55.4803C75.0416 55.8742 75.2403 56.2213 75.5421 56.4256C75.6164 56.706 75.6562 57.0002 75.6562 57.3032C75.6562 59.1881 74.1318 60.7213 72.2578 60.7213ZM77.0939 54.3409C76.0979 52.7027 74.3031 51.6065 72.2578 51.6065C70.2126 51.6065 68.4173 52.7027 67.4217 54.3409H62.9688V31.4644H66.9721V44.8416C66.9721 45.4704 67.4792 45.9809 68.1049 45.9809H79.7344V54.3409H77.0939Z"/>
<path d="M72.2578 56.1639C71.96 56.1639 71.6675 56.2858 71.4569 56.4981C71.2462 56.71 71.125 57.0037 71.125 57.3032C71.125 57.6032 71.2462 57.8969 71.4569 58.1088C71.6675 58.3206 71.96 58.4426 72.2578 58.4426C72.5556 58.4426 72.8481 58.3211 73.0587 58.1088C73.2694 57.8969 73.3906 57.6032 73.3906 57.3032C73.3906 57.0037 73.2694 56.71 73.0587 56.4981C72.8481 56.2858 72.5556 56.1639 72.2578 56.1639Z"/>
<path d="M44.6083 56.1639C44.3088 56.1639 44.018 56.2858 43.8061 56.4981C43.5954 56.71 43.4755 57.0037 43.4755 57.3032C43.4755 57.6032 43.5954 57.8969 43.8061 58.1088C44.018 58.3206 44.3101 58.4426 44.6083 58.4426C44.9061 58.4426 45.1973 58.3211 45.4088 58.1088C45.6195 57.8969 45.7411 57.6032 45.7411 57.3032C45.7411 57.0037 45.6199 56.71 45.4088 56.4981C45.1982 56.2858 44.9061 56.1639 44.6083 56.1639Z"/>
<path d="M35.5458 56.1639C35.2463 56.1639 34.9555 56.2858 34.7449 56.4981C34.5329 56.71 34.413 57.0037 34.413 57.3032C34.413 57.6032 34.5329 57.8969 34.7449 58.1088C34.9555 58.3206 35.2467 58.4426 35.5458 58.4426C35.8436 58.4426 36.1348 58.3211 36.3463 58.1088C36.557 57.8969 36.6786 57.6032 36.6786 57.3032C36.6786 57.0037 36.5574 56.71 36.3463 56.4981C36.1348 56.2858 35.8436 56.1639 35.5458 56.1639Z"/>
<path d="M43.4844 45.6819C43.7822 45.6819 44.0747 45.5603 44.2853 45.3481C44.4959 45.1362 44.6172 44.8425 44.6172 44.5425C44.6172 44.243 44.4959 43.9492 44.2853 43.7374C44.0747 43.5251 43.7822 43.4031 43.4844 43.4031C43.1866 43.4031 42.8941 43.5251 42.6834 43.7374C42.4728 43.9492 42.3516 44.243 42.3516 44.5425C42.3516 44.8425 42.4728 45.1362 42.6834 45.3481C42.8941 45.5603 43.1866 45.6819 43.4844 45.6819Z"/>
</mask>
<path d="M42.5781 31.4204C45.4872 31.4204 47.8537 29.0402 47.8537 26.1148C47.8537 23.189 45.4872 20.8088 42.5781 20.8088C39.6691 20.8088 37.3026 23.189 37.3026 26.1148C37.3026 29.0406 39.6691 31.4204 42.5781 31.4204ZM42.5781 23.0875C44.2375 23.0875 45.588 24.4458 45.588 26.1148C45.588 27.7838 44.2375 29.1417 42.5781 29.1417C40.9187 29.1417 39.5682 27.7838 39.5682 26.1148C39.5682 24.4454 40.9187 23.0875 42.5781 23.0875Z" fill="white"/>
<path d="M42.5781 27.2542C42.8759 27.2542 43.1684 27.1322 43.3791 26.9204C43.5897 26.7085 43.7109 26.4143 43.7109 26.1148C43.7109 25.8153 43.5897 25.5211 43.3791 25.3093C43.1684 25.0974 42.8759 24.9755 42.5781 24.9755C42.2803 24.9755 41.9878 25.0974 41.7772 25.3093C41.5666 25.5211 41.4453 25.8153 41.4453 26.1148C41.4453 26.4157 41.5666 26.7085 41.7772 26.9204C41.9878 27.1322 42.2803 27.2542 42.5781 27.2542Z" fill="white"/>
<path d="M81.669 40.5165L70.763 29.5204C70.5506 29.3063 70.2621 29.1857 69.9612 29.1857H61.8359C61.2102 29.1857 60.7031 29.6962 60.7031 30.3251V38.8457H59.5017C58.9592 34.3377 55.1342 30.8324 50.5078 30.8324C50.4472 30.8324 50.3875 30.836 50.3268 30.8369C51.1605 29.459 51.6406 27.8421 51.6406 26.1148C51.6406 21.0888 47.5753 17 42.5781 17C37.5809 17 33.5156 21.0888 33.5156 26.1148C33.5156 27.8421 33.9957 29.459 34.8294 30.8373C34.7688 30.836 34.7091 30.8324 34.6484 30.8324C30.022 30.8324 26.197 34.3377 25.6545 38.8457H25.1328C24.5071 38.8457 24 39.3562 24 39.9851V55.4803C24 56.1096 24.5071 56.6196 25.1328 56.6196H29.9234C29.8968 56.8444 29.8813 57.0718 29.8813 57.3032C29.8813 58.585 30.3044 59.7689 31.0172 60.7213H25.1328C24.5071 60.7213 24 61.2318 24 61.8606C24 62.49 24.5071 63 25.1328 63H44.6079C47.7311 63 50.272 60.4445 50.272 57.3032C50.272 57.0718 50.2565 56.8444 50.2295 56.6196H66.6358C66.6092 56.8444 66.5938 57.0718 66.5938 57.3032C66.5938 58.585 67.0168 59.7689 67.7297 60.7213H59.2871C58.6614 60.7213 58.1543 61.2318 58.1543 61.8606C58.1543 62.49 58.6614 63 59.2871 63H72.2578C75.381 63 77.9219 60.4445 77.9219 57.3032C77.9219 57.0718 77.9064 56.8444 77.8798 56.6196H80.8672C81.4929 56.6196 82 56.1096 82 55.4803V41.3216C82 41.0199 81.881 40.7301 81.669 40.5165ZM79.7344 41.7925V43.7022H69.2377V31.4644H69.4908L79.7344 41.7925ZM60.7031 43.4031H48.0156C47.3899 43.4031 46.8828 43.9136 46.8828 44.5425C46.8828 45.1718 47.3899 45.6819 48.0156 45.6819H60.7031V47.9606H26.2656V45.6819H38.9531C39.5788 45.6819 40.0859 45.1718 40.0859 44.5425C40.0859 43.9136 39.5788 43.4031 38.9531 43.4031H26.2656V41.1244H60.7031V43.4031ZM31.8456 38.8457C32.2846 37.7197 33.3749 36.9204 34.6484 36.9204C35.922 36.9204 37.0123 37.7202 37.4513 38.8457H31.8456ZM47.705 38.8457C48.144 37.7197 49.2343 36.9204 50.5078 36.9204C51.7813 36.9204 52.8717 37.7202 53.3106 38.8457H47.705ZM57.2153 38.8457H55.6683C55.1625 36.4473 53.0412 34.6417 50.5078 34.6417C47.974 34.6417 45.8531 36.4473 45.3473 38.8457H43.8003C44.326 35.5986 47.1328 33.1111 50.5078 33.1111C53.8828 33.1111 56.6896 35.5986 57.2153 38.8457ZM42.5781 35.5407C42.5193 35.4348 42.46 35.3289 42.3971 35.2252C42.4578 35.2261 42.5175 35.2296 42.5781 35.2296C42.6387 35.2296 42.6985 35.2265 42.7591 35.2252C42.6963 35.3289 42.637 35.4344 42.5781 35.5407ZM42.5781 19.2787C46.3261 19.2787 49.375 22.3452 49.375 26.1148C49.375 29.8845 46.3261 32.9509 42.5781 32.9509C38.8301 32.9509 35.7812 29.8845 35.7812 26.1148C35.7812 22.3452 38.8301 19.2787 42.5781 19.2787ZM34.6484 33.1111C38.0234 33.1111 40.8302 35.5986 41.3559 38.8457H39.8089C39.3031 36.4473 37.1818 34.6417 34.6484 34.6417C32.1147 34.6417 29.9937 36.4473 29.4879 38.8457H27.9409C28.4666 35.5986 31.2735 33.1111 34.6484 33.1111ZM32.147 57.3032C32.147 55.4189 33.6714 53.8852 35.5454 53.8852C37.4194 53.8852 38.9438 55.4189 38.9438 57.3032C38.9438 59.1881 37.4194 60.7213 35.5454 60.7213C33.6714 60.7213 32.147 59.1881 32.147 57.3032ZM40.0766 60.7173C40.0775 60.7191 40.0789 60.72 40.0797 60.7213H40.0735C40.0744 60.72 40.0753 60.7191 40.0766 60.7173ZM44.6079 60.7213C42.7339 60.7213 41.2095 59.1881 41.2095 57.3032C41.2095 55.4189 42.7339 53.8852 44.6079 53.8852C46.4819 53.8852 48.0063 55.4189 48.0063 57.3032C48.0063 59.1881 46.4819 60.7213 44.6079 60.7213ZM49.444 54.3409C48.448 52.7027 46.6527 51.6065 44.6079 51.6065C42.7569 51.6065 41.1108 52.5042 40.0766 53.8892C39.0421 52.5042 37.3964 51.6065 35.5454 51.6065C33.5001 51.6065 31.7049 52.7027 30.7093 54.3409H26.2656V50.2393H60.7031V54.3409H49.444ZM72.2578 60.7213C70.3838 60.7213 68.8594 59.1881 68.8594 57.3032C68.8594 55.4189 70.3838 53.8852 72.2578 53.8852C73.4128 53.8852 74.4345 54.4682 75.0487 55.3566C75.0443 55.3975 75.0416 55.4384 75.0416 55.4803C75.0416 55.8742 75.2403 56.2213 75.5421 56.4256C75.6164 56.706 75.6562 57.0002 75.6562 57.3032C75.6562 59.1881 74.1318 60.7213 72.2578 60.7213ZM77.0939 54.3409C76.0979 52.7027 74.3031 51.6065 72.2578 51.6065C70.2126 51.6065 68.4173 52.7027 67.4217 54.3409H62.9688V31.4644H66.9721V44.8416C66.9721 45.4704 67.4792 45.9809 68.1049 45.9809H79.7344V54.3409H77.0939Z" fill="white"/>
<path d="M72.2578 56.1639C71.96 56.1639 71.6675 56.2858 71.4569 56.4981C71.2462 56.71 71.125 57.0037 71.125 57.3032C71.125 57.6032 71.2462 57.8969 71.4569 58.1088C71.6675 58.3206 71.96 58.4426 72.2578 58.4426C72.5556 58.4426 72.8481 58.3211 73.0587 58.1088C73.2694 57.8969 73.3906 57.6032 73.3906 57.3032C73.3906 57.0037 73.2694 56.71 73.0587 56.4981C72.8481 56.2858 72.5556 56.1639 72.2578 56.1639Z" fill="white"/>
<path d="M44.6083 56.1639C44.3088 56.1639 44.018 56.2858 43.8061 56.4981C43.5954 56.71 43.4755 57.0037 43.4755 57.3032C43.4755 57.6032 43.5954 57.8969 43.8061 58.1088C44.018 58.3206 44.3101 58.4426 44.6083 58.4426C44.9061 58.4426 45.1973 58.3211 45.4088 58.1088C45.6195 57.8969 45.7411 57.6032 45.7411 57.3032C45.7411 57.0037 45.6199 56.71 45.4088 56.4981C45.1982 56.2858 44.9061 56.1639 44.6083 56.1639Z" fill="white"/>
<path d="M35.5458 56.1639C35.2463 56.1639 34.9555 56.2858 34.7449 56.4981C34.5329 56.71 34.413 57.0037 34.413 57.3032C34.413 57.6032 34.5329 57.8969 34.7449 58.1088C34.9555 58.3206 35.2467 58.4426 35.5458 58.4426C35.8436 58.4426 36.1348 58.3211 36.3463 58.1088C36.557 57.8969 36.6786 57.6032 36.6786 57.3032C36.6786 57.0037 36.5574 56.71 36.3463 56.4981C36.1348 56.2858 35.8436 56.1639 35.5458 56.1639Z" fill="white"/>
<path d="M43.4844 45.6819C43.7822 45.6819 44.0747 45.5603 44.2853 45.3481C44.4959 45.1362 44.6172 44.8425 44.6172 44.5425C44.6172 44.243 44.4959 43.9492 44.2853 43.7374C44.0747 43.5251 43.7822 43.4031 43.4844 43.4031C43.1866 43.4031 42.8941 43.5251 42.6834 43.7374C42.4728 43.9492 42.3516 44.243 42.3516 44.5425C42.3516 44.8425 42.4728 45.1362 42.6834 45.3481C42.8941 45.5603 43.1866 45.6819 43.4844 45.6819Z" fill="white"/>
<path d="M42.5781 31.4204C45.4872 31.4204 47.8537 29.0402 47.8537 26.1148C47.8537 23.189 45.4872 20.8088 42.5781 20.8088C39.6691 20.8088 37.3026 23.189 37.3026 26.1148C37.3026 29.0406 39.6691 31.4204 42.5781 31.4204ZM42.5781 23.0875C44.2375 23.0875 45.588 24.4458 45.588 26.1148C45.588 27.7838 44.2375 29.1417 42.5781 29.1417C40.9187 29.1417 39.5682 27.7838 39.5682 26.1148C39.5682 24.4454 40.9187 23.0875 42.5781 23.0875Z" stroke="#3181D7" stroke-width="0.6" mask="url(#path-2-inside-1)"/>
<path d="M42.5781 27.2542C42.8759 27.2542 43.1684 27.1322 43.3791 26.9204C43.5897 26.7085 43.7109 26.4143 43.7109 26.1148C43.7109 25.8153 43.5897 25.5211 43.3791 25.3093C43.1684 25.0974 42.8759 24.9755 42.5781 24.9755C42.2803 24.9755 41.9878 25.0974 41.7772 25.3093C41.5666 25.5211 41.4453 25.8153 41.4453 26.1148C41.4453 26.4157 41.5666 26.7085 41.7772 26.9204C41.9878 27.1322 42.2803 27.2542 42.5781 27.2542Z" stroke="#3181D7" stroke-width="0.6" mask="url(#path-2-inside-1)"/>
<path d="M81.669 40.5165L70.763 29.5204C70.5506 29.3063 70.2621 29.1857 69.9612 29.1857H61.8359C61.2102 29.1857 60.7031 29.6962 60.7031 30.3251V38.8457H59.5017C58.9592 34.3377 55.1342 30.8324 50.5078 30.8324C50.4472 30.8324 50.3875 30.836 50.3268 30.8369C51.1605 29.459 51.6406 27.8421 51.6406 26.1148C51.6406 21.0888 47.5753 17 42.5781 17C37.5809 17 33.5156 21.0888 33.5156 26.1148C33.5156 27.8421 33.9957 29.459 34.8294 30.8373C34.7688 30.836 34.7091 30.8324 34.6484 30.8324C30.022 30.8324 26.197 34.3377 25.6545 38.8457H25.1328C24.5071 38.8457 24 39.3562 24 39.9851V55.4803C24 56.1096 24.5071 56.6196 25.1328 56.6196H29.9234C29.8968 56.8444 29.8813 57.0718 29.8813 57.3032C29.8813 58.585 30.3044 59.7689 31.0172 60.7213H25.1328C24.5071 60.7213 24 61.2318 24 61.8606C24 62.49 24.5071 63 25.1328 63H44.6079C47.7311 63 50.272 60.4445 50.272 57.3032C50.272 57.0718 50.2565 56.8444 50.2295 56.6196H66.6358C66.6092 56.8444 66.5938 57.0718 66.5938 57.3032C66.5938 58.585 67.0168 59.7689 67.7297 60.7213H59.2871C58.6614 60.7213 58.1543 61.2318 58.1543 61.8606C58.1543 62.49 58.6614 63 59.2871 63H72.2578C75.381 63 77.9219 60.4445 77.9219 57.3032C77.9219 57.0718 77.9064 56.8444 77.8798 56.6196H80.8672C81.4929 56.6196 82 56.1096 82 55.4803V41.3216C82 41.0199 81.881 40.7301 81.669 40.5165ZM79.7344 41.7925V43.7022H69.2377V31.4644H69.4908L79.7344 41.7925ZM60.7031 43.4031H48.0156C47.3899 43.4031 46.8828 43.9136 46.8828 44.5425C46.8828 45.1718 47.3899 45.6819 48.0156 45.6819H60.7031V47.9606H26.2656V45.6819H38.9531C39.5788 45.6819 40.0859 45.1718 40.0859 44.5425C40.0859 43.9136 39.5788 43.4031 38.9531 43.4031H26.2656V41.1244H60.7031V43.4031ZM31.8456 38.8457C32.2846 37.7197 33.3749 36.9204 34.6484 36.9204C35.922 36.9204 37.0123 37.7202 37.4513 38.8457H31.8456ZM47.705 38.8457C48.144 37.7197 49.2343 36.9204 50.5078 36.9204C51.7813 36.9204 52.8717 37.7202 53.3106 38.8457H47.705ZM57.2153 38.8457H55.6683C55.1625 36.4473 53.0412 34.6417 50.5078 34.6417C47.974 34.6417 45.8531 36.4473 45.3473 38.8457H43.8003C44.326 35.5986 47.1328 33.1111 50.5078 33.1111C53.8828 33.1111 56.6896 35.5986 57.2153 38.8457ZM42.5781 35.5407C42.5193 35.4348 42.46 35.3289 42.3971 35.2252C42.4578 35.2261 42.5175 35.2296 42.5781 35.2296C42.6387 35.2296 42.6985 35.2265 42.7591 35.2252C42.6963 35.3289 42.637 35.4344 42.5781 35.5407ZM42.5781 19.2787C46.3261 19.2787 49.375 22.3452 49.375 26.1148C49.375 29.8845 46.3261 32.9509 42.5781 32.9509C38.8301 32.9509 35.7812 29.8845 35.7812 26.1148C35.7812 22.3452 38.8301 19.2787 42.5781 19.2787ZM34.6484 33.1111C38.0234 33.1111 40.8302 35.5986 41.3559 38.8457H39.8089C39.3031 36.4473 37.1818 34.6417 34.6484 34.6417C32.1147 34.6417 29.9937 36.4473 29.4879 38.8457H27.9409C28.4666 35.5986 31.2735 33.1111 34.6484 33.1111ZM32.147 57.3032C32.147 55.4189 33.6714 53.8852 35.5454 53.8852C37.4194 53.8852 38.9438 55.4189 38.9438 57.3032C38.9438 59.1881 37.4194 60.7213 35.5454 60.7213C33.6714 60.7213 32.147 59.1881 32.147 57.3032ZM40.0766 60.7173C40.0775 60.7191 40.0789 60.72 40.0797 60.7213H40.0735C40.0744 60.72 40.0753 60.7191 40.0766 60.7173ZM44.6079 60.7213C42.7339 60.7213 41.2095 59.1881 41.2095 57.3032C41.2095 55.4189 42.7339 53.8852 44.6079 53.8852C46.4819 53.8852 48.0063 55.4189 48.0063 57.3032C48.0063 59.1881 46.4819 60.7213 44.6079 60.7213ZM49.444 54.3409C48.448 52.7027 46.6527 51.6065 44.6079 51.6065C42.7569 51.6065 41.1108 52.5042 40.0766 53.8892C39.0421 52.5042 37.3964 51.6065 35.5454 51.6065C33.5001 51.6065 31.7049 52.7027 30.7093 54.3409H26.2656V50.2393H60.7031V54.3409H49.444ZM72.2578 60.7213C70.3838 60.7213 68.8594 59.1881 68.8594 57.3032C68.8594 55.4189 70.3838 53.8852 72.2578 53.8852C73.4128 53.8852 74.4345 54.4682 75.0487 55.3566C75.0443 55.3975 75.0416 55.4384 75.0416 55.4803C75.0416 55.8742 75.2403 56.2213 75.5421 56.4256C75.6164 56.706 75.6562 57.0002 75.6562 57.3032C75.6562 59.1881 74.1318 60.7213 72.2578 60.7213ZM77.0939 54.3409C76.0979 52.7027 74.3031 51.6065 72.2578 51.6065C70.2126 51.6065 68.4173 52.7027 67.4217 54.3409H62.9688V31.4644H66.9721V44.8416C66.9721 45.4704 67.4792 45.9809 68.1049 45.9809H79.7344V54.3409H77.0939Z" stroke="#3181D7" stroke-width="0.6" mask="url(#path-2-inside-1)"/>
<path d="M72.2578 56.1639C71.96 56.1639 71.6675 56.2858 71.4569 56.4981C71.2462 56.71 71.125 57.0037 71.125 57.3032C71.125 57.6032 71.2462 57.8969 71.4569 58.1088C71.6675 58.3206 71.96 58.4426 72.2578 58.4426C72.5556 58.4426 72.8481 58.3211 73.0587 58.1088C73.2694 57.8969 73.3906 57.6032 73.3906 57.3032C73.3906 57.0037 73.2694 56.71 73.0587 56.4981C72.8481 56.2858 72.5556 56.1639 72.2578 56.1639Z" stroke="#3181D7" stroke-width="0.6" mask="url(#path-2-inside-1)"/>
<path d="M44.6083 56.1639C44.3088 56.1639 44.018 56.2858 43.8061 56.4981C43.5954 56.71 43.4755 57.0037 43.4755 57.3032C43.4755 57.6032 43.5954 57.8969 43.8061 58.1088C44.018 58.3206 44.3101 58.4426 44.6083 58.4426C44.9061 58.4426 45.1973 58.3211 45.4088 58.1088C45.6195 57.8969 45.7411 57.6032 45.7411 57.3032C45.7411 57.0037 45.6199 56.71 45.4088 56.4981C45.1982 56.2858 44.9061 56.1639 44.6083 56.1639Z" stroke="#3181D7" stroke-width="0.6" mask="url(#path-2-inside-1)"/>
<path d="M35.5458 56.1639C35.2463 56.1639 34.9555 56.2858 34.7449 56.4981C34.5329 56.71 34.413 57.0037 34.413 57.3032C34.413 57.6032 34.5329 57.8969 34.7449 58.1088C34.9555 58.3206 35.2467 58.4426 35.5458 58.4426C35.8436 58.4426 36.1348 58.3211 36.3463 58.1088C36.557 57.8969 36.6786 57.6032 36.6786 57.3032C36.6786 57.0037 36.5574 56.71 36.3463 56.4981C36.1348 56.2858 35.8436 56.1639 35.5458 56.1639Z" stroke="#3181D7" stroke-width="0.6" mask="url(#path-2-inside-1)"/>
<path d="M43.4844 45.6819C43.7822 45.6819 44.0747 45.5603 44.2853 45.3481C44.4959 45.1362 44.6172 44.8425 44.6172 44.5425C44.6172 44.243 44.4959 43.9492 44.2853 43.7374C44.0747 43.5251 43.7822 43.4031 43.4844 43.4031C43.1866 43.4031 42.8941 43.5251 42.6834 43.7374C42.4728 43.9492 42.3516 44.243 42.3516 44.5425C42.3516 44.8425 42.4728 45.1362 42.6834 45.3481C42.8941 45.5603 43.1866 45.6819 43.4844 45.6819Z" stroke="#3181D7" stroke-width="0.6" mask="url(#path-2-inside-1)"/>
</svg>
