<svg width="105" height="81" viewBox="0 0 105 81" fill="none" xmlns="http://www.w3.org/2000/svg">
<path d="M11.2737 16.5537C12.948 6.98294 21.2585 0 30.9746 0H105L93.7263 64.4463C92.052 74.0171 83.7415 81 74.0254 81H0L11.2737 16.5537Z" fill="#3181D7"/>
<path d="M66.3782 37.8434C66.3782 36.1338 64.9875 34.7432 63.278 34.7432H57.5803C58.9646 33.1873 59.8693 31.4155 60.0441 29.826C60.1508 28.8551 59.8509 27.8915 59.2209 27.182C58.6452 26.5334 57.8578 26.172 57.004 26.1641C56.994 26.164 56.9841 26.164 56.9743 26.164C56.1484 26.164 55.3732 26.4821 54.7882 27.0617C54.203 27.6415 53.8792 28.4138 53.8754 29.2381C53.8454 29.4185 53.5279 30.0407 52.7511 30.7794C52.1152 31.3844 51.0166 32.216 49.3946 32.7426C48.7586 32.9491 48.1774 33.3293 47.6671 33.8727C47.3994 34.1577 46.9984 34.5513 46.5019 34.9464C46.2583 34.8173 45.9812 34.7435 45.6869 34.7435H40.2756C39.312 34.7435 38.5282 35.5273 38.5282 36.4909V50.9209C38.5282 51.8844 39.312 52.6683 40.2756 52.6683H45.6869C46.3437 52.6683 46.9165 52.3036 47.215 51.7664H61.0233C62.4841 51.7664 63.6725 50.578 63.6725 49.1172C63.6725 48.626 63.5383 48.1657 63.3043 47.7708C64.0655 47.3049 64.5744 46.4656 64.5744 45.5096C64.5744 45.0184 64.4401 44.5582 64.2062 44.1633C64.9674 43.6973 65.4763 42.858 65.4763 41.902C65.4763 41.3492 65.306 40.8353 65.0152 40.4101C65.8372 39.8518 66.3782 38.9096 66.3782 37.8434ZM63.278 39.2526H62.827C62.3601 39.2526 61.9814 39.6311 61.9814 40.0981C61.9814 40.565 62.36 40.9436 62.827 40.9436C63.3554 40.9436 63.7853 41.3735 63.7853 41.9019C63.7853 42.4303 63.3554 42.8602 62.827 42.8602H61.9251C61.4582 42.8602 61.0796 43.2388 61.0796 43.7058C61.0796 44.1727 61.4581 44.5513 61.9251 44.5513C62.4535 44.5513 62.8834 44.9812 62.8834 45.5096C62.8834 46.038 62.4535 46.4679 61.9251 46.4679H61.0233C60.5564 46.4679 60.1777 46.8464 60.1777 47.3134C60.1777 47.7803 60.5562 48.159 61.0233 48.159C61.5517 48.159 61.9816 48.5889 61.9816 49.1173C61.9816 49.6457 61.5517 50.0756 61.0233 50.0756H47.4343V41.9023C47.4343 41.4353 47.0557 41.0567 46.5887 41.0567C46.1217 41.0567 45.7432 41.4352 45.7432 41.9023V50.921C45.7432 50.9521 45.718 50.9773 45.6869 50.9773H40.2756C40.2445 50.9773 40.2193 50.9521 40.2193 50.921V36.4905C40.2193 36.4594 40.2445 36.4342 40.2756 36.4342H45.6869C45.718 36.4342 45.7432 36.4594 45.7432 36.4905V38.2944C45.7432 38.7613 46.1217 39.1399 46.5887 39.1399C47.0557 39.1399 47.4343 38.7614 47.4343 38.2944V36.4905C47.4343 36.4495 47.4309 36.4093 47.428 36.369C48.062 35.8783 48.569 35.3822 48.8997 35.0301C49.2127 34.6967 49.5548 34.4683 49.9167 34.3509C51.9069 33.7048 53.2462 32.6644 54.0192 31.9055C54.988 30.9543 55.5663 29.9627 55.5663 29.2527C55.5663 28.8777 55.7126 28.5262 55.9783 28.2629C56.2472 27.9964 56.6034 27.8556 56.9882 27.8551C57.4622 27.8595 57.7761 28.102 57.9561 28.3047C58.2647 28.6522 58.4166 29.1519 58.3629 29.6412C58.1782 31.3212 56.8347 33.3979 54.94 34.9316C54.6617 35.157 54.5555 35.5333 54.675 35.8709C54.7945 36.2085 55.1139 36.4342 55.472 36.4342H63.2778C64.0549 36.4342 64.6869 37.0663 64.6869 37.8434C64.6869 38.6205 64.055 39.2526 63.278 39.2526Z" fill="white"/>
<path d="M42.9813 47.3604C42.5144 47.3604 42.1313 47.7434 42.1313 48.2103C42.1313 48.6772 42.5144 49.0603 42.9813 49.0603C43.4482 49.0603 43.8312 48.6772 43.8312 48.2103C43.8314 47.7435 43.4483 47.3604 42.9813 47.3604Z" fill="white"/>
<path d="M77.4928 41L78.9453 37.1564C79.0511 36.8768 79.0012 36.5622 78.8142 36.3288L76.2451 33.1221L76.4388 29.0178C76.4529 28.7193 76.3082 28.4353 76.0584 28.2713L72.6242 26.0154L71.5402 22.0521C71.4613 21.7637 71.236 21.5384 70.9478 21.4597L66.9845 20.3757L64.7286 16.9415C64.5645 16.6916 64.2806 16.5476 63.9821 16.5612L59.8778 16.7548L56.6711 14.1857C56.4378 13.9988 56.1232 13.9489 55.8435 14.0546L51.9999 15.5071L48.1565 14.0547C47.8767 13.9489 47.5622 13.9988 47.3289 14.1858L44.1222 16.7549L40.0179 16.5613C39.718 16.5471 39.4354 16.6918 39.2714 16.9416L37.0157 20.3759L33.0524 21.4599C32.764 21.5388 32.5387 21.764 32.4599 22.0523L31.3759 26.0156L27.9417 28.2714C27.6918 28.4355 27.5472 28.7194 27.5613 29.0179L27.755 33.1222L25.1859 36.3289C24.999 36.5622 24.9491 36.8768 25.0548 37.1565L26.5072 41L25.0547 44.8435C24.9489 45.1231 24.9988 45.4377 25.1858 45.6711L27.7549 48.8777L27.5612 52.9821C27.5471 53.2805 27.6918 53.5646 27.9416 53.7286L31.3758 55.9844L32.4598 59.9477C32.5387 60.2361 32.764 60.4614 33.0522 60.5402L37.0155 61.6242L39.2713 65.0584C39.4354 65.3083 39.7199 65.452 40.0178 65.4388L44.1221 65.2451L47.3288 67.8142C47.5621 68.0012 47.8768 68.0511 48.1564 67.9453L52 66.4928L55.8436 67.9453C55.9406 67.9819 56.0418 67.9999 56.1424 67.9999C56.3318 67.9999 56.5188 67.9363 56.6711 67.8142L59.8778 65.2451L63.9821 65.4388C64.2815 65.4521 64.5645 65.3082 64.7286 65.0584L66.9845 61.6242L70.9478 60.5402C71.2361 60.4613 71.4614 60.236 71.5402 59.9477L72.6242 55.9844L76.0584 53.7286C76.3083 53.5645 76.4529 53.2805 76.4388 52.9821L76.2451 48.8777L78.8142 45.6711C79.0011 45.4378 79.051 45.1232 78.9453 44.8435L77.4928 41ZM75.798 41.2989L77.193 44.9902L74.7256 48.0697C74.5969 48.2304 74.5312 48.4326 74.5409 48.6382L74.7269 52.5799L71.4288 54.7463C71.2568 54.8593 71.1317 55.0313 71.0774 55.23L70.0363 59.0363L66.23 60.0774C66.0314 60.1317 65.8595 60.2567 65.7464 60.4288L63.5799 63.7269L59.6382 63.5409C59.4325 63.5314 59.2304 63.5969 59.0698 63.7256L55.9902 66.193L52.2989 64.798C52.2026 64.7617 52.1012 64.7435 52 64.7435C51.8988 64.7435 51.7974 64.7618 51.7011 64.798L48.0098 66.193L44.9302 63.7256C44.7696 63.5969 44.5671 63.5314 44.3618 63.5409L40.4201 63.7269L38.2536 60.4288C38.1407 60.2568 37.9687 60.1317 37.77 60.0774L33.9637 59.0363L32.9226 55.23C32.8683 55.0314 32.7433 54.8595 32.5712 54.7463L29.2731 52.5799L29.4591 48.6382C29.4688 48.4325 29.4031 48.2304 29.2744 48.0697L26.807 44.9902L28.2021 41.2989C28.2748 41.1063 28.2748 40.8937 28.2021 40.7011L26.807 37.0098L29.2744 33.9302C29.4031 33.7696 29.4688 33.5674 29.4591 33.3617L29.2731 29.42L32.5712 27.2536C32.7432 27.1406 32.8683 26.9686 32.9226 26.7699L33.9637 22.9636L37.77 21.9226C37.9686 21.8682 38.1405 21.7433 38.2536 21.5711L40.4201 18.273L44.3618 18.4591C44.5672 18.4687 44.7696 18.4031 44.9302 18.2743L48.0098 15.807L51.7011 17.202C51.8938 17.2748 52.1063 17.2748 52.2989 17.202L55.9902 15.807L59.0698 18.2743C59.2304 18.4032 59.4327 18.4688 59.6382 18.4591L63.5799 18.273L65.7464 21.5711C65.8593 21.7432 66.0313 21.8682 66.23 21.9226L70.0363 22.9636L71.0774 26.7699C71.1317 26.9685 71.2567 27.1404 71.4288 27.2536L74.7269 29.42L74.5409 33.3617C74.5312 33.5675 74.5969 33.7696 74.7256 33.9302L77.193 37.0098L75.7979 40.7011C75.7253 40.8938 75.7253 41.1063 75.798 41.2989Z" fill="white"/>
<path d="M67.8872 26.4003C67.6768 26.1713 67.4585 25.9435 67.2382 25.7232C67.0179 25.503 66.7902 25.2847 66.5611 25.0743C66.2172 24.7585 65.6823 24.7813 65.3665 25.1253C65.0507 25.4693 65.0735 26.0042 65.4175 26.32C65.6288 26.514 65.8391 26.7155 66.0424 26.9188C66.2456 27.1221 66.4472 27.3325 66.6414 27.5438C66.8081 27.7255 67.0359 27.8175 67.2645 27.8175C67.4688 27.8175 67.6737 27.7439 67.836 27.5949C68.18 27.2792 68.2029 26.7443 67.8872 26.4003Z" fill="white"/>
<path d="M63.5585 22.7671C59.4811 20.1694 54.572 19.0149 49.7359 19.5156C44.829 20.0239 40.2021 22.2284 36.7073 25.7231C32.8611 29.5693 30.6218 34.6786 30.4018 40.1099C30.1832 45.5093 31.9715 50.7515 35.4375 54.8707C35.6047 55.0694 35.8439 55.1718 36.085 55.1718C36.2772 55.1718 36.4704 55.1066 36.6289 54.9733C36.9861 54.6726 37.0321 54.1393 36.7315 53.782C33.5378 49.9863 31.89 45.1552 32.0914 40.1785C32.2941 35.1727 34.3579 30.4637 37.9029 26.9189C41.1239 23.6978 45.3882 21.666 49.91 21.1976C54.3687 20.7356 58.8929 21.7997 62.6498 24.1932C63.0437 24.4441 63.5662 24.3283 63.8171 23.9345C64.0681 23.5406 63.9522 23.018 63.5585 22.7671Z" fill="white"/>
<path d="M70.1945 29.4029C69.9436 29.009 69.4207 28.8932 69.0271 29.1441C68.6331 29.395 68.5174 29.9177 68.7684 30.3114C71.1619 34.0685 72.2257 38.5929 71.764 43.0512C71.2956 47.5731 69.2637 51.8373 66.0427 55.0585C62.4978 58.6033 57.7889 60.6673 52.7832 60.87C47.8073 61.0723 42.9753 59.4237 39.1797 56.2301C38.8224 55.9294 38.2891 55.9754 37.9884 56.3327C37.6877 56.6899 37.7337 57.2233 38.091 57.524C41.985 60.8004 46.8819 62.5777 51.9671 62.5776C52.2612 62.5776 52.5566 62.5716 52.8519 62.5597C58.2832 62.3398 63.3924 60.1005 67.2386 56.2543C70.7334 52.7595 72.9381 48.1325 73.4462 43.2256C73.947 38.3892 72.7922 33.4803 70.1945 29.4029Z" fill="white"/>
</svg>
