<svg width="105" height="81" viewBox="0 0 105 81" fill="none" xmlns="http://www.w3.org/2000/svg">
<path d="M11.2737 16.5537C12.948 6.98294 21.2585 0 30.9746 0H105L93.7263 64.4463C92.052 74.0171 83.7415 81 74.0254 81H0L11.2737 16.5537Z" fill="#3181D7"/>
<path fill-rule="evenodd" clip-rule="evenodd" d="M76.6605 48.446L76.7269 48.563C78.2137 51.1652 79 54.1264 79 57.1234C79 63.3686 73.9188 68.4498 67.674 68.4498H67.3606C63.3166 68.4498 59.7847 66.2515 57.8722 62.9922C56.5619 64.288 55.1738 65.5188 53.7236 66.6538C52.2428 67.8131 50.3937 68.4498 48.5161 68.4498C46.6385 68.4498 44.7894 67.8131 43.3086 66.6555C31.6734 57.547 25 43.8509 25 29.0768V15.6533L29.1328 17.7193C31.6909 18.9994 34.5556 19.6756 37.4172 19.6756C41.087 19.6756 44.6402 18.5996 47.6941 16.5643L48.5161 16.0157L49.3382 16.5643C52.3921 18.5996 55.9453 19.6756 59.615 19.6756C62.4759 19.6756 65.3405 18.9994 67.8994 17.7193L72.0323 15.6533V29.0768C72.0323 33.5307 71.4097 37.9064 70.1989 42.1464C71.297 40.3594 72.9432 38.9275 74.9161 38.1382L76.6848 37.4301L75.6841 42.4347C75.5727 42.9948 75.5161 43.5677 75.5161 44.1375C75.5161 45.6468 75.9116 47.137 76.6605 48.446ZM49.3871 66.6339C50.5698 66.4769 51.7057 66.0214 52.6498 65.2819C54.2072 64.0635 55.6842 62.723 57.0706 61.3145C56.6151 60.1084 56.3548 58.8079 56.3548 57.444C56.3548 55.3678 57.0412 53.3086 58.2864 51.6479C58.7266 51.0623 58.9677 50.3368 58.9677 49.6053V47.2093L60.389 47.6822C61.2306 47.9629 62.0387 48.3452 62.7923 48.8147C62.3951 45.7017 63.2669 42.5202 65.2555 40.0345L66.8064 38.0956V40.5788C66.8064 42.0282 67.0408 43.4779 67.4865 44.8588C69.342 39.7946 70.2903 34.4948 70.2903 29.0768V18.4716L68.6789 19.2775C65.8798 20.6771 62.7459 21.4175 59.615 21.4175C55.9985 21.4175 52.4903 20.4521 49.3871 18.6345L48.5161 18.1029L47.6452 18.6345C46.0023 19.5969 44.2468 20.3148 42.4194 20.78L40.6774 21.1466C39.6053 21.3197 38.5174 21.4175 37.4172 21.4175C36.1746 21.4175 34.9324 21.2963 33.7097 21.0679L31.9677 20.6605C30.7221 20.3139 29.5088 19.8551 28.3542 19.2775L26.7419 18.4716V27.5143L26.7462 29.2562C26.7496 30.1315 26.7768 31.0024 26.8283 31.8691L26.9763 33.6111C27.0617 34.488 27.1715 35.359 27.3054 36.224L27.6129 37.9659C27.7834 38.8445 27.9803 39.7155 28.2015 40.5788L28.6735 42.3208C28.9368 43.2019 29.2294 44.072 29.5445 44.9337L30.2173 46.6756C30.5822 47.5585 30.9705 48.4303 31.3902 49.2885L32.3003 51.0304C32.7821 51.9159 33.2848 52.7907 33.8254 53.6433L34.9987 55.3853C35.6221 56.2754 36.2694 57.1506 36.9584 57.9982L38.4511 59.7401C39.2629 60.6421 40.1207 61.5097 41.0091 62.353L42.9497 64.0949C43.0024 64.1397 43.055 64.1844 43.1077 64.2292C43.5268 64.5853 43.9461 64.9416 44.3824 65.2827C45.3265 66.0214 46.4625 66.4778 47.6452 66.6347C48.0444 66.6658 48.9516 66.7091 49.3871 66.6339ZM67.3606 66.7078H67.674C72.9581 66.7078 77.2581 62.4079 77.2581 57.1234C77.2581 54.428 76.5508 51.767 75.2138 49.4259L75.1478 49.3093C74.2488 47.7388 73.7742 45.9501 73.7742 44.1375C73.7742 43.4528 73.8422 42.7656 73.9753 42.0924L74.3168 40.3862C72.6238 41.4383 71.345 43.1045 70.7913 45.0417C70.3835 46.4672 69.3904 47.6639 68.0657 48.3261L67.287 48.7152L66.7142 47.5691C66.0401 46.2193 65.5638 44.7691 65.3014 43.2823C64.3624 45.3908 64.1736 47.7911 64.8208 50.0574L65.9538 54.0231L63.5769 51.6462C62.7523 50.8203 61.7733 50.1497 60.7088 49.6734C60.6939 50.7561 60.3308 51.8265 59.6801 52.692C58.6594 54.0541 58.0968 55.7421 58.0968 57.444C58.0968 62.5525 62.2522 66.7078 67.3606 66.7078Z" fill="white"/>
<path d="M73.7036 50.2934L73.6356 50.1752C73.2762 49.5445 72.9713 48.879 72.7289 48.1943L72.2028 46.7041L71.2238 47.9446C70.5838 48.7552 69.7617 49.4259 68.8452 49.8839L67.0523 50.7795L66.863 55.6387L61.7916 52.6597L61.3378 53.3584C61.2532 53.4881 61.1643 53.6161 61.0737 53.7382C60.2776 54.7988 59.8387 56.1159 59.8387 57.444C59.8387 61.5918 63.2129 64.9659 67.3606 64.9659H67.674C69.4236 64.9659 71.0847 64.3935 72.4762 63.3107L71.4071 61.9367C70.3243 62.7779 69.0336 63.224 67.674 63.224H67.3606C64.1736 63.224 61.5806 60.6311 61.5806 57.444C61.5806 56.5756 61.8409 55.7153 62.3219 54.9915L68.4918 58.6157L68.7529 51.8767L69.6239 51.4421C70.3452 51.0828 71.0192 50.6175 71.6185 50.0697C71.7745 50.4006 71.9434 50.7247 72.1245 51.0415L72.1926 51.1602C73.2273 52.9718 73.7742 55.0332 73.7742 57.1234C73.7742 58.483 73.3289 59.7741 72.486 60.8565L73.8605 61.9269C74.9429 60.535 75.5153 58.8743 75.5153 57.1234C75.5161 54.7304 74.8897 52.3688 73.7036 50.2934Z" fill="white"/>
<circle cx="48.7882" cy="39.6593" r="10.2593" stroke="white" stroke-width="1.8"/>
<path d="M44.5967 39.5827L47.6229 42.6534L53.5241 36.6655" stroke="white" stroke-width="1.8"/>
</svg>
