<svg width="105" height="81" viewBox="0 0 105 81" fill="none" xmlns="http://www.w3.org/2000/svg">
<path d="M11.2737 16.5537C12.948 6.98294 21.2585 0 30.9746 0H105L93.7263 64.4463C92.052 74.0171 83.7415 81 74.0254 81H0L11.2737 16.5537Z" fill="#3181D7"/>
<path d="M51.6452 25.2581H46.5161V30.3871H51.6452V25.2581ZM49.9355 28.6774H48.2258V26.9677H49.9355V28.6774Z" fill="white"/>
<path d="M40.5323 35.5161H41.3871V38.9355H43.0968V33.8065H40.5323V35.5161Z" fill="white"/>
<path d="M51.6452 33.8065H46.5161V38.9355H51.6452V33.8065ZM49.9355 37.2258H48.2258V35.5161H49.9355V37.2258Z" fill="white"/>
<path d="M37.9677 30.3871H43.0968V25.2581H37.9677V30.3871ZM39.6774 26.9677H41.3871V28.6774H39.6774V26.9677Z" fill="white"/>
<path d="M79 31.2419C79 24.1716 73.2478 18.4194 66.1774 18.4194C64.3534 18.4194 62.6203 18.8084 61.0484 19.4975V15H41.0331L33.6935 22.3396V25.2581H28.5645C27.1508 25.2581 26 26.4088 26 27.8226V54.3226C26 55.7363 27.1508 56.8871 28.5645 56.8871H37.9677V60.3065H34.5484V62.0161H60.1936V60.3065H56.7742V56.8871H61.9032V63.7258C61.9032 66.0825 63.8208 68 66.1774 68C68.5341 68 70.4516 66.0825 70.4516 63.7258V48.3387H68.7419V43.8066C74.5881 42.6149 79 37.4345 79 31.2419ZM77.2903 31.2419C77.2903 37.3694 72.3049 42.3548 66.1774 42.3548C60.05 42.3548 55.0645 37.3694 55.0645 31.2419C55.0645 25.1145 60.05 20.129 66.1774 20.129C72.3049 20.129 77.2903 25.1145 77.2903 31.2419ZM59.3387 20.4137C55.7491 22.6894 53.3548 26.6864 53.3548 31.2419C53.3548 35.7975 55.7491 39.7945 59.3387 42.0702V44.9194H35.4032V23.5484H42.2419V16.7097H59.3387V20.4137ZM36.612 21.8387L40.5323 17.9185V21.8387H36.612ZM55.0645 60.3065H39.6774V56.8871H55.0645V60.3065ZM28.5645 55.1774C28.0929 55.1774 27.7097 54.7934 27.7097 54.3226V51.7581H61.9032V55.1774H28.5645ZM61.9032 48.3387V50.0484H27.7097V27.8226C27.7097 27.3518 28.0929 26.9677 28.5645 26.9677H33.6935V46.629H61.0484V42.9864C61.864 43.3441 62.7205 43.6242 63.6129 43.8066V48.3387H61.9032ZM68.7419 63.7258C68.7419 65.1395 67.5912 66.2903 66.1774 66.2903C64.7637 66.2903 63.6129 65.1395 63.6129 63.7258V50.0484H68.7419V63.7258ZM67.0323 48.3387H65.3226V44.0211C65.6064 44.0399 65.8886 44.0645 66.1774 44.0645C66.4663 44.0645 66.7484 44.0399 67.0323 44.0211V48.3387Z" fill="white"/>
<path d="M66.1774 40.6452C71.362 40.6452 75.5806 36.4265 75.5806 31.2419C75.5806 26.0574 71.362 21.8387 66.1774 21.8387C60.9929 21.8387 56.7742 26.0574 56.7742 31.2419C56.7742 36.4265 60.9929 40.6452 66.1774 40.6452ZM66.1774 23.5484C70.4199 23.5484 73.871 27.0003 73.871 31.2419C73.871 35.4836 70.4199 38.9355 66.1774 38.9355C61.9349 38.9355 58.4839 35.4836 58.4839 31.2419C58.4839 27.0003 61.9349 23.5484 66.1774 23.5484Z" fill="white"/>
<path d="M70.4516 31.2419H72.1613C72.1613 27.9424 69.4761 25.2581 66.1774 25.2581V26.9677C68.5341 26.9677 70.4516 28.8853 70.4516 31.2419Z" fill="white"/>
<path d="M65.3226 62.871H67.0323V64.5806H65.3226V62.871Z" fill="white"/>
</svg>
