<svg width="105" height="81" viewBox="0 0 105 81" fill="none" xmlns="http://www.w3.org/2000/svg">
<path d="M11.2737 16.5537C12.948 6.98294 21.2585 0 30.9746 0H105L93.7263 64.4463C92.052 74.0171 83.7415 81 74.0254 81H0L11.2737 16.5537Z" fill="#3181D7"/>
<path fill-rule="evenodd" clip-rule="evenodd" d="M59.6502 15.0414C57.6586 14.4777 55.4279 14.1172 53.5557 14.0517C53.0113 14.0386 52.4536 14.0124 52.3275 14.0058C51.8229 13.9731 49.6587 14.0845 48.8421 14.1893C45.6089 14.6022 42.8604 15.4084 40.0455 16.7847C36.3543 18.5871 33.234 21.0645 30.6846 24.2169C30.0871 24.9641 29.0249 26.419 29.0249 26.5042C29.0249 26.5239 29.4631 26.5436 30.0075 26.5436H30.9834L31.3817 25.9996C32.2647 24.8002 33.9842 22.9389 35.053 22.0344L35.4049 21.7395L36.6464 22.041C38.658 22.526 41.287 23.0044 43.0994 23.2076C43.4845 23.2469 43.8164 23.3059 43.843 23.3256C43.8762 23.3518 43.8098 23.6533 43.6969 23.9941C43.4114 24.892 43.033 26.2814 43.033 26.4256C43.033 26.5305 43.106 26.5436 43.8562 26.5436H44.6728L44.8521 25.8816C45.0778 25.0493 45.5558 23.5746 45.6089 23.5222C45.6355 23.496 46.1201 23.5156 46.6844 23.5615C48.8885 23.745 52.1881 23.8171 54.5316 23.7385C55.7532 23.6926 57.1673 23.6271 57.6652 23.5877C58.1698 23.5484 58.6079 23.5419 58.6345 23.5746C58.6876 23.6336 59.0129 24.6102 59.2253 25.3311C59.2581 25.4538 59.3021 25.6084 59.3446 25.7579L59.345 25.7592C59.3887 25.9126 59.4308 26.0607 59.4577 26.1634L59.5706 26.5436H60.3938C61.0178 26.5436 61.2237 26.5239 61.2237 26.4584C61.2237 26.3535 60.8253 24.9378 60.5664 24.0924C60.4535 23.7385 60.3606 23.4239 60.3606 23.3977C60.3606 23.378 60.7722 23.3059 61.2768 23.2404C63.5074 22.9717 65.7448 22.5719 67.7763 22.0803L68.9115 21.7985L69.3762 22.2048C70.4584 23.1552 72.1048 24.9641 72.948 26.1176L73.2534 26.5436H74.2094C74.8666 26.5436 75.1654 26.5239 75.1654 26.4715C75.1654 26.4322 74.9928 26.1569 74.787 25.862C71.0161 20.527 65.7713 16.7716 59.6502 15.0414ZM34.9468 59.9164C33.9045 59.025 32.0589 56.9999 31.2157 55.8202L30.9967 55.5121H30.0075C29.2307 55.5121 29.0249 55.5318 29.0647 55.5908C29.9012 56.9999 31.8132 59.2675 33.3402 60.6701C37.7816 64.7467 42.9002 67.1061 48.9748 67.8795C50.1433 68.0236 53.715 68.0433 54.9499 67.9122C62.4319 67.093 69.197 63.3703 73.7779 57.5438C74.289 56.895 75.1654 55.6497 75.1654 55.5645C75.1654 55.5383 74.7339 55.5121 74.2094 55.5121H73.26L72.6824 56.2593C72.3704 56.6722 71.7862 57.3734 71.3878 57.8257C70.6974 58.5925 69.2634 60.0016 68.9447 60.2113C68.8119 60.2965 68.6991 60.2834 67.7497 60.0409C65.9174 59.5821 63.5008 59.1299 61.5556 58.8874C61.0975 58.835 60.6328 58.7694 60.5133 58.7498L60.3008 58.717L60.4668 58.2451C60.6461 57.7339 61.2237 55.6891 61.2237 55.5777C61.2237 55.5318 60.9448 55.5121 60.3872 55.5252L59.5506 55.5449L59.3316 56.3314C59.2121 56.7639 59.0129 57.4259 58.8868 57.806L58.661 58.4942H58.2295C57.9971 58.4942 57.1341 58.4483 56.3109 58.3959C53.6885 58.2255 48.0985 58.2844 45.9541 58.5007L45.5824 58.5401L45.3035 57.6684L45.2742 57.571C45.131 57.0957 44.9452 56.4787 44.8521 56.1479L44.6728 55.5121H43.8562C43.1127 55.5121 43.033 55.5252 43.033 55.6301C43.033 55.7743 43.4247 57.1768 43.6969 58.0223C43.8098 58.3828 43.8961 58.6777 43.8828 58.6842C43.8695 58.6908 43.3251 58.7629 42.6679 58.8415C40.5434 59.0971 38.4854 59.4707 36.4074 59.9754L35.3252 60.2375L34.9468 59.9164ZM59.5706 60.7094C59.3249 61.3255 58.5017 62.9378 58.0702 63.639C57.6054 64.3993 57.0411 65.1727 56.5499 65.7298C56.3441 65.9657 56.1914 66.1623 56.2046 66.182C56.2777 66.2541 58.5349 65.7166 59.7432 65.3365C61.9141 64.6549 64.6493 63.3179 66.6277 61.9743L67.212 61.5745L66.8601 61.4959C65.0809 61.0895 62.9498 60.7094 61.2569 60.4931C60.6726 60.421 60.0884 60.3489 59.9623 60.3293C59.8725 60.3192 59.8174 60.3129 59.7744 60.3326C59.7061 60.3637 59.6683 60.4601 59.5706 60.7094ZM46.233 60.1327C46.2529 60.113 47.4811 60.0409 49.2736 59.9426C50.1499 59.8967 55.4544 59.9623 56.5432 60.0344C57.8312 60.1196 57.9706 60.1392 57.9706 60.2441C57.9706 60.4407 56.7357 62.7674 56.2378 63.508C55.4876 64.6287 54.3856 65.7232 53.6221 66.1099C52.9449 66.4507 52.5068 66.549 51.9026 66.5031C51.2852 66.4507 50.9068 66.3196 50.2827 65.9198C49.3267 65.3037 48.3973 64.2289 47.4545 62.6297C47.0164 61.8826 46.1799 60.1851 46.233 60.1327ZM43.7965 60.3424C43.6903 60.3555 43.0529 60.4407 42.3824 60.5325C40.7891 60.7487 39.5409 60.9585 38.1401 61.2534C37.2505 61.4435 37.0115 61.5155 37.0646 61.5811C37.1841 61.7253 38.9302 62.8329 39.8065 63.3113C42.077 64.5631 44.5467 65.4873 47.0164 65.9985C47.5276 66.1099 47.979 66.1951 48.0188 66.1951C48.0587 66.1951 47.9325 66.0116 47.7334 65.7822C46.6579 64.5697 45.6421 62.9181 44.8189 61.0502L44.5002 60.3293L44.2479 60.3227C44.1085 60.3162 43.9094 60.3227 43.7965 60.3424ZM37.9742 19.8323C41.0148 17.8661 43.9226 16.6798 47.4811 15.9392C47.6471 15.8999 47.8529 15.8737 47.9458 15.8672C48.0985 15.8606 48.0985 15.8672 47.8728 16.1031C46.8504 17.1648 45.589 19.2031 44.7791 21.071L44.5002 21.7264L44.2479 21.7067C43.0795 21.615 39.7268 21.071 38.1202 20.7105C38.0512 20.6958 37.9832 20.6813 37.9176 20.6673C37.5174 20.5817 37.2003 20.5139 37.1775 20.5139C36.9916 20.5139 37.2306 20.3107 37.9742 19.8323ZM51.1923 15.6836C49.6587 16.2014 48.1981 17.8399 46.857 20.5467C46.5516 21.1562 46.2861 21.7133 46.2662 21.7723C46.233 21.864 46.2861 21.8903 46.5716 21.923C48.218 22.1 52.5333 22.1917 54.8835 22.0934C57.705 21.9755 57.9706 21.9558 57.9706 21.8313C57.9706 21.6674 56.9748 19.6947 56.5499 19.0262C55.6868 17.6498 54.8304 16.693 53.954 16.1228C53.0312 15.5329 52.0951 15.3822 51.1923 15.6836ZM58.0104 18.2987C57.6254 17.6892 56.8685 16.6602 56.4104 16.1359C56.2979 16.0096 56.2277 15.9319 56.2451 15.897C56.273 15.8413 56.5237 15.8941 57.1806 16.031C60.2942 16.6798 63.4278 17.9906 66.256 19.8323C66.7738 20.1666 67.1987 20.468 67.1987 20.5008C67.1987 20.6647 62.2527 21.5232 60.1614 21.7264L59.7299 21.7657L59.4975 21.1955C59.1921 20.4287 58.4818 19.0524 58.0104 18.2987Z" fill="white"/>
<path d="M36.912 46.5312V51.8445L39.1753 51.8636C41.8263 51.8833 42.5003 51.9095 43.6478 52.0323L43.6521 52.0328C46.8072 52.3867 49.9132 52.3027 52.0561 51.825L52.0581 51.8246C54.0068 51.395 55.3392 50.7352 56.352 49.7813L56.3532 49.7802C57.2803 48.9104 57.7828 47.9765 58.0377 46.6071C58.1042 46.2463 58.1307 45.6704 58.107 45.0545C58.0832 44.4382 58.0122 43.866 57.9188 43.513L57.9188 43.5129C57.645 42.4776 57.0532 41.5284 56.3892 40.9839L56.3835 40.9793L56.3836 40.9793C55.9028 40.5781 55.0885 40.1057 54.4572 39.861C53.0843 39.3299 51.9944 39.0971 48.9698 38.719C47.2214 38.504 46.0884 38.3395 45.3077 38.1381C44.4833 37.9255 43.9779 37.6535 43.5245 37.2023C42.5082 36.2058 42.7077 34.5919 43.8894 33.8277C44.8322 33.2059 45.8062 33.0668 47.5142 33.0668H47.5174C49.2898 33.0737 50.9351 33.3242 52.2049 33.8197L52.208 33.821L52.6064 33.9783L53.1294 34.1848L53.1439 34.7469L53.1623 35.459H57.1868V30.0804L54.8309 30.0611C54.8307 30.0611 54.8306 30.0611 54.8304 30.0611C52.0506 30.0414 51.4225 30.0155 50.3343 29.8847C49.7963 29.8206 48.7596 29.7624 47.7247 29.7297C46.6816 29.6967 45.7226 29.6924 45.3253 29.7241C40.951 30.0814 38.4295 31.504 37.3567 33.694L36.912 46.5312ZM36.912 46.5312H40.9215V47.1231V47.6455L41.3876 47.8814L41.6465 48.0125L41.6465 48.0125L41.6518 48.0152C42.1813 48.2786 42.9188 48.4777 43.716 48.6174C44.5282 48.7597 45.4604 48.8502 46.4122 48.8708C46.4127 48.8708 46.4132 48.8708 46.4137 48.8708L46.432 48.021M36.912 46.5312L49.2417 43.7852C48.5339 43.623 47.5555 43.4777 46.1272 43.2978M46.432 48.021C49.5789 48.0996 50.9929 47.5491 50.9996 46.2383C50.9996 45.7271 50.8535 45.4518 50.4154 45.1503M46.432 48.021C44.6063 47.9817 42.8736 47.6736 42.0304 47.2542L46.432 48.021ZM50.4154 45.1503L50.9025 44.4538C50.9016 44.4531 50.9007 44.4525 50.8998 44.4519C50.8989 44.4513 50.898 44.4507 50.8972 44.4501L50.4154 45.1503ZM50.4154 45.1503C49.778 44.7047 48.8818 44.5015 46.0204 44.141M46.0204 44.141L46.1281 43.2979C46.1278 43.2978 46.1275 43.2978 46.1272 43.2978M46.0204 44.141C42.5814 43.7019 41.2205 43.3939 39.7267 42.6992M46.0204 44.141L46.1266 43.2977C46.1268 43.2977 46.127 43.2977 46.1272 43.2978M46.1272 43.2978L39.7267 42.6992M39.7267 42.6992C37.3433 41.585 36.1682 39.8875 35.9292 37.2135L39.7267 42.6992ZM75.4389 29.8422L75.4354 29.8416C75.1299 29.795 74.327 29.748 73.4717 29.7224C72.6145 29.6966 71.8345 29.6963 71.5656 29.7226C69.6629 29.9181 68.1589 30.3111 66.781 30.9515C63.5133 32.4802 61.4792 35.3028 60.9708 39.0943C60.9214 39.4703 60.8884 40.16 60.8818 40.88C60.8752 41.6022 60.896 42.2776 60.9386 42.6289C61.1765 44.5626 61.7663 46.1899 62.7074 47.6017C63.4662 48.7334 64.9163 50.0251 66.2723 50.752L66.2731 50.7524C68.2783 51.83 71.1489 52.3953 74.0067 52.2321L75.4389 29.8422ZM75.4389 29.8422C78.2524 30.2594 80.4337 31.2938 82.1104 32.9427C84.1464 34.9529 85.1563 37.5391 85.15 40.9608V40.9624M75.4389 29.8422L85.15 40.9624M85.15 40.9624C85.15 42.6181 84.9672 43.8218 84.5439 45.0819M85.15 40.9624L84.5439 45.0819M84.5439 45.0819C83.1165 49.3155 79.4247 51.9134 74.008 52.232L84.5439 45.0819ZM19.8633 49.8175L19.8539 47.7765H22.8506H23.7006V46.9265V35.1293V34.2852L22.8564 34.2793L20.9539 34.2663L20.9511 34.2662L19.8774 34.2552L19.8633 32.1892L19.8633 32.1873L19.8539 30.1463H33.4859V34.2793H30.4853H29.6353V35.1293V46.9265V47.7765H30.4853H33.4859V51.9077L19.8774 51.8785L19.8633 49.8194L19.8633 49.8175ZM67.3794 38.9881L67.3791 38.9901C67.2933 39.6053 67.2696 40.5209 67.289 41.3757C67.3082 42.2225 67.3719 43.1093 67.4899 43.6528L67.4903 43.6549C67.8309 45.2053 68.4651 46.4566 69.4802 47.2957C70.5049 48.1428 71.8094 48.4806 73.3058 48.4113L73.3062 48.4113C74.0556 48.3762 74.7006 48.2758 75.2918 48.0407C75.8923 47.8019 76.3837 47.4457 76.8581 46.974C78.2558 45.6008 78.7304 43.749 78.7372 40.9644V40.9624C78.7372 38.6634 78.4022 37.0593 77.4857 35.6932C76.8169 34.6876 75.7479 33.9638 74.567 33.6802L74.5671 33.6801L74.5559 33.6776C74.2077 33.5989 73.7244 33.5518 73.2793 33.5329C72.8376 33.5142 72.3478 33.5195 71.9896 33.5747C70.7018 33.7697 69.6311 34.3337 68.8358 35.2918C68.0546 36.2328 67.5922 37.4895 67.3794 38.9881Z" stroke="white" stroke-width="1.7"/>
</svg>
