<svg width="105" height="81" viewBox="0 0 105 81" fill="none" xmlns="http://www.w3.org/2000/svg">
<path d="M11.2737 16.5537C12.948 6.98294 21.2585 0 30.9746 0H105L93.7263 64.4463C92.052 74.0171 83.7415 81 74.0254 81H0L11.2737 16.5537Z" fill="#3181D7"/>
<path d="M54.5161 40.6774H52.8387V42.3548H51.1613V44.0323H52.8387V45.7097H54.5161V44.0323H56.1935V42.3548H54.5161V40.6774Z" fill="white"/>
<path d="M78 28.9355V20.5484H73.8064V17.3913L76.0023 13H66.5783L68.7742 17.3913V20.5484H66.6303C66.0484 19.5504 64.9783 18.871 63.7419 18.871H50.3226C48.4723 18.871 46.9677 20.3756 46.9677 22.2258H42.7742V18.871H30.1935C27.8814 18.871 26 20.7523 26 23.0645V23.9032H35.2258V25.5806H26V26.4194C26 28.7315 27.8814 30.6129 30.1935 30.6129H42.7742V27.2581H46.9677C46.9677 29.1083 48.4723 30.6129 50.3226 30.6129H50.8595L48.0833 39.4984C47.3797 40.5582 46.9677 41.8282 46.9677 43.1935C46.9677 46.8932 49.9778 49.9032 53.6774 49.9032C54.0087 49.9032 54.3323 49.8713 54.6513 49.8242L56.0089 56.6129H54.8364L53.159 59.9677H51.1613V65H78V59.9677H76.0023L74.3249 56.6129H72.9677V50.2673L60.5128 42.7943L63.5572 30.6129H63.7419C64.9783 30.6129 66.0484 29.9335 66.6303 28.9355H68.7742V31.2538L66.5783 35.6452H76.0023L73.8064 31.2538V28.9355H78ZM27.8208 22.2258C28.1672 21.2495 29.0997 20.5484 30.1935 20.5484H41.0968V22.2258H27.8208ZM41.0968 28.9355H30.1935C29.0997 28.9355 28.1672 28.2344 27.8208 27.2581H41.0968V28.9355ZM36.9032 25.5806V23.9032H46.9677V25.5806H36.9032ZM48.6452 43.1935C48.6452 40.4182 50.9021 38.1613 53.6774 38.1613C56.4528 38.1613 58.7097 40.4182 58.7097 43.1935C58.7097 45.9689 56.4528 48.2258 53.6774 48.2258C50.9021 48.2258 48.6452 45.9689 48.6452 43.1935ZM60.2397 44.5868L65.7793 47.9105L56.8074 52.0512L56.2734 49.3798C58.2727 48.5379 59.7798 46.754 60.2397 44.5868ZM67.3994 48.8827L70.3132 50.6314L57.6486 56.2599L57.1453 53.7429L67.4481 48.9883L67.3994 48.8827ZM76.3226 63.3226H52.8387V61.6452H76.3226V63.3226ZM74.1267 59.9677H55.0346L55.8733 58.2903H73.288L74.1267 59.9677ZM60.9842 56.6129L71.2903 52.0328V56.6129H60.9842ZM59.5099 39.8899C58.355 37.8595 56.1759 36.4839 53.6774 36.4839C52.5426 36.4839 51.4742 36.7689 50.5364 37.2689L52.6163 30.6129H61.8299L59.5099 39.8899ZM65.4194 27.2581C65.4194 28.1832 64.6671 28.9355 63.7419 28.9355H50.3226C49.3975 28.9355 48.6452 28.1832 48.6452 27.2581V22.2258C48.6452 21.3007 49.3975 20.5484 50.3226 20.5484H63.7419C64.6671 20.5484 65.4194 21.3007 65.4194 22.2258V27.2581ZM73.288 14.6774L72.4493 16.3548H70.1314L69.2927 14.6774H73.288ZM70.4516 18.0323H72.129V20.5484H70.4516V18.0323ZM76.3226 22.2258V23.9032H67.0968V22.2258H76.3226ZM67.0968 25.5806H76.3226V27.2581H67.0968V25.5806ZM69.2927 33.9677L70.1314 32.2903H72.4493L73.288 33.9677H69.2927ZM72.129 30.6129H70.4516V28.9355H72.129V30.6129Z" fill="white"/>
<path d="M53.6774 22.2258C52.2904 22.2258 51.1613 23.3549 51.1613 24.7419C51.1613 26.129 52.2904 27.2581 53.6774 27.2581C55.0645 27.2581 56.1935 26.129 56.1935 24.7419C56.1935 23.3549 55.0645 22.2258 53.6774 22.2258ZM53.6774 25.5806C53.2147 25.5806 52.8387 25.2039 52.8387 24.7419C52.8387 24.28 53.2147 23.9032 53.6774 23.9032C54.1402 23.9032 54.5161 24.28 54.5161 24.7419C54.5161 25.2039 54.1402 25.5806 53.6774 25.5806Z" fill="white"/>
<path d="M60.3871 22.2258C59 22.2258 57.871 23.3549 57.871 24.7419C57.871 26.129 59 27.2581 60.3871 27.2581C61.7742 27.2581 62.9032 26.129 62.9032 24.7419C62.9032 23.3549 61.7742 22.2258 60.3871 22.2258ZM60.3871 25.5806C59.9243 25.5806 59.5484 25.2039 59.5484 24.7419C59.5484 24.28 59.9243 23.9032 60.3871 23.9032C60.8499 23.9032 61.2258 24.28 61.2258 24.7419C61.2258 25.2039 60.8499 25.5806 60.3871 25.5806Z" fill="white"/>
<path d="M43.5527 51.1723L44.9095 49.5469L41.4531 46.0897L39.8277 47.4473C39.4628 47.2638 39.0856 47.1078 38.6974 46.9796L38.5086 44.871H33.6205L33.4309 46.9804C33.0426 47.1086 32.665 47.2646 32.3006 47.4485L30.6752 46.0905L27.2188 49.5478L28.5755 51.1732C28.392 51.5372 28.236 51.9144 28.1078 52.3026L26 52.4914V57.3795L28.1095 57.5691C28.2368 57.9566 28.3937 58.335 28.5776 58.6986L27.2204 60.324L30.6768 63.7812L32.3022 62.4237C32.6671 62.6071 33.0443 62.7632 33.4325 62.8913L33.6205 65H38.5086L38.6982 62.8905C39.0864 62.7623 39.464 62.6063 39.8285 62.4224L41.4539 63.7804L44.9103 60.3232L43.5535 58.6978C43.737 58.3337 43.893 57.9566 44.0212 57.5683L46.129 57.3795V52.4914L44.0196 52.3018C43.8922 51.9136 43.7354 51.536 43.5527 51.1723ZM44.4516 55.8463L42.7078 56.0031L42.5621 56.5801C42.4036 57.21 42.1546 57.8116 41.8212 58.3673L41.5161 58.8784L42.639 60.2229L41.3519 61.5108L40.0066 60.3871L39.4963 60.6922C38.9414 61.0243 38.3398 61.2737 37.7084 61.433L37.1313 61.5788L36.9753 63.3226H35.1537L34.9969 61.5788L34.4199 61.433C33.7884 61.2737 33.1868 61.0243 32.6319 60.6922L32.1224 60.3871L30.7771 61.51L29.49 60.2221L30.6129 58.8784L30.3078 58.3673C29.9757 57.8116 29.7263 57.21 29.567 56.5801L29.4212 56.0031L27.6774 55.8463V54.0247L29.4212 53.8678L29.567 53.2908C29.7255 52.661 29.9745 52.0594 30.3078 51.5037L30.6129 50.9926L29.49 49.6481L30.7771 48.3601L32.1224 49.4839L32.6327 49.1788C33.1876 48.8466 33.7892 48.5972 34.4207 48.4379L34.9977 48.2921L35.1537 46.5484H36.9753L37.1322 48.2921L37.7092 48.4379C38.3407 48.5972 38.9423 48.8466 39.4972 49.1788L40.0066 49.4839L41.3519 48.361L42.639 49.6489L41.5161 50.9926L41.8212 51.5037C42.1534 52.0594 42.4028 52.661 42.5621 53.2908L42.7078 53.8678L44.4516 54.0247V55.8463Z" fill="white"/>
<path d="M36.0645 49.9032C33.2892 49.9032 31.0323 52.1601 31.0323 54.9355C31.0323 57.7108 33.2892 59.9677 36.0645 59.9677C38.8399 59.9677 41.0968 57.7108 41.0968 54.9355C41.0968 52.1601 38.8399 49.9032 36.0645 49.9032ZM36.0645 58.2903C34.2143 58.2903 32.7097 56.7857 32.7097 54.9355C32.7097 53.0852 34.2143 51.5806 36.0645 51.5806C37.9148 51.5806 39.4194 53.0852 39.4194 54.9355C39.4194 56.7857 37.9148 58.2903 36.0645 58.2903Z" fill="white"/>
<path d="M35.2258 32.2903H36.9032V33.9677H35.2258V32.2903Z" fill="white"/>
<path d="M35.2258 35.6452H36.9032V37.3226H35.2258V35.6452Z" fill="white"/>
<path d="M35.2258 39H36.9032V40.6774H35.2258V39Z" fill="white"/>
</svg>
