<svg width="15" height="12" viewBox="0 0 15 12" fill="none" xmlns="http://www.w3.org/2000/svg">
<mask id="mask0" mask-type="alpha" maskUnits="userSpaceOnUse" x="0" y="0" width="15" height="12">
<rect x="15" y="12" width="15" height="12" rx="2" transform="rotate(-180 15 12)" fill="#C4C4C4"/>
</mask>
<g mask="url(#mask0)">
<rect x="-1" width="17" height="12" fill="#C61E1E"/>
<path d="M5 1H15.5" stroke="#F2F2F2"/>
<path d="M5 3H15.5" stroke="#F2F2F2"/>
<path d="M0 5L15 5" stroke="#F2F2F2"/>
<path d="M0 7L15 7" stroke="#F2F2F2"/>
<path d="M0 9L15 9" stroke="#F2F2F2"/>
<path d="M0 11L15 11" stroke="#F2F2F2"/>
<path d="M-1 0H7V6.5H-1L-1 0Z" fill="#496CC4"/>
</g>
<path d="M1.5 1L1.61226 1.34549H1.97553L1.68164 1.55902L1.79389 1.90451L1.5 1.69098L1.20611 1.90451L1.31836 1.55902L1.02447 1.34549H1.38774L1.5 1Z" fill="#F2F2F2"/>
<path d="M2.5 1L2.61226 1.34549H2.97553L2.68164 1.55902L2.79389 1.90451L2.5 1.69098L2.20611 1.90451L2.31836 1.55902L2.02447 1.34549H2.38774L2.5 1Z" fill="#F2F2F2"/>
<path d="M3.5 1L3.61226 1.34549H3.97553L3.68164 1.55902L3.79389 1.90451L3.5 1.69098L3.20611 1.90451L3.31836 1.55902L3.02447 1.34549H3.38774L3.5 1Z" fill="#F2F2F2"/>
<path d="M4.5 1L4.61226 1.34549H4.97553L4.68164 1.55902L4.79389 1.90451L4.5 1.69098L4.20611 1.90451L4.31836 1.55902L4.02447 1.34549H4.38774L4.5 1Z" fill="#F2F2F2"/>
<path d="M5.5 1L5.61226 1.34549H5.97553L5.68164 1.55902L5.79389 1.90451L5.5 1.69098L5.20611 1.90451L5.31836 1.55902L5.02447 1.34549H5.38774L5.5 1Z" fill="#F2F2F2"/>
<path d="M1.5 2L1.61226 2.34549H1.97553L1.68164 2.55902L1.79389 2.90451L1.5 2.69098L1.20611 2.90451L1.31836 2.55902L1.02447 2.34549H1.38774L1.5 2Z" fill="#F2F2F2"/>
<path d="M2.5 2L2.61226 2.34549H2.97553L2.68164 2.55902L2.79389 2.90451L2.5 2.69098L2.20611 2.90451L2.31836 2.55902L2.02447 2.34549H2.38774L2.5 2Z" fill="#F2F2F2"/>
<path d="M3.5 2L3.61226 2.34549H3.97553L3.68164 2.55902L3.79389 2.90451L3.5 2.69098L3.20611 2.90451L3.31836 2.55902L3.02447 2.34549H3.38774L3.5 2Z" fill="#F2F2F2"/>
<path d="M4.5 2L4.61226 2.34549H4.97553L4.68164 2.55902L4.79389 2.90451L4.5 2.69098L4.20611 2.90451L4.31836 2.55902L4.02447 2.34549H4.38774L4.5 2Z" fill="#F2F2F2"/>
<path d="M5.5 2L5.61226 2.34549H5.97553L5.68164 2.55902L5.79389 2.90451L5.5 2.69098L5.20611 2.90451L5.31836 2.55902L5.02447 2.34549H5.38774L5.5 2Z" fill="#F2F2F2"/>
<path d="M1.5 3L1.61226 3.34549H1.97553L1.68164 3.55902L1.79389 3.90451L1.5 3.69098L1.20611 3.90451L1.31836 3.55902L1.02447 3.34549H1.38774L1.5 3Z" fill="#F2F2F2"/>
<path d="M2.5 3L2.61226 3.34549H2.97553L2.68164 3.55902L2.79389 3.90451L2.5 3.69098L2.20611 3.90451L2.31836 3.55902L2.02447 3.34549H2.38774L2.5 3Z" fill="#F2F2F2"/>
<path d="M3.5 3L3.61226 3.34549H3.97553L3.68164 3.55902L3.79389 3.90451L3.5 3.69098L3.20611 3.90451L3.31836 3.55902L3.02447 3.34549H3.38774L3.5 3Z" fill="#F2F2F2"/>
<path d="M4.5 3L4.61226 3.34549H4.97553L4.68164 3.55902L4.79389 3.90451L4.5 3.69098L4.20611 3.90451L4.31836 3.55902L4.02447 3.34549H4.38774L4.5 3Z" fill="#F2F2F2"/>
<path d="M5.5 3L5.61226 3.34549H5.97553L5.68164 3.55902L5.79389 3.90451L5.5 3.69098L5.20611 3.90451L5.31836 3.55902L5.02447 3.34549H5.38774L5.5 3Z" fill="#F2F2F2"/>
<path d="M1.5 4L1.61226 4.34549H1.97553L1.68164 4.55902L1.79389 4.90451L1.5 4.69098L1.20611 4.90451L1.31836 4.55902L1.02447 4.34549H1.38774L1.5 4Z" fill="#F2F2F2"/>
<path d="M2.5 4L2.61226 4.34549H2.97553L2.68164 4.55902L2.79389 4.90451L2.5 4.69098L2.20611 4.90451L2.31836 4.55902L2.02447 4.34549H2.38774L2.5 4Z" fill="#F2F2F2"/>
<path d="M3.5 4L3.61226 4.34549H3.97553L3.68164 4.55902L3.79389 4.90451L3.5 4.69098L3.20611 4.90451L3.31836 4.55902L3.02447 4.34549H3.38774L3.5 4Z" fill="#F2F2F2"/>
<path d="M4.5 4L4.61226 4.34549H4.97553L4.68164 4.55902L4.79389 4.90451L4.5 4.69098L4.20611 4.90451L4.31836 4.55902L4.02447 4.34549H4.38774L4.5 4Z" fill="#F2F2F2"/>
<path d="M5.5 4L5.61226 4.34549H5.97553L5.68164 4.55902L5.79389 4.90451L5.5 4.69098L5.20611 4.90451L5.31836 4.55902L5.02447 4.34549H5.38774L5.5 4Z" fill="#F2F2F2"/>
</svg>
