<svg width="23" height="10" viewBox="0 0 23 10" fill="none" xmlns="http://www.w3.org/2000/svg">
<path fill-rule="evenodd" clip-rule="evenodd" d="M14.5319 9.0591C19.8267 9.05234 18.921 9.11556 20.3393 1.14033C20.6266 -0.474691 22.4057 -9.62337 22.2698 -10.4329C17.1517 -10.5767 17.7964 -10.0457 16.5456 -2.57547C16.2304 -0.692911 15.8749 1.2362 15.5469 3.14437C15.2139 5.08157 14.7428 7.12199 14.5319 9.0591Z" fill="#3181D7"/>
<path fill-rule="evenodd" clip-rule="evenodd" d="M7.25751 9.0459C12.5025 9.22679 11.7452 8.78569 13.0792 1.06648C13.4132 -0.866066 13.7369 -2.70388 14.082 -4.66127C14.3904 -6.41044 14.9374 -8.7499 15.0593 -10.437C9.77501 -10.4571 10.6319 -10.336 9.27461 -2.54507C8.60751 1.28441 7.75251 5.28659 7.25751 9.0459Z" fill="#3181D7"/>
<path fill-rule="evenodd" clip-rule="evenodd" d="M0 9.05632C5.2364 9.07079 4.4399 8.9078 5.8018 1.10461C6.1349 -0.80432 6.4603 -2.7083 6.8086 -4.63542C7.0066 -5.73098 7.8106 -9.50343 7.7516 -10.4224C2.5237 -10.7433 3.2289 -9.69432 2.0082 -2.60843C1.5218 0.215359 0.2288 6.74323 0 9.05632Z" fill="#3181D7"/>
</svg>
