<svg width="26" height="26" viewBox="0 0 26 26" fill="none" xmlns="http://www.w3.org/2000/svg">
<path d="M18.6875 13H15.4375C14.9887 13 14.625 13.3638 14.625 13.8125V20.3125C14.625 20.7613 14.9887 21.125 15.4375 21.125H18.6875C19.585 21.125 20.3125 20.3975 20.3125 19.5V14.625C20.3125 13.7275 19.585 13 18.6875 13ZM18.6875 19.5H16.25V14.625H18.6875V19.5Z" fill="white"/>
<path d="M26 14.625V13H21.9375C21.4887 13 21.125 13.3638 21.125 13.8125V21.125H22.75V17.875H26V16.25H22.75V14.625H26Z" fill="white"/>
<path d="M1.625 23.5625V2.43751C1.625 1.98876 1.98875 1.62501 2.4375 1.62501H14.625V4.87501C14.625 5.77247 15.3525 6.50001 16.25 6.50001H19.5V8.93751H21.125V5.68751C21.1263 5.47154 21.0415 5.26394 20.8894 5.11064L16.0144 0.235638C15.8611 0.0835481 15.6535 -0.00120579 15.4375 1.29644e-05H2.4375C1.09129 1.29644e-05 0 1.09135 0 2.43751V23.5625C0 24.9087 1.09129 26 2.4375 26H8.125V24.375H2.4375C1.9888 24.375 1.625 24.0113 1.625 23.5625Z" fill="white"/>
<path d="M12.1875 13H8.9375C8.48875 13 8.125 13.3638 8.125 13.8125V21.125H9.75V18.6875H12.1875C13.085 18.6875 13.8125 17.96 13.8125 17.0625V14.625C13.8125 13.7275 13.085 13 12.1875 13ZM12.1875 17.0625H9.75V14.625H12.1875V17.0625Z" fill="white"/>
</svg>
