<svg width="15" height="12" viewBox="0 0 15 12" fill="none" xmlns="http://www.w3.org/2000/svg">
<mask id="mask0" mask-type="alpha" maskUnits="userSpaceOnUse" x="0" y="0" width="15" height="12">
<rect x="15" y="12" width="15" height="12" rx="2" transform="rotate(-180 15 12)" fill="#C4C4C4"/>
</mask>
<g mask="url(#mask0)">
<rect x="-1" width="17" height="4" fill="#496CC3"/>
<rect x="-0.75" y="4.25" width="16.5" height="3.5" fill="#F2F2F2" stroke="#EE1A26" stroke-width="0.5"/>
<rect x="-1" y="8" width="17" height="4" fill="#27AE60"/>
</g>
<path fill-rule="evenodd" clip-rule="evenodd" d="M3 3C3.08632 3 3.17009 2.98906 3.25 2.9685C2.81869 2.85748 2.5 2.46596 2.5 2C2.5 1.53404 2.81869 1.14252 3.25 1.0315C3.17009 1.01094 3.08632 1 3 1C2.44772 1 2 1.44772 2 2C2 2.55228 2.44772 3 3 3Z" fill="white"/>
<path d="M5 1H5.5" stroke="#F2F2F2" stroke-width="0.2"/>
<path d="M6 1H6.5" stroke="#F2F2F2" stroke-width="0.2"/>
<path d="M7 1H7.5" stroke="#F2F2F2" stroke-width="0.2"/>
<path d="M5 2H5.5" stroke="#F2F2F2" stroke-width="0.2"/>
<path d="M6 2H6.5" stroke="#F2F2F2" stroke-width="0.2"/>
<path d="M7 2H7.5" stroke="#F2F2F2" stroke-width="0.2"/>
<path d="M8 2H8.5" stroke="#F2F2F2" stroke-width="0.2"/>
<path d="M5 3H5.5" stroke="#F2F2F2" stroke-width="0.2"/>
<path d="M6 3H6.5" stroke="#F2F2F2" stroke-width="0.2"/>
<path d="M7 3H7.5" stroke="#F2F2F2" stroke-width="0.2"/>
<path d="M8 3H8.5" stroke="#F2F2F2" stroke-width="0.2"/>
<path d="M9 3H9.5" stroke="#F2F2F2" stroke-width="0.2"/>
</svg>
